<svg width="822" height="1122" viewBox="0 0 822 1122" fill="none" xmlns="http://www.w3.org/2000/svg">
<path d="M0 20C0 8.9543 8.95431 0 20 0H802C813.046 0 822 8.9543 822 20V1102C822 1113.05 813.046 1122 802 1122H20C8.95432 1122 0 1113.05 0 1102V20Z" fill="#1A0033"/>
<path d="M54.6005 159C52.5525 159 51.1018 158.616 50.2485 157.848C49.4805 156.995 49.0965 155.629 49.0965 153.752V148.888C49.0965 147.011 49.4805 145.645 50.2485 144.792C51.1018 143.939 52.5525 143.512 54.6005 143.512H65.6085V94.488L56.5205 100.12C56.0938 100.461 55.5392 100.632 54.8565 100.632C54.0032 100.632 53.3632 100.248 52.9365 99.48L46.9205 90.264C46.5792 89.6667 46.4085 89.112 46.4085 88.6C46.4085 87.7467 46.8778 87.064 47.8165 86.552L69.9605 73.24C70.7285 72.728 71.4538 72.3867 72.1365 72.216C72.8192 72.0453 73.8005 71.96 75.0805 71.96H81.0965C83.1445 71.96 84.5952 72.4293 85.4485 73.368C86.3872 74.3067 86.8565 75.7147 86.8565 77.592V143.512H97.9925C100.041 143.512 101.449 143.939 102.217 144.792C102.985 145.56 103.369 146.925 103.369 148.888V153.752C103.369 155.629 102.985 156.995 102.217 157.848C101.449 158.616 100.041 159 97.9925 159H54.6005ZM152.301 160.92C137.879 160.92 126.999 157.037 119.661 149.272C112.407 141.421 108.781 130.157 108.781 115.48C108.781 100.803 112.407 89.5813 119.661 81.816C126.999 73.9653 137.879 70.04 152.301 70.04C166.637 70.04 177.431 73.9653 184.685 81.816C192.023 89.5813 195.693 100.803 195.693 115.48C195.693 130.157 192.023 141.421 184.685 149.272C177.431 157.037 166.637 160.92 152.301 160.92ZM163.821 88.216C160.663 86.2533 156.823 85.272 152.301 85.272C144.535 85.272 138.818 87.7467 135.149 92.696C131.565 97.6453 129.773 105.24 129.773 115.48C129.773 122.136 130.967 127.299 133.357 130.968L163.821 88.216ZM152.301 145.688C160.066 145.688 165.741 143.213 169.325 138.264C172.909 133.315 174.701 125.72 174.701 115.48C174.701 109.08 173.549 103.832 171.245 99.736L140.525 143C143.597 144.792 147.522 145.688 152.301 145.688Z" fill="#FFF066"/>
<path d="M141.309 231.337C141.309 231.336 141.309 231.335 141.309 231.333C141.309 219.551 132.085 210 120.706 210C109.327 210 100.103 219.551 100.103 231.333C88.7243 231.333 79.5 240.885 79.5 252.667C79.5 264.449 88.7243 274 100.103 274C110.489 274 119.08 266.043 120.5 255.695C121.92 266.043 130.511 274 140.897 274C152.276 274 161.5 264.449 161.5 252.667C161.5 241.027 152.498 231.565 141.309 231.337Z" fill="#FFF066"/>
<rect x="118.5" y="251" width="5" height="33" rx="2.5" fill="#FFF066"/>
<path d="M759.399 959C761.447 959 762.898 959.384 763.751 960.152C764.519 961.005 764.903 962.371 764.903 964.248V969.112C764.903 970.989 764.519 972.355 763.751 973.208C762.898 974.061 761.447 974.488 759.399 974.488H748.391V1023.51L757.479 1017.88C757.906 1017.54 758.461 1017.37 759.143 1017.37C759.997 1017.37 760.637 1017.75 761.063 1018.52L767.079 1027.74C767.421 1028.33 767.591 1028.89 767.591 1029.4C767.591 1030.25 767.122 1030.94 766.183 1031.45L744.039 1044.76C743.271 1045.27 742.546 1045.61 741.863 1045.78C741.181 1045.95 740.199 1046.04 738.919 1046.04H732.903C730.855 1046.04 729.405 1045.57 728.551 1044.63C727.613 1043.69 727.143 1042.29 727.143 1040.41V974.488H716.007C713.959 974.488 712.551 974.061 711.783 973.208C711.015 972.44 710.631 971.075 710.631 969.112V964.248C710.631 962.371 711.015 961.005 711.783 960.152C712.551 959.384 713.959 959 716.007 959H759.399ZM661.699 957.08C676.121 957.08 687.001 960.963 694.339 968.728C701.593 976.579 705.219 987.843 705.219 1002.52C705.219 1017.2 701.593 1028.42 694.339 1036.18C687.001 1044.03 676.121 1047.96 661.699 1047.96C647.363 1047.96 636.569 1044.03 629.315 1036.18C621.977 1028.42 618.307 1017.2 618.307 1002.52C618.307 987.843 621.977 976.579 629.315 968.728C636.569 960.963 647.363 957.08 661.699 957.08ZM650.179 1029.78C653.337 1031.75 657.177 1032.73 661.699 1032.73C669.465 1032.73 675.182 1030.25 678.851 1025.3C682.435 1020.35 684.227 1012.76 684.227 1002.52C684.227 995.864 683.033 990.701 680.643 987.032L650.179 1029.78ZM661.699 972.312C653.934 972.312 648.259 974.787 644.675 979.736C641.091 984.685 639.299 992.28 639.299 1002.52C639.299 1008.92 640.451 1014.17 642.755 1018.26L673.475 975C670.403 973.208 666.478 972.312 661.699 972.312Z" fill="#FFF066"/>
<path d="M672.691 886.663C672.691 886.664 672.691 886.665 672.691 886.667C672.691 898.449 681.915 908 693.294 908C704.673 908 713.897 898.449 713.897 886.667C725.276 886.667 734.5 877.115 734.5 865.333C734.5 853.551 725.276 844 713.897 844C703.511 844 694.92 851.957 693.5 862.305C692.08 851.957 683.489 844 673.103 844C661.724 844 652.5 853.551 652.5 865.333C652.5 876.973 661.502 886.435 672.691 886.663Z" fill="#FFF066"/>
<rect x="695.5" y="867" width="5" height="33" rx="2.5" transform="rotate(-180 695.5 867)" fill="#FFF066"/>
<path d="M435.668 465.317V469.236L439.586 469.317C452.372 469.581 463 480.65 463 494.689C463 508.902 452.111 520.066 439.111 520.066C427.238 520.066 417.144 510.777 415.464 498.324H407.536C405.856 510.777 395.762 520.066 383.889 520.066C370.889 520.066 360 508.902 360 494.689C360 480.475 370.889 469.312 383.889 469.312H387.889V465.312C387.889 451.098 398.778 439.935 411.779 439.935C424.779 439.935 435.668 451.098 435.668 465.312V465.312V465.312V465.312V465.312V465.312V465.312V465.312V465.312V465.312V465.312V465.312V465.312V465.313V465.313V465.313V465.313V465.313V465.313V465.313V465.313V465.313V465.313V465.313V465.313V465.313V465.313V465.313V465.314V465.314V465.314V465.314V465.314V465.314V465.314V465.314V465.314V465.314V465.314V465.314V465.314V465.314V465.314V465.315V465.315V465.315V465.315V465.315V465.315V465.315V465.315V465.315V465.315V465.315V465.315V465.315V465.315V465.315V465.316V465.316V465.316V465.316V465.316V465.316V465.316V465.316V465.316V465.316V465.316V465.316V465.316V465.316V465.316V465.317V465.317V465.317V465.317V465.317V465.317V465.317V465.317V465.317V465.317V465.317V465.317V465.317Z" stroke="#FFF066" stroke-width="8"/>
<path d="M408.307 502.027C408.307 500.347 409.668 498.986 411.348 498.986C413.028 498.986 414.389 500.347 414.389 502.027V532.959C414.389 534.639 413.028 536 411.348 536C409.668 536 408.307 534.639 408.307 532.959V502.027Z" fill="#FFF066"/>
<path d="M267.668 627.317V631.236L271.586 631.317C284.372 631.581 295 642.65 295 656.689C295 670.902 284.111 682.066 271.111 682.066C259.238 682.066 249.144 672.777 247.464 660.324H239.536C237.856 672.777 227.762 682.066 215.889 682.066C202.889 682.066 192 670.902 192 656.689C192 642.475 202.889 631.312 215.889 631.312H219.889V627.312C219.889 613.098 230.778 601.935 243.779 601.935C256.779 601.935 267.668 613.098 267.668 627.312V627.312V627.312V627.312V627.312V627.312V627.312V627.312V627.312V627.312V627.312V627.312V627.312V627.313V627.313V627.313V627.313V627.313V627.313V627.313V627.313V627.313V627.313V627.313V627.313V627.313V627.313V627.313V627.314V627.314V627.314V627.314V627.314V627.314V627.314V627.314V627.314V627.314V627.314V627.314V627.314V627.314V627.314V627.315V627.315V627.315V627.315V627.315V627.315V627.315V627.315V627.315V627.315V627.315V627.315V627.315V627.315V627.315V627.316V627.316V627.316V627.316V627.316V627.316V627.316V627.316V627.316V627.316V627.316V627.316V627.316V627.316V627.316V627.317V627.317V627.317V627.317V627.317V627.317V627.317V627.317V627.317V627.317V627.317V627.317V627.317Z" stroke="#FFF066" stroke-width="8"/>
<path d="M240.307 664.027C240.307 662.347 241.668 660.986 243.348 660.986C245.028 660.986 246.389 662.347 246.389 664.027V694.959C246.389 696.639 245.028 698 243.348 698C241.668 698 240.307 696.639 240.307 694.959V664.027Z" fill="#FFF066"/>
<path d="M431.668 627.317V631.236L435.586 631.317C448.372 631.581 459 642.65 459 656.689C459 670.902 448.111 682.066 435.111 682.066C423.238 682.066 413.144 672.777 411.464 660.324H403.536C401.856 672.777 391.762 682.066 379.889 682.066C366.889 682.066 356 670.902 356 656.689C356 642.475 366.889 631.312 379.889 631.312H383.889V627.312C383.889 613.098 394.778 601.935 407.779 601.935C420.779 601.935 431.668 613.098 431.668 627.312V627.312V627.312V627.312V627.312V627.312V627.312V627.312V627.312V627.312V627.312V627.312V627.312V627.313V627.313V627.313V627.313V627.313V627.313V627.313V627.313V627.313V627.313V627.313V627.313V627.313V627.313V627.313V627.314V627.314V627.314V627.314V627.314V627.314V627.314V627.314V627.314V627.314V627.314V627.314V627.314V627.314V627.314V627.315V627.315V627.315V627.315V627.315V627.315V627.315V627.315V627.315V627.315V627.315V627.315V627.315V627.315V627.315V627.316V627.316V627.316V627.316V627.316V627.316V627.316V627.316V627.316V627.316V627.316V627.316V627.316V627.316V627.316V627.317V627.317V627.317V627.317V627.317V627.317V627.317V627.317V627.317V627.317V627.317V627.317V627.317Z" stroke="#FFF066" stroke-width="8"/>
<path d="M404.307 664.027C404.307 662.347 405.668 660.986 407.348 660.986C409.028 660.986 410.389 662.347 410.389 664.027V694.959C410.389 696.639 409.028 698 407.348 698C405.668 698 404.307 696.639 404.307 694.959V664.027Z" fill="#FFF066"/>
<path d="M435.668 789.317V793.236L439.586 793.317C452.372 793.581 463 804.65 463 818.689C463 832.902 452.111 844.066 439.111 844.066C427.238 844.066 417.144 834.777 415.464 822.324H407.536C405.856 834.777 395.762 844.066 383.889 844.066C370.889 844.066 360 832.902 360 818.689C360 804.475 370.889 793.312 383.889 793.312H387.889V789.312C387.889 775.098 398.778 763.935 411.779 763.935C424.779 763.935 435.668 775.098 435.668 789.312V789.312V789.312V789.312V789.312V789.312V789.312V789.312V789.312V789.312V789.312V789.312V789.312V789.313V789.313V789.313V789.313V789.313V789.313V789.313V789.313V789.313V789.313V789.313V789.313V789.313V789.313V789.313V789.314V789.314V789.314V789.314V789.314V789.314V789.314V789.314V789.314V789.314V789.314V789.314V789.314V789.314V789.314V789.315V789.315V789.315V789.315V789.315V789.315V789.315V789.315V789.315V789.315V789.315V789.315V789.315V789.315V789.315V789.316V789.316V789.316V789.316V789.316V789.316V789.316V789.316V789.316V789.316V789.316V789.316V789.316V789.316V789.316V789.317V789.317V789.317V789.317V789.317V789.317V789.317V789.317V789.317V789.317V789.317V789.317V789.317Z" stroke="#FFF066" stroke-width="8"/>
<path d="M408.307 826.027C408.307 824.347 409.668 822.986 411.348 822.986C413.028 822.986 414.389 824.347 414.389 826.027V856.959C414.389 858.639 413.028 860 411.348 860C409.668 860 408.307 858.639 408.307 856.959V826.027Z" fill="#FFF066"/>
<path d="M603.668 627.317V631.236L607.586 631.317C620.372 631.581 631 642.65 631 656.689C631 670.902 620.111 682.066 607.111 682.066C595.238 682.066 585.144 672.777 583.464 660.324H575.536C573.856 672.777 563.762 682.066 551.889 682.066C538.889 682.066 528 670.902 528 656.689C528 642.475 538.889 631.312 551.889 631.312H555.889V627.312C555.889 613.098 566.778 601.935 579.779 601.935C592.779 601.935 603.668 613.098 603.668 627.312V627.312V627.312V627.312V627.312V627.312V627.312V627.312V627.312V627.312V627.312V627.312V627.312V627.313V627.313V627.313V627.313V627.313V627.313V627.313V627.313V627.313V627.313V627.313V627.313V627.313V627.313V627.313V627.314V627.314V627.314V627.314V627.314V627.314V627.314V627.314V627.314V627.314V627.314V627.314V627.314V627.314V627.314V627.315V627.315V627.315V627.315V627.315V627.315V627.315V627.315V627.315V627.315V627.315V627.315V627.315V627.315V627.315V627.316V627.316V627.316V627.316V627.316V627.316V627.316V627.316V627.316V627.316V627.316V627.316V627.316V627.316V627.316V627.317V627.317V627.317V627.317V627.317V627.317V627.317V627.317V627.317V627.317V627.317V627.317V627.317Z" stroke="#FFF066" stroke-width="8"/>
<path d="M576.307 664.027C576.307 662.347 577.668 660.986 579.348 660.986C581.028 660.986 582.389 662.347 582.389 664.027V694.959C582.389 696.639 581.028 698 579.348 698C577.668 698 576.307 696.639 576.307 694.959V664.027Z" fill="#FFF066"/>
<path d="M603.668 465.317V469.236L607.586 469.317C620.372 469.581 631 480.65 631 494.689C631 508.902 620.111 520.066 607.111 520.066C595.238 520.066 585.144 510.777 583.464 498.324H575.536C573.856 510.777 563.762 520.066 551.889 520.066C538.889 520.066 528 508.902 528 494.689C528 480.475 538.889 469.312 551.889 469.312H555.889V465.312C555.889 451.098 566.778 439.935 579.779 439.935C592.779 439.935 603.668 451.098 603.668 465.312V465.312V465.312V465.312V465.312V465.312V465.312V465.312V465.312V465.312V465.312V465.312V465.312V465.313V465.313V465.313V465.313V465.313V465.313V465.313V465.313V465.313V465.313V465.313V465.313V465.313V465.313V465.313V465.314V465.314V465.314V465.314V465.314V465.314V465.314V465.314V465.314V465.314V465.314V465.314V465.314V465.314V465.314V465.315V465.315V465.315V465.315V465.315V465.315V465.315V465.315V465.315V465.315V465.315V465.315V465.315V465.315V465.315V465.316V465.316V465.316V465.316V465.316V465.316V465.316V465.316V465.316V465.316V465.316V465.316V465.316V465.316V465.316V465.317V465.317V465.317V465.317V465.317V465.317V465.317V465.317V465.317V465.317V465.317V465.317V465.317Z" stroke="#FFF066" stroke-width="8"/>
<path d="M576.307 502.027C576.307 500.347 577.668 498.986 579.348 498.986C581.028 498.986 582.389 500.347 582.389 502.027V532.959C582.389 534.639 581.028 536 579.348 536C577.668 536 576.307 534.639 576.307 532.959V502.027Z" fill="#FFF066"/>
<path d="M267.668 465.317V469.236L271.586 469.317C284.372 469.581 295 480.65 295 494.689C295 508.902 284.111 520.066 271.111 520.066C259.238 520.066 249.144 510.777 247.464 498.324H239.536C237.856 510.777 227.762 520.066 215.889 520.066C202.889 520.066 192 508.902 192 494.689C192 480.475 202.889 469.312 215.889 469.312H219.889V465.312C219.889 451.098 230.778 439.935 243.779 439.935C256.779 439.935 267.668 451.098 267.668 465.312V465.312V465.312V465.312V465.312V465.312V465.312V465.312V465.312V465.312V465.312V465.312V465.312V465.313V465.313V465.313V465.313V465.313V465.313V465.313V465.313V465.313V465.313V465.313V465.313V465.313V465.313V465.313V465.314V465.314V465.314V465.314V465.314V465.314V465.314V465.314V465.314V465.314V465.314V465.314V465.314V465.314V465.314V465.315V465.315V465.315V465.315V465.315V465.315V465.315V465.315V465.315V465.315V465.315V465.315V465.315V465.315V465.315V465.316V465.316V465.316V465.316V465.316V465.316V465.316V465.316V465.316V465.316V465.316V465.316V465.316V465.316V465.316V465.317V465.317V465.317V465.317V465.317V465.317V465.317V465.317V465.317V465.317V465.317V465.317V465.317Z" stroke="#FFF066" stroke-width="8"/>
<path d="M240.307 502.027C240.307 500.347 241.668 498.986 243.348 498.986C245.028 498.986 246.389 500.347 246.389 502.027V532.959C246.389 534.639 245.028 536 243.348 536C241.668 536 240.307 534.639 240.307 532.959V502.027Z" fill="#FFF066"/>
<path d="M603.668 303.317V307.236L607.586 307.317C620.372 307.581 631 318.65 631 332.689C631 346.902 620.111 358.066 607.111 358.066C595.238 358.066 585.144 348.777 583.464 336.324H575.536C573.856 348.777 563.762 358.066 551.889 358.066C538.889 358.066 528 346.902 528 332.689C528 318.475 538.889 307.312 551.889 307.312H555.889V303.312C555.889 289.098 566.778 277.935 579.779 277.935C592.779 277.935 603.668 289.098 603.668 303.312V303.312V303.312V303.312V303.312V303.312V303.312V303.312V303.312V303.312V303.312V303.312V303.312V303.313V303.313V303.313V303.313V303.313V303.313V303.313V303.313V303.313V303.313V303.313V303.313V303.313V303.313V303.313V303.314V303.314V303.314V303.314V303.314V303.314V303.314V303.314V303.314V303.314V303.314V303.314V303.314V303.314V303.314V303.315V303.315V303.315V303.315V303.315V303.315V303.315V303.315V303.315V303.315V303.315V303.315V303.315V303.315V303.315V303.316V303.316V303.316V303.316V303.316V303.316V303.316V303.316V303.316V303.316V303.316V303.316V303.316V303.316V303.316V303.317V303.317V303.317V303.317V303.317V303.317V303.317V303.317V303.317V303.317V303.317V303.317V303.317Z" stroke="#FFF066" stroke-width="8"/>
<path d="M576.307 340.027C576.307 338.347 577.668 336.986 579.348 336.986C581.028 336.986 582.389 338.347 582.389 340.027V370.959C582.389 372.639 581.028 374 579.348 374C577.668 374 576.307 372.639 576.307 370.959V340.027Z" fill="#FFF066"/>
<path d="M267.668 303.317V307.236L271.586 307.317C284.372 307.581 295 318.65 295 332.689C295 346.902 284.111 358.066 271.111 358.066C259.238 358.066 249.144 348.777 247.464 336.324H239.536C237.856 348.777 227.762 358.066 215.889 358.066C202.889 358.066 192 346.902 192 332.689C192 318.475 202.889 307.312 215.889 307.312H219.889V303.312C219.889 289.098 230.778 277.935 243.779 277.935C256.779 277.935 267.668 289.098 267.668 303.312V303.312V303.312V303.312V303.312V303.312V303.312V303.312V303.312V303.312V303.312V303.312V303.312V303.313V303.313V303.313V303.313V303.313V303.313V303.313V303.313V303.313V303.313V303.313V303.313V303.313V303.313V303.313V303.314V303.314V303.314V303.314V303.314V303.314V303.314V303.314V303.314V303.314V303.314V303.314V303.314V303.314V303.314V303.315V303.315V303.315V303.315V303.315V303.315V303.315V303.315V303.315V303.315V303.315V303.315V303.315V303.315V303.315V303.316V303.316V303.316V303.316V303.316V303.316V303.316V303.316V303.316V303.316V303.316V303.316V303.316V303.316V303.316V303.317V303.317V303.317V303.317V303.317V303.317V303.317V303.317V303.317V303.317V303.317V303.317V303.317Z" stroke="#FFF066" stroke-width="8"/>
<path d="M240.307 340.027C240.307 338.347 241.668 336.986 243.348 336.986C245.028 336.986 246.389 338.347 246.389 340.027V370.959C246.389 372.639 245.028 374 243.348 374C241.668 374 240.307 372.639 240.307 370.959V340.027Z" fill="#FFF066"/>
<path d="M435.668 303.317V307.236L439.586 307.317C452.372 307.581 463 318.65 463 332.689C463 346.902 452.111 358.066 439.111 358.066C427.238 358.066 417.144 348.777 415.464 336.324H407.536C405.856 348.777 395.762 358.066 383.889 358.066C370.889 358.066 360 346.902 360 332.689C360 318.475 370.889 307.312 383.889 307.312H387.889V303.312C387.889 289.098 398.778 277.935 411.779 277.935C424.779 277.935 435.668 289.098 435.668 303.312V303.312V303.312V303.312V303.312V303.312V303.312V303.312V303.312V303.312V303.312V303.312V303.312V303.313V303.313V303.313V303.313V303.313V303.313V303.313V303.313V303.313V303.313V303.313V303.313V303.313V303.313V303.313V303.314V303.314V303.314V303.314V303.314V303.314V303.314V303.314V303.314V303.314V303.314V303.314V303.314V303.314V303.314V303.315V303.315V303.315V303.315V303.315V303.315V303.315V303.315V303.315V303.315V303.315V303.315V303.315V303.315V303.315V303.316V303.316V303.316V303.316V303.316V303.316V303.316V303.316V303.316V303.316V303.316V303.316V303.316V303.316V303.316V303.317V303.317V303.317V303.317V303.317V303.317V303.317V303.317V303.317V303.317V303.317V303.317V303.317Z" stroke="#FFF066" stroke-width="8"/>
<path d="M408.307 340.027C408.307 338.347 409.668 336.986 411.348 336.986C413.028 336.986 414.389 338.347 414.389 340.027V370.959C414.389 372.639 413.028 374 411.348 374C409.668 374 408.307 372.639 408.307 370.959V340.027Z" fill="#FFF066"/>
</svg>
