<svg width="822" height="1122" viewBox="0 0 822 1122" fill="none" xmlns="http://www.w3.org/2000/svg">
<path d="M0 20C0 8.9543 8.95431 0 20 0H802C813.046 0 822 8.9543 822 20V1102C822 1113.05 813.046 1122 802 1122H20C8.95432 1122 0 1113.05 0 1102V20Z" fill="#1A0033"/>
<path d="M157.387 154.776C157.899 155.373 158.155 156.056 158.155 156.824C158.155 158.275 157.387 159 155.851 159H139.851C138.827 159 138.016 158.915 137.419 158.744C136.907 158.488 136.395 158.061 135.883 157.464L107.595 120.344L107.211 119.832V153.496C107.211 155.373 106.784 156.781 105.931 157.72C105.077 158.573 103.584 159 101.451 159H91.8505C89.8025 159 88.3092 158.573 87.3705 157.72C86.5172 156.781 86.0905 155.373 86.0905 153.496V77.592C86.0905 75.7147 86.5172 74.3067 87.3705 73.368C88.3092 72.4293 89.8025 71.96 91.8505 71.96H101.451C103.584 71.96 105.077 72.4293 105.931 73.368C106.784 74.2213 107.211 75.6293 107.211 77.592V110.616L107.595 110.104L134.987 73.624C135.499 72.9413 136.011 72.5147 136.523 72.344C137.12 72.088 138.016 71.96 139.211 71.96H154.955C156.491 71.96 157.259 72.6853 157.259 74.136C157.259 74.8187 157.003 75.5013 156.491 76.184L126.155 115.224L157.387 154.776Z" fill="#FFF066"/>
<path d="M141.309 231.337C141.309 231.336 141.309 231.335 141.309 231.333C141.309 219.551 132.085 210 120.706 210C109.327 210 100.103 219.551 100.103 231.333C88.7243 231.333 79.5 240.885 79.5 252.667C79.5 264.449 88.7243 274 100.103 274C110.489 274 119.08 266.043 120.5 255.695C121.92 266.043 130.511 274 140.897 274C152.276 274 161.5 264.449 161.5 252.667C161.5 241.027 152.498 231.565 141.309 231.337Z" fill="#FFF066"/>
<rect x="118.5" y="251" width="5" height="33" rx="2.5" fill="#FFF066"/>
<path d="M656.613 963.224C656.101 962.627 655.845 961.944 655.845 961.176C655.845 959.725 656.613 959 658.149 959H674.149C675.173 959 675.984 959.085 676.581 959.256C677.093 959.512 677.605 959.939 678.117 960.536L706.405 997.656L706.789 998.168V964.504C706.789 962.627 707.216 961.219 708.069 960.28C708.923 959.427 710.416 959 712.549 959H722.149C724.197 959 725.691 959.427 726.629 960.28C727.483 961.219 727.909 962.627 727.909 964.504V1040.41C727.909 1042.29 727.483 1043.69 726.629 1044.63C725.691 1045.57 724.197 1046.04 722.149 1046.04H712.549C710.416 1046.04 708.923 1045.57 708.069 1044.63C707.216 1043.78 706.789 1042.37 706.789 1040.41V1007.38L706.405 1007.9L679.013 1044.38C678.501 1045.06 677.989 1045.49 677.477 1045.66C676.88 1045.91 675.984 1046.04 674.789 1046.04H659.045C657.509 1046.04 656.741 1045.31 656.741 1043.86C656.741 1043.18 656.997 1042.5 657.509 1041.82L687.845 1002.78L656.613 963.224Z" fill="#FFF066"/>
<path d="M672.691 886.663C672.691 886.664 672.691 886.665 672.691 886.667C672.691 898.449 681.915 908 693.294 908C704.673 908 713.897 898.449 713.897 886.667C725.276 886.667 734.5 877.115 734.5 865.333C734.5 853.551 725.276 844 713.897 844C703.511 844 694.92 851.957 693.5 862.305C692.08 851.957 683.489 844 673.103 844C661.724 844 652.5 853.551 652.5 865.333C652.5 876.973 661.502 886.435 672.691 886.663Z" fill="#FFF066"/>
<rect x="695.5" y="867" width="5" height="33" rx="2.5" transform="rotate(-180 695.5 867)" fill="#FFF066"/>
<path fill-rule="evenodd" clip-rule="evenodd" d="M413.096 652.136V716.509C413.096 717.379 412.061 717.834 411.42 717.245L362.38 672.22C362.257 672.107 362.107 672.026 361.944 671.986L313.246 659.952C312.8 659.841 312.486 659.441 312.486 658.981V647.5L361.079 607.524L367.215 612.589L412.745 651.375C412.968 651.565 413.096 651.843 413.096 652.136Z" fill="#998A00"/>
<path d="M304.403 894.647H429.266V795.5L352.873 683.132H278.324V750.553C278.324 750.553 249.036 757.956 252.246 769.325C255.455 780.694 278.324 817.973 278.324 817.973L304.403 894.647Z" fill="#E6CF00"/>
<path d="M306.925 932.379C304.376 936.438 298.129 934.931 297.71 930.157L295.596 906.077C295.339 903.154 297.643 900.639 300.577 900.639H317.814C321.746 900.639 324.14 904.969 322.048 908.299L306.925 932.379Z" fill="#E6CF00"/>
<path d="M423.448 932.379C425.997 936.438 432.244 934.931 432.663 930.157L434.777 906.077C435.034 903.154 432.73 900.639 429.796 900.639H412.559C408.627 900.639 406.233 904.969 408.324 908.299L423.448 932.379Z" fill="#E6CF00"/>
<path d="M388.767 931.581C387.2 936.034 380.902 936.034 379.335 931.581L370.577 906.7C369.432 903.448 371.845 900.04 375.293 900.04H392.809C396.257 900.04 398.67 903.448 397.525 906.7L388.767 931.581Z" fill="#E6CF00"/>
<path d="M351.038 931.581C349.471 936.034 343.173 936.034 341.606 931.581L332.848 906.7C331.703 903.448 334.116 900.04 337.564 900.04H355.08C358.528 900.04 360.941 903.448 359.796 906.7L351.038 931.581Z" fill="#E6CF00"/>
<path d="M399.202 865.444C380.613 882.617 328.318 879.012 303.564 876.174C297.17 875.441 291.766 881.227 293.154 887.512C294.074 891.68 297.769 894.647 302.037 894.647H425.254C430.777 894.647 435.254 890.17 435.254 884.647V753.637C435.254 750.895 434.129 748.274 432.141 746.386L361.87 679.641C360.638 678.472 359.129 677.635 357.485 677.21L315.837 666.45C314.079 665.995 312.231 666.028 310.491 666.545L279.517 675.735C275.273 676.994 272.362 680.894 272.362 685.322V691.741C272.362 698.209 278.408 703.074 284.794 702.047C306.111 698.62 349.224 694.715 368.78 714.59C395.309 741.554 440.781 827.032 399.202 865.444Z" fill="#FFFACC"/>
<rect x="328.655" y="729.27" width="50.3051" height="5.99194" rx="2.99597" transform="rotate(-180 328.655 729.27)" fill="#FFFACC"/>
<path d="M278.35 740.655V750.242C278.35 750.242 330.596 754.49 339.831 745.27C347.263 737.85 346.607 697.513 346.607 697.513H336.942C336.942 697.513 341.678 729.465 332.97 737.367C324.263 745.27 278.35 740.655 278.35 740.655Z" fill="#FFFACC"/>
<path d="M361.294 599.844L413.096 644.185H455.316L359.797 502.775L278.65 640.889H312.186L361.294 599.844Z" fill="#FFFACC"/>
<path d="M314.534 842.123C321.873 840.762 329.317 836.219 333.187 833.343C334.062 832.693 334.588 831.526 334.035 830.587C332.459 827.911 328.691 833.2 322.068 834.429C316.82 835.402 300.742 834.558 293.178 833.233C291.584 832.954 289.923 833.799 289.376 835.322L288.526 837.687C287.899 839.432 288.986 841.318 290.822 841.579C297.327 842.502 307.615 843.406 314.534 842.123Z" fill="#F2E6FF"/>
<path fill-rule="evenodd" clip-rule="evenodd" d="M405.011 479.843V415.471C405.011 414.601 406.046 414.146 406.688 414.735L455.727 459.76C455.851 459.873 456.001 459.954 456.163 459.994L504.861 472.028C505.308 472.139 505.622 472.539 505.622 472.999V484.48L457.028 524.456L450.893 519.391L405.363 480.605C405.14 480.415 405.011 480.136 405.011 479.843Z" fill="#998A00"/>
<path d="M513.704 237.332H388.842V336.48L465.234 448.848H539.783V381.427C539.783 381.427 569.071 374.024 565.862 362.655C562.652 351.286 539.783 314.007 539.783 314.007L513.704 237.332Z" fill="#E6CF00"/>
<path d="M511.182 199.601C513.731 195.542 519.978 197.048 520.397 201.823L522.511 225.903C522.768 228.826 520.465 231.34 517.531 231.34H500.293C496.361 231.34 493.968 227.011 496.059 223.681L511.182 199.601Z" fill="#E6CF00"/>
<path d="M394.66 199.601C392.111 195.542 385.864 197.048 385.445 201.823L383.33 225.903C383.074 228.826 385.377 231.34 388.311 231.34H405.549C409.481 231.34 411.874 227.011 409.783 223.681L394.66 199.601Z" fill="#E6CF00"/>
<path d="M429.34 200.399C430.908 195.946 437.205 195.946 438.773 200.399L447.531 225.279C448.675 228.532 446.262 231.94 442.814 231.94H425.299C421.851 231.94 419.438 228.532 420.582 225.279L429.34 200.399Z" fill="#E6CF00"/>
<path d="M467.069 200.399C468.636 195.946 474.934 195.946 476.502 200.399L485.259 225.279C486.404 228.532 483.991 231.94 480.543 231.94H463.028C459.58 231.94 457.166 228.532 458.311 225.279L467.069 200.399Z" fill="#E6CF00"/>
<path d="M418.905 266.536C437.494 249.362 489.789 252.968 514.543 255.806C520.938 256.539 526.341 250.753 524.953 244.468C524.033 240.3 520.339 237.332 516.07 237.332H392.853C387.33 237.332 382.853 241.809 382.853 247.332V378.343C382.853 381.084 383.979 383.706 385.966 385.594L456.238 452.338C457.469 453.508 458.978 454.345 460.623 454.77L502.271 465.53C504.028 465.984 505.876 465.951 507.617 465.435L538.59 456.245C542.835 454.986 545.746 451.085 545.746 446.658V440.239C545.746 433.77 539.7 428.906 533.313 429.933C511.996 433.36 468.883 437.265 449.328 417.39C422.798 390.426 377.327 304.947 418.905 266.536Z" fill="#FFFACC"/>
<rect x="489.452" y="402.71" width="50.3051" height="5.99194" rx="2.99597" fill="#FFFACC"/>
<path d="M539.757 391.325V381.738C539.757 381.738 487.512 377.49 478.276 386.71C470.844 394.129 471.501 434.467 471.501 434.467H481.165C481.165 434.467 476.429 402.515 485.137 394.612C493.844 386.71 539.757 391.325 539.757 391.325Z" fill="#FFFACC"/>
<path d="M456.814 532.135L405.011 487.795H362.791L458.311 629.205L539.458 491.091H505.921L456.814 532.135Z" fill="#FFFACC"/>
<path d="M503.573 289.857C496.234 291.218 488.791 295.761 484.92 298.636C484.045 299.286 483.519 300.454 484.072 301.393C485.649 304.069 489.416 298.78 496.04 297.551C501.287 296.578 517.365 297.422 524.93 298.747C526.523 299.026 528.185 298.181 528.732 296.658L529.581 294.293C530.208 292.548 529.121 290.662 527.285 290.401C520.781 289.477 510.492 288.574 503.573 289.857Z" fill="#F2E6FF"/>
</svg>
