<svg width="822" height="1122" viewBox="0 0 822 1122" fill="none" xmlns="http://www.w3.org/2000/svg">
<path d="M0 20C0 8.9543 8.95431 0 20 0H802C813.046 0 822 8.9543 822 20V1102C822 1113.05 813.046 1122 802 1122H20C8.95432 1122 0 1113.05 0 1102V20Z" fill="#1A0033"/>
<path d="M475.126 502.485V512.29L484.929 512.483C529.262 513.356 565 549.723 565 594.533C565 639.893 528.381 676.598 483.291 676.598C442.143 676.598 408.039 646.025 402.401 606.201H382.599C376.961 646.025 342.857 676.598 301.709 676.598C256.619 676.598 220 639.893 220 594.533C220 549.173 256.619 512.467 301.709 512.467H311.709V502.467C311.709 457.107 348.327 420.402 393.417 420.402C438.507 420.402 475.126 457.107 475.126 502.467V502.467V502.468V502.468V502.468V502.468V502.469V502.469V502.469V502.469V502.47V502.47V502.47V502.47V502.471V502.471V502.471V502.471V502.472V502.472V502.472V502.472V502.473V502.473V502.473V502.473V502.474V502.474V502.474V502.474V502.475V502.475V502.475V502.475V502.476V502.476V502.476V502.476V502.477V502.477V502.477V502.477V502.478V502.478V502.478V502.478V502.479V502.479V502.479V502.479V502.479V502.48V502.48V502.48V502.48V502.481V502.481V502.481V502.481V502.482V502.482V502.482V502.482V502.483V502.483V502.483V502.483V502.484V502.484V502.484V502.484V502.485V502.485V502.485Z" stroke="#FFF066" stroke-width="20"/>
<path d="M382 618C382 612.477 386.477 608 392 608C397.523 608 402 612.477 402 618V714C402 719.523 397.523 724 392 724C386.477 724 382 719.523 382 714V618Z" fill="#FFF066"/>
<path d="M80.025 159C78.489 159 77.721 158.275 77.721 156.824C77.721 156.227 77.849 155.544 78.105 154.776L111.257 75.8C111.854 74.3493 112.494 73.368 113.177 72.856C113.945 72.2587 115.012 71.96 116.377 71.96H125.721C127.086 71.96 128.11 72.2587 128.793 72.856C129.476 73.368 130.116 74.3493 130.713 75.8L163.865 154.776C164.121 155.544 164.249 156.227 164.249 156.824C164.249 158.275 163.481 159 161.945 159H146.457C145.262 159 144.366 158.829 143.769 158.488C143.257 158.061 142.788 157.336 142.361 156.312L136.473 141.208H105.369L99.609 156.312C99.1823 157.336 98.6703 158.061 98.073 158.488C97.561 158.829 96.7077 159 95.513 159H80.025ZM131.609 126.488L120.985 98.84L110.233 126.488H131.609Z" fill="#FFF066"/>
<path d="M141.309 231.337C141.309 231.336 141.309 231.335 141.309 231.333C141.309 219.551 132.085 210 120.706 210C109.327 210 100.103 219.551 100.103 231.333C88.7243 231.333 79.5 240.885 79.5 252.667C79.5 264.449 88.7243 274 100.103 274C110.489 274 119.08 266.043 120.5 255.695C121.92 266.043 130.511 274 140.897 274C152.276 274 161.5 264.449 161.5 252.667C161.5 241.027 152.498 231.565 141.309 231.337Z" fill="#FFF066"/>
<rect x="118.5" y="251" width="5" height="33" rx="2.5" fill="#FFF066"/>
<path d="M733.975 959C735.511 959 736.279 959.725 736.279 961.176C736.279 961.773 736.151 962.456 735.895 963.224L702.743 1042.2C702.146 1043.65 701.506 1044.63 700.823 1045.14C700.055 1045.74 698.988 1046.04 697.623 1046.04H688.279C686.914 1046.04 685.89 1045.74 685.207 1045.14C684.524 1044.63 683.884 1043.65 683.287 1042.2L650.135 963.224C649.879 962.456 649.751 961.773 649.751 961.176C649.751 959.725 650.519 959 652.055 959H667.543C668.738 959 669.634 959.171 670.231 959.512C670.743 959.939 671.212 960.664 671.639 961.688L677.527 976.792H708.631L714.391 961.688C714.818 960.664 715.33 959.939 715.927 959.512C716.439 959.171 717.292 959 718.487 959H733.975ZM682.391 991.512L693.015 1019.16L703.767 991.512H682.391Z" fill="#FFF066"/>
<path d="M672.691 886.663C672.691 886.664 672.691 886.665 672.691 886.667C672.691 898.449 681.915 908 693.294 908C704.673 908 713.897 898.449 713.897 886.667C725.276 886.667 734.5 877.115 734.5 865.333C734.5 853.551 725.276 844 713.897 844C703.511 844 694.92 851.957 693.5 862.305C692.08 851.957 683.489 844 673.103 844C661.724 844 652.5 853.551 652.5 865.333C652.5 876.973 661.502 886.435 672.691 886.663Z" fill="#FFF066"/>
<rect x="695.5" y="867" width="5" height="33" rx="2.5" transform="rotate(-180 695.5 867)" fill="#FFF066"/>
</svg>
