<svg width="822" height="1122" viewBox="0 0 822 1122" fill="none" xmlns="http://www.w3.org/2000/svg">
<path d="M0 20C0 8.9543 8.95431 0 20 0H802C813.046 0 822 8.9543 822 20V1102C822 1113.05 813.046 1122 802 1122H20C8.95432 1122 0 1113.05 0 1102V20Z" fill="#1A0033"/>
<path d="M118.719 160.92C107.711 160.92 98.8358 158.659 92.0945 154.136C91.3265 153.624 90.9425 152.941 90.9425 152.088C90.9425 151.405 91.1985 150.637 91.7105 149.784L96.0625 142.232C96.6598 141.293 97.2572 140.824 97.8545 140.824C98.4518 140.824 99.1772 141.08 100.031 141.592C104.98 144.323 110.74 145.688 117.311 145.688C123.796 145.688 128.788 144.152 132.287 141.08C135.785 138.008 138.047 133.272 139.071 126.872C136.255 129.091 133.055 130.669 129.471 131.608C125.887 132.547 121.577 133.016 116.543 133.016C109.716 133.016 103.828 131.779 98.8785 129.304C94.0145 126.829 90.3025 123.416 87.7425 119.064C85.2678 114.627 84.0305 109.635 84.0305 104.088C84.0305 92.6533 87.2732 84.12 93.7585 78.488C100.329 72.856 109.631 70.04 121.663 70.04C132.585 70.04 141.375 73.368 148.031 80.024C154.687 86.5947 158.015 96.7067 158.015 110.36C158.015 122.392 156.223 132.205 152.639 139.8C149.055 147.309 144.319 152.728 138.431 156.056C132.543 159.299 125.972 160.92 118.719 160.92ZM121.407 120.344C125.759 120.344 129.385 118.936 132.287 116.12C135.273 113.304 136.767 109.251 136.767 103.96C136.767 97.7307 135.444 93.08 132.799 90.008C130.239 86.8507 126.484 85.272 121.535 85.272C115.988 85.272 111.849 86.7653 109.119 89.752C106.388 92.6533 105.023 97.304 105.023 103.704C105.023 114.797 110.484 120.344 121.407 120.344Z" fill="#FFF066"/>
<path d="M141.309 231.337C141.309 231.336 141.309 231.335 141.309 231.333C141.309 219.551 132.085 210 120.706 210C109.327 210 100.103 219.551 100.103 231.333C88.7243 231.333 79.5 240.885 79.5 252.667C79.5 264.449 88.7243 274 100.103 274C110.489 274 119.08 266.043 120.5 255.695C121.92 266.043 130.511 274 140.897 274C152.276 274 161.5 264.449 161.5 252.667C161.5 241.027 152.498 231.565 141.309 231.337Z" fill="#FFF066"/>
<rect x="118.5" y="251" width="5" height="33" rx="2.5" fill="#FFF066"/>
<path d="M695.281 957.08C706.289 957.08 715.164 959.341 721.905 963.864C722.673 964.376 723.057 965.059 723.057 965.912C723.057 966.595 722.801 967.363 722.289 968.216L717.938 975.768C717.34 976.707 716.743 977.176 716.145 977.176C715.548 977.176 714.823 976.92 713.969 976.408C709.02 973.677 703.26 972.312 696.689 972.312C690.204 972.312 685.212 973.848 681.713 976.92C678.215 979.992 675.953 984.728 674.929 991.128C677.745 988.909 680.945 987.331 684.529 986.392C688.113 985.453 692.423 984.984 697.457 984.984C704.284 984.984 710.172 986.221 715.122 988.696C719.985 991.171 723.697 994.584 726.257 998.936C728.732 1003.37 729.969 1008.37 729.969 1013.91C729.969 1025.35 726.727 1033.88 720.241 1039.51C713.671 1045.14 704.369 1047.96 692.337 1047.96C681.415 1047.96 672.625 1044.63 665.969 1037.98C659.313 1031.41 655.985 1021.29 655.985 1007.64C655.985 995.608 657.777 985.795 661.361 978.2C664.945 970.691 669.681 965.272 675.569 961.944C681.457 958.701 688.028 957.08 695.281 957.08ZM692.593 997.656C688.241 997.656 684.615 999.064 681.713 1001.88C678.727 1004.7 677.233 1008.75 677.233 1014.04C677.233 1020.27 678.556 1024.92 681.201 1027.99C683.761 1031.15 687.516 1032.73 692.465 1032.73C698.012 1032.73 702.151 1031.23 704.881 1028.25C707.612 1025.35 708.977 1020.7 708.977 1014.3C708.977 1003.2 703.516 997.656 692.593 997.656Z" fill="#FFF066"/>
<path d="M672.691 886.663C672.691 886.664 672.691 886.665 672.691 886.667C672.691 898.449 681.915 908 693.294 908C704.673 908 713.897 898.449 713.897 886.667C725.276 886.667 734.5 877.115 734.5 865.333C734.5 853.551 725.276 844 713.897 844C703.511 844 694.92 851.957 693.5 862.305C692.08 851.957 683.489 844 673.103 844C661.724 844 652.5 853.551 652.5 865.333C652.5 876.973 661.502 886.435 672.691 886.663Z" fill="#FFF066"/>
<rect x="695.5" y="867" width="5" height="33" rx="2.5" transform="rotate(-180 695.5 867)" fill="#FFF066"/>
<path d="M435.668 546.317V550.236L439.586 550.317C452.372 550.581 463 561.65 463 575.689C463 589.902 452.111 601.066 439.111 601.066C427.238 601.066 417.144 591.777 415.464 579.324H407.536C405.856 591.777 395.762 601.066 383.889 601.066C370.889 601.066 360 589.902 360 575.689C360 561.475 370.889 550.312 383.889 550.312H387.889V546.312C387.889 532.098 398.778 520.935 411.779 520.935C424.779 520.935 435.668 532.098 435.668 546.312V546.312V546.312V546.312V546.312V546.312V546.312V546.312V546.312V546.312V546.312V546.312V546.312V546.313V546.313V546.313V546.313V546.313V546.313V546.313V546.313V546.313V546.313V546.313V546.313V546.313V546.313V546.313V546.314V546.314V546.314V546.314V546.314V546.314V546.314V546.314V546.314V546.314V546.314V546.314V546.314V546.314V546.314V546.315V546.315V546.315V546.315V546.315V546.315V546.315V546.315V546.315V546.315V546.315V546.315V546.315V546.315V546.315V546.316V546.316V546.316V546.316V546.316V546.316V546.316V546.316V546.316V546.316V546.316V546.316V546.316V546.316V546.316V546.317V546.317V546.317V546.317V546.317V546.317V546.317V546.317V546.317V546.317V546.317V546.317V546.317Z" stroke="#FFF066" stroke-width="8"/>
<path d="M408.307 583.027C408.307 581.347 409.668 579.986 411.348 579.986C413.028 579.986 414.389 581.347 414.389 583.027V613.959C414.389 615.639 413.028 617 411.348 617C409.668 617 408.307 615.639 408.307 613.959V583.027Z" fill="#FFF066"/>
<path d="M267.668 708.317V712.236L271.586 712.317C284.372 712.581 295 723.65 295 737.689C295 751.902 284.111 763.066 271.111 763.066C259.238 763.066 249.144 753.777 247.464 741.324H239.536C237.856 753.777 227.762 763.066 215.889 763.066C202.889 763.066 192 751.902 192 737.689C192 723.475 202.889 712.312 215.889 712.312H219.889V708.312C219.889 694.098 230.778 682.935 243.779 682.935C256.779 682.935 267.668 694.098 267.668 708.312V708.312V708.312V708.312V708.312V708.312V708.312V708.312V708.312V708.312V708.312V708.312V708.312V708.313V708.313V708.313V708.313V708.313V708.313V708.313V708.313V708.313V708.313V708.313V708.313V708.313V708.313V708.313V708.314V708.314V708.314V708.314V708.314V708.314V708.314V708.314V708.314V708.314V708.314V708.314V708.314V708.314V708.314V708.315V708.315V708.315V708.315V708.315V708.315V708.315V708.315V708.315V708.315V708.315V708.315V708.315V708.315V708.315V708.316V708.316V708.316V708.316V708.316V708.316V708.316V708.316V708.316V708.316V708.316V708.316V708.316V708.316V708.316V708.317V708.317V708.317V708.317V708.317V708.317V708.317V708.317V708.317V708.317V708.317V708.317V708.317Z" stroke="#FFF066" stroke-width="8"/>
<path d="M240.307 745.027C240.307 743.347 241.668 741.986 243.348 741.986C245.028 741.986 246.389 743.347 246.389 745.027V775.959C246.389 777.639 245.028 779 243.348 779C241.668 779 240.307 777.639 240.307 775.959V745.027Z" fill="#FFF066"/>
<path d="M431.668 708.317V712.236L435.586 712.317C448.372 712.581 459 723.65 459 737.689C459 751.902 448.111 763.066 435.111 763.066C423.238 763.066 413.144 753.777 411.464 741.324H403.536C401.856 753.777 391.762 763.066 379.889 763.066C366.889 763.066 356 751.902 356 737.689C356 723.475 366.889 712.312 379.889 712.312H383.889V708.312C383.889 694.098 394.778 682.935 407.779 682.935C420.779 682.935 431.668 694.098 431.668 708.312V708.312V708.312V708.312V708.312V708.312V708.312V708.312V708.312V708.312V708.312V708.312V708.312V708.313V708.313V708.313V708.313V708.313V708.313V708.313V708.313V708.313V708.313V708.313V708.313V708.313V708.313V708.313V708.314V708.314V708.314V708.314V708.314V708.314V708.314V708.314V708.314V708.314V708.314V708.314V708.314V708.314V708.314V708.315V708.315V708.315V708.315V708.315V708.315V708.315V708.315V708.315V708.315V708.315V708.315V708.315V708.315V708.315V708.316V708.316V708.316V708.316V708.316V708.316V708.316V708.316V708.316V708.316V708.316V708.316V708.316V708.316V708.316V708.317V708.317V708.317V708.317V708.317V708.317V708.317V708.317V708.317V708.317V708.317V708.317V708.317Z" stroke="#FFF066" stroke-width="8"/>
<path d="M404.307 745.027C404.307 743.347 405.668 741.986 407.348 741.986C409.028 741.986 410.389 743.347 410.389 745.027V775.959C410.389 777.639 409.028 779 407.348 779C405.668 779 404.307 777.639 404.307 775.959V745.027Z" fill="#FFF066"/>
<path d="M603.668 708.317V712.236L607.586 712.317C620.372 712.581 631 723.65 631 737.689C631 751.902 620.111 763.066 607.111 763.066C595.238 763.066 585.144 753.777 583.464 741.324H575.536C573.856 753.777 563.762 763.066 551.889 763.066C538.889 763.066 528 751.902 528 737.689C528 723.475 538.889 712.312 551.889 712.312H555.889V708.312C555.889 694.098 566.778 682.935 579.779 682.935C592.779 682.935 603.668 694.098 603.668 708.312V708.312V708.312V708.312V708.312V708.312V708.312V708.312V708.312V708.312V708.312V708.312V708.312V708.313V708.313V708.313V708.313V708.313V708.313V708.313V708.313V708.313V708.313V708.313V708.313V708.313V708.313V708.313V708.314V708.314V708.314V708.314V708.314V708.314V708.314V708.314V708.314V708.314V708.314V708.314V708.314V708.314V708.314V708.315V708.315V708.315V708.315V708.315V708.315V708.315V708.315V708.315V708.315V708.315V708.315V708.315V708.315V708.315V708.316V708.316V708.316V708.316V708.316V708.316V708.316V708.316V708.316V708.316V708.316V708.316V708.316V708.316V708.316V708.317V708.317V708.317V708.317V708.317V708.317V708.317V708.317V708.317V708.317V708.317V708.317V708.317Z" stroke="#FFF066" stroke-width="8"/>
<path d="M576.307 745.027C576.307 743.347 577.668 741.986 579.348 741.986C581.028 741.986 582.389 743.347 582.389 745.027V775.959C582.389 777.639 581.028 779 579.348 779C577.668 779 576.307 777.639 576.307 775.959V745.027Z" fill="#FFF066"/>
<path d="M603.668 546.317V550.236L607.586 550.317C620.372 550.581 631 561.65 631 575.689C631 589.902 620.111 601.066 607.111 601.066C595.238 601.066 585.144 591.777 583.464 579.324H575.536C573.856 591.777 563.762 601.066 551.889 601.066C538.889 601.066 528 589.902 528 575.689C528 561.475 538.889 550.312 551.889 550.312H555.889V546.312C555.889 532.098 566.778 520.935 579.779 520.935C592.779 520.935 603.668 532.098 603.668 546.312V546.312V546.312V546.312V546.312V546.312V546.312V546.312V546.312V546.312V546.312V546.312V546.312V546.313V546.313V546.313V546.313V546.313V546.313V546.313V546.313V546.313V546.313V546.313V546.313V546.313V546.313V546.313V546.314V546.314V546.314V546.314V546.314V546.314V546.314V546.314V546.314V546.314V546.314V546.314V546.314V546.314V546.314V546.315V546.315V546.315V546.315V546.315V546.315V546.315V546.315V546.315V546.315V546.315V546.315V546.315V546.315V546.315V546.316V546.316V546.316V546.316V546.316V546.316V546.316V546.316V546.316V546.316V546.316V546.316V546.316V546.316V546.316V546.317V546.317V546.317V546.317V546.317V546.317V546.317V546.317V546.317V546.317V546.317V546.317V546.317Z" stroke="#FFF066" stroke-width="8"/>
<path d="M576.307 583.027C576.307 581.347 577.668 579.986 579.348 579.986C581.028 579.986 582.389 581.347 582.389 583.027V613.959C582.389 615.639 581.028 617 579.348 617C577.668 617 576.307 615.639 576.307 613.959V583.027Z" fill="#FFF066"/>
<path d="M267.668 546.317V550.236L271.586 550.317C284.372 550.581 295 561.65 295 575.689C295 589.902 284.111 601.066 271.111 601.066C259.238 601.066 249.144 591.777 247.464 579.324H239.536C237.856 591.777 227.762 601.066 215.889 601.066C202.889 601.066 192 589.902 192 575.689C192 561.475 202.889 550.312 215.889 550.312H219.889V546.312C219.889 532.098 230.778 520.935 243.779 520.935C256.779 520.935 267.668 532.098 267.668 546.312V546.312V546.312V546.312V546.312V546.312V546.312V546.312V546.312V546.312V546.312V546.312V546.312V546.313V546.313V546.313V546.313V546.313V546.313V546.313V546.313V546.313V546.313V546.313V546.313V546.313V546.313V546.313V546.314V546.314V546.314V546.314V546.314V546.314V546.314V546.314V546.314V546.314V546.314V546.314V546.314V546.314V546.314V546.315V546.315V546.315V546.315V546.315V546.315V546.315V546.315V546.315V546.315V546.315V546.315V546.315V546.315V546.315V546.316V546.316V546.316V546.316V546.316V546.316V546.316V546.316V546.316V546.316V546.316V546.316V546.316V546.316V546.316V546.317V546.317V546.317V546.317V546.317V546.317V546.317V546.317V546.317V546.317V546.317V546.317V546.317Z" stroke="#FFF066" stroke-width="8"/>
<path d="M240.307 583.027C240.307 581.347 241.668 579.986 243.348 579.986C245.028 579.986 246.389 581.347 246.389 583.027V613.959C246.389 615.639 245.028 617 243.348 617C241.668 617 240.307 615.639 240.307 613.959V583.027Z" fill="#FFF066"/>
<path d="M603.668 384.317V388.236L607.586 388.317C620.372 388.581 631 399.65 631 413.689C631 427.902 620.111 439.066 607.111 439.066C595.238 439.066 585.144 429.777 583.464 417.324H575.536C573.856 429.777 563.762 439.066 551.889 439.066C538.889 439.066 528 427.902 528 413.689C528 399.475 538.889 388.312 551.889 388.312H555.889V384.312C555.889 370.098 566.778 358.935 579.779 358.935C592.779 358.935 603.668 370.098 603.668 384.312V384.312V384.312V384.312V384.312V384.312V384.312V384.312V384.312V384.312V384.312V384.312V384.312V384.313V384.313V384.313V384.313V384.313V384.313V384.313V384.313V384.313V384.313V384.313V384.313V384.313V384.313V384.313V384.314V384.314V384.314V384.314V384.314V384.314V384.314V384.314V384.314V384.314V384.314V384.314V384.314V384.314V384.314V384.315V384.315V384.315V384.315V384.315V384.315V384.315V384.315V384.315V384.315V384.315V384.315V384.315V384.315V384.315V384.316V384.316V384.316V384.316V384.316V384.316V384.316V384.316V384.316V384.316V384.316V384.316V384.316V384.316V384.316V384.317V384.317V384.317V384.317V384.317V384.317V384.317V384.317V384.317V384.317V384.317V384.317V384.317Z" stroke="#FFF066" stroke-width="8"/>
<path d="M576.307 421.027C576.307 419.347 577.668 417.986 579.348 417.986C581.028 417.986 582.389 419.347 582.389 421.027V451.959C582.389 453.639 581.028 455 579.348 455C577.668 455 576.307 453.639 576.307 451.959V421.027Z" fill="#FFF066"/>
<path d="M267.668 384.317V388.236L271.586 388.317C284.372 388.581 295 399.65 295 413.689C295 427.902 284.111 439.066 271.111 439.066C259.238 439.066 249.144 429.777 247.464 417.324H239.536C237.856 429.777 227.762 439.066 215.889 439.066C202.889 439.066 192 427.902 192 413.689C192 399.475 202.889 388.312 215.889 388.312H219.889V384.312C219.889 370.098 230.778 358.935 243.779 358.935C256.779 358.935 267.668 370.098 267.668 384.312V384.312V384.312V384.312V384.312V384.312V384.312V384.312V384.312V384.312V384.312V384.312V384.312V384.313V384.313V384.313V384.313V384.313V384.313V384.313V384.313V384.313V384.313V384.313V384.313V384.313V384.313V384.313V384.314V384.314V384.314V384.314V384.314V384.314V384.314V384.314V384.314V384.314V384.314V384.314V384.314V384.314V384.314V384.315V384.315V384.315V384.315V384.315V384.315V384.315V384.315V384.315V384.315V384.315V384.315V384.315V384.315V384.315V384.316V384.316V384.316V384.316V384.316V384.316V384.316V384.316V384.316V384.316V384.316V384.316V384.316V384.316V384.316V384.317V384.317V384.317V384.317V384.317V384.317V384.317V384.317V384.317V384.317V384.317V384.317V384.317Z" stroke="#FFF066" stroke-width="8"/>
<path d="M240.307 421.027C240.307 419.347 241.668 417.986 243.348 417.986C245.028 417.986 246.389 419.347 246.389 421.027V451.959C246.389 453.639 245.028 455 243.348 455C241.668 455 240.307 453.639 240.307 451.959V421.027Z" fill="#FFF066"/>
<path d="M435.668 384.317V388.236L439.586 388.317C452.372 388.581 463 399.65 463 413.689C463 427.902 452.111 439.066 439.111 439.066C427.238 439.066 417.144 429.777 415.464 417.324H407.536C405.856 429.777 395.762 439.066 383.889 439.066C370.889 439.066 360 427.902 360 413.689C360 399.475 370.889 388.312 383.889 388.312H387.889V384.312C387.889 370.098 398.778 358.935 411.779 358.935C424.779 358.935 435.668 370.098 435.668 384.312V384.312V384.312V384.312V384.312V384.312V384.312V384.312V384.312V384.312V384.312V384.312V384.312V384.313V384.313V384.313V384.313V384.313V384.313V384.313V384.313V384.313V384.313V384.313V384.313V384.313V384.313V384.313V384.314V384.314V384.314V384.314V384.314V384.314V384.314V384.314V384.314V384.314V384.314V384.314V384.314V384.314V384.314V384.315V384.315V384.315V384.315V384.315V384.315V384.315V384.315V384.315V384.315V384.315V384.315V384.315V384.315V384.315V384.316V384.316V384.316V384.316V384.316V384.316V384.316V384.316V384.316V384.316V384.316V384.316V384.316V384.316V384.316V384.317V384.317V384.317V384.317V384.317V384.317V384.317V384.317V384.317V384.317V384.317V384.317V384.317Z" stroke="#FFF066" stroke-width="8"/>
<path d="M408.307 421.027C408.307 419.347 409.668 417.986 411.348 417.986C413.028 417.986 414.389 419.347 414.389 421.027V451.959C414.389 453.639 413.028 455 411.348 455C409.668 455 408.307 453.639 408.307 451.959V421.027Z" fill="#FFF066"/>
</svg>
