<svg width="822" height="1122" viewBox="0 0 822 1122" fill="none" xmlns="http://www.w3.org/2000/svg">
<path d="M0 20C0 8.9543 8.95431 0 20 0H802C813.046 0 822 8.9543 822 20V1102C822 1113.05 813.046 1122 802 1122H20C8.95432 1122 0 1113.05 0 1102V20Z" fill="#1A0033"/>
<path d="M54.6005 159C52.5525 159 51.1018 158.616 50.2485 157.848C49.4805 156.995 49.0965 155.629 49.0965 153.752V148.888C49.0965 147.011 49.4805 145.645 50.2485 144.792C51.1018 143.939 52.5525 143.512 54.6005 143.512H65.6085V94.488L56.5205 100.12C56.0938 100.461 55.5392 100.632 54.8565 100.632C54.0032 100.632 53.3632 100.248 52.9365 99.48L46.9205 90.264C46.5792 89.6667 46.4085 89.112 46.4085 88.6C46.4085 87.7467 46.8778 87.064 47.8165 86.552L69.9605 73.24C70.7285 72.728 71.4538 72.3867 72.1365 72.216C72.8192 72.0453 73.8005 71.96 75.0805 71.96H81.0965C83.1445 71.96 84.5952 72.4293 85.4485 73.368C86.3872 74.3067 86.8565 75.7147 86.8565 77.592V143.512H97.9925C100.041 143.512 101.449 143.939 102.217 144.792C102.985 145.56 103.369 146.925 103.369 148.888V153.752C103.369 155.629 102.985 156.995 102.217 157.848C101.449 158.616 100.041 159 97.9925 159H54.6005ZM152.301 160.92C137.879 160.92 126.999 157.037 119.661 149.272C112.407 141.421 108.781 130.157 108.781 115.48C108.781 100.803 112.407 89.5813 119.661 81.816C126.999 73.9653 137.879 70.04 152.301 70.04C166.637 70.04 177.431 73.9653 184.685 81.816C192.023 89.5813 195.693 100.803 195.693 115.48C195.693 130.157 192.023 141.421 184.685 149.272C177.431 157.037 166.637 160.92 152.301 160.92ZM163.821 88.216C160.663 86.2533 156.823 85.272 152.301 85.272C144.535 85.272 138.818 87.7467 135.149 92.696C131.565 97.6453 129.773 105.24 129.773 115.48C129.773 122.136 130.967 127.299 133.357 130.968L163.821 88.216ZM152.301 145.688C160.066 145.688 165.741 143.213 169.325 138.264C172.909 133.315 174.701 125.72 174.701 115.48C174.701 109.08 173.549 103.832 171.245 99.736L140.525 143C143.597 144.792 147.522 145.688 152.301 145.688Z" fill="#B366FF"/>
<path d="M112.679 208.481C116.638 202.543 125.362 202.543 129.321 208.481L151.302 241.453C153.541 244.812 153.541 249.188 151.302 252.547L129.321 285.519C125.362 291.457 116.638 291.457 112.679 285.519L90.698 252.547C88.4587 249.188 88.4587 244.812 90.698 241.453L112.679 208.481Z" fill="#B366FF"/>
<path d="M759.399 959C761.447 959 762.898 959.384 763.751 960.152C764.519 961.005 764.903 962.371 764.903 964.248V969.112C764.903 970.989 764.519 972.355 763.751 973.208C762.898 974.061 761.447 974.488 759.399 974.488H748.391V1023.51L757.479 1017.88C757.906 1017.54 758.461 1017.37 759.143 1017.37C759.997 1017.37 760.637 1017.75 761.063 1018.52L767.079 1027.74C767.421 1028.33 767.591 1028.89 767.591 1029.4C767.591 1030.25 767.122 1030.94 766.183 1031.45L744.039 1044.76C743.271 1045.27 742.546 1045.61 741.863 1045.78C741.181 1045.95 740.199 1046.04 738.919 1046.04H732.903C730.855 1046.04 729.405 1045.57 728.551 1044.63C727.613 1043.69 727.143 1042.29 727.143 1040.41V974.488H716.007C713.959 974.488 712.551 974.061 711.783 973.208C711.015 972.44 710.631 971.075 710.631 969.112V964.248C710.631 962.371 711.015 961.005 711.783 960.152C712.551 959.384 713.959 959 716.007 959H759.399ZM661.699 957.08C676.121 957.08 687.001 960.963 694.339 968.728C701.593 976.579 705.219 987.843 705.219 1002.52C705.219 1017.2 701.593 1028.42 694.339 1036.18C687.001 1044.03 676.121 1047.96 661.699 1047.96C647.363 1047.96 636.569 1044.03 629.315 1036.18C621.977 1028.42 618.307 1017.2 618.307 1002.52C618.307 987.843 621.977 976.579 629.315 968.728C636.569 960.963 647.363 957.08 661.699 957.08ZM650.179 1029.78C653.337 1031.75 657.177 1032.73 661.699 1032.73C669.465 1032.73 675.182 1030.25 678.851 1025.3C682.435 1020.35 684.227 1012.76 684.227 1002.52C684.227 995.864 683.033 990.701 680.643 987.032L650.179 1029.78ZM661.699 972.312C653.934 972.312 648.259 974.787 644.675 979.736C641.091 984.685 639.299 992.28 639.299 1002.52C639.299 1008.92 640.451 1014.17 642.755 1018.26L673.475 975C670.403 973.208 666.478 972.312 661.699 972.312Z" fill="#B366FF"/>
<path d="M701.321 909.519C697.362 915.457 688.638 915.457 684.679 909.519L662.698 876.547C660.459 873.188 660.459 868.812 662.698 865.453L684.679 832.481C688.638 826.543 697.362 826.543 701.321 832.481L723.302 865.453C725.541 868.812 725.541 873.188 723.302 876.547L701.321 909.519Z" fill="#B366FF"/>
<path d="M406.008 443.7C408.383 440.137 413.617 440.137 415.992 443.7L437.974 476.672C439.317 478.687 439.317 481.313 437.974 483.328L415.992 516.3C413.617 519.863 408.383 519.863 406.008 516.3L384.026 483.328C382.683 481.313 382.683 478.687 384.026 476.672L406.008 443.7Z" stroke="#B366FF" stroke-width="8"/>
<path d="M238.008 605.7C240.383 602.137 245.617 602.137 247.992 605.7L269.974 638.672C271.317 640.687 271.317 643.313 269.974 645.328L247.992 678.3C245.617 681.863 240.383 681.863 238.008 678.3L216.026 645.328C214.683 643.313 214.683 640.687 216.026 638.672L238.008 605.7Z" stroke="#B366FF" stroke-width="8"/>
<path d="M402.008 605.7C404.383 602.137 409.617 602.137 411.992 605.7L433.974 638.672C435.317 640.687 435.317 643.313 433.974 645.328L411.992 678.3C409.617 681.863 404.383 681.863 402.008 678.3L380.026 645.328C378.683 643.313 378.683 640.687 380.026 638.672L402.008 605.7Z" stroke="#B366FF" stroke-width="8"/>
<path d="M406.008 767.7C408.383 764.137 413.617 764.137 415.992 767.7L437.974 800.672C439.317 802.687 439.317 805.313 437.974 807.328L415.992 840.3C413.617 843.863 408.383 843.863 406.008 840.3L384.026 807.328C382.683 805.313 382.683 802.687 384.026 800.672L406.008 767.7Z" stroke="#B366FF" stroke-width="8"/>
<path d="M574.008 605.7C576.383 602.137 581.617 602.137 583.992 605.7L605.974 638.672C607.317 640.687 607.317 643.313 605.974 645.328L583.992 678.3C581.617 681.863 576.383 681.863 574.008 678.3L552.026 645.328C550.683 643.313 550.683 640.687 552.026 638.672L574.008 605.7Z" stroke="#B366FF" stroke-width="8"/>
<path d="M574.008 443.7C576.383 440.137 581.617 440.137 583.992 443.7L605.974 476.672C607.317 478.687 607.317 481.313 605.974 483.328L583.992 516.3C581.617 519.863 576.383 519.863 574.008 516.3L552.026 483.328C550.683 481.313 550.683 478.687 552.026 476.672L574.008 443.7Z" stroke="#B366FF" stroke-width="8"/>
<path d="M238.008 443.7C240.383 440.137 245.617 440.137 247.992 443.7L269.974 476.672C271.317 478.687 271.317 481.313 269.974 483.328L247.992 516.3C245.617 519.863 240.383 519.863 238.008 516.3L216.026 483.328C214.683 481.313 214.683 478.687 216.026 476.672L238.008 443.7Z" stroke="#B366FF" stroke-width="8"/>
<path d="M574.008 281.7C576.383 278.137 581.617 278.137 583.992 281.7L605.974 314.672C607.317 316.687 607.317 319.313 605.974 321.328L583.992 354.3C581.617 357.863 576.383 357.863 574.008 354.3L552.026 321.328C550.683 319.313 550.683 316.687 552.026 314.672L574.008 281.7Z" stroke="#B366FF" stroke-width="8"/>
<path d="M238.008 281.7C240.383 278.137 245.617 278.137 247.992 281.7L269.974 314.672C271.317 316.687 271.317 319.313 269.974 321.328L247.992 354.3C245.617 357.863 240.383 357.863 238.008 354.3L216.026 321.328C214.683 319.313 214.683 316.687 216.026 314.672L238.008 281.7Z" stroke="#B366FF" stroke-width="8"/>
<path d="M406.008 281.7C408.383 278.137 413.617 278.137 415.992 281.7L437.974 314.672C439.317 316.687 439.317 319.313 437.974 321.328L415.992 354.3C413.617 357.863 408.383 357.863 406.008 354.3L384.026 321.328C382.683 319.313 382.683 316.687 384.026 314.672L406.008 281.7Z" stroke="#B366FF" stroke-width="8"/>
</svg>
