<svg width="822" height="1122" viewBox="0 0 822 1122" fill="none" xmlns="http://www.w3.org/2000/svg">
<path d="M0 20C0 8.9543 8.95431 0 20 0H802C813.046 0 822 8.9543 822 20V1102C822 1113.05 813.046 1122 802 1122H20C8.95432 1122 0 1113.05 0 1102V20Z" fill="#1A0033"/>
<path d="M117.672 160.92C107.432 160.92 98.7707 158.573 91.688 153.88C90.8347 153.368 90.408 152.685 90.408 151.832C90.408 151.149 90.664 150.424 91.176 149.656L95.784 141.848C96.4667 140.824 97.1067 140.312 97.704 140.312C98.216 140.312 98.8987 140.611 99.752 141.208C104.189 144.195 109.053 145.688 114.344 145.688C118.355 145.688 121.256 144.707 123.048 142.744C124.925 140.696 125.864 137.624 125.864 133.528V77.592C125.864 75.7147 126.291 74.3067 127.144 73.368C128.083 72.4293 129.619 71.96 131.752 71.96H141.224C143.357 71.96 144.851 72.4293 145.704 73.368C146.643 74.3067 147.112 75.7147 147.112 77.592V133.528C147.112 141.891 144.595 148.547 139.56 153.496C134.611 158.445 127.315 160.92 117.672 160.92Z" fill="#B366FF"/>
<path d="M112.679 208.481C116.638 202.543 125.362 202.543 129.321 208.481L151.302 241.453C153.541 244.812 153.541 249.188 151.302 252.547L129.321 285.519C125.362 291.457 116.638 291.457 112.679 285.519L90.698 252.547C88.4587 249.188 88.4587 244.812 90.698 241.453L112.679 208.481Z" fill="#B366FF"/>
<path d="M696.328 957.08C706.568 957.08 715.229 959.427 722.312 964.12C723.165 964.632 723.592 965.315 723.592 966.168C723.592 966.851 723.336 967.576 722.824 968.344L718.216 976.152C717.533 977.176 716.893 977.688 716.296 977.688C715.784 977.688 715.101 977.389 714.248 976.792C709.811 973.805 704.947 972.312 699.656 972.312C695.645 972.312 692.744 973.293 690.952 975.256C689.075 977.304 688.136 980.376 688.136 984.472V1040.41C688.136 1042.29 687.709 1043.69 686.856 1044.63C685.917 1045.57 684.381 1046.04 682.248 1046.04H672.776C670.643 1046.04 669.149 1045.57 668.296 1044.63C667.357 1043.69 666.888 1042.29 666.888 1040.41V984.472C666.888 976.109 669.405 969.453 674.44 964.504C679.389 959.555 686.685 957.08 696.328 957.08Z" fill="#B366FF"/>
<path d="M701.321 909.519C697.362 915.457 688.638 915.457 684.679 909.519L662.698 876.547C660.459 873.188 660.459 868.812 662.698 865.453L684.679 832.481C688.638 826.543 697.362 826.543 701.321 832.481L723.302 865.453C725.541 868.812 725.541 873.188 723.302 876.547L701.321 909.519Z" fill="#B366FF"/>
<path d="M527.781 240.13H437.674C426.628 240.13 417.674 249.084 417.674 260.13V332.722C417.674 336.734 418.88 340.654 421.137 343.971L487.847 442.045C491.571 447.519 497.763 450.796 504.384 450.796H548.09C559.135 450.796 568.09 441.842 568.09 430.796V389.416C568.09 382.905 572.14 377.081 578.244 374.816C586.969 371.578 590.925 361.461 586.711 353.163L568.733 317.764C568.305 316.92 567.936 316.047 567.632 315.151L546.715 253.687C543.956 245.581 536.344 240.13 527.781 240.13Z" fill="#B366FF"/>
<path d="M535.539 407.8C535.539 406.141 536.835 404.771 538.491 404.679L563.255 403.304C565.705 403.167 567.765 405.117 567.765 407.57C567.765 409.992 565.754 411.93 563.334 411.841L538.548 410.923C536.869 410.86 535.539 409.481 535.539 407.8Z" fill="#F2E6FF"/>
<path d="M540.91 233.864H417.674L404.984 210.149C402.489 205.486 405.868 199.847 411.156 199.847H545.116C550.167 199.847 553.555 205.033 551.526 209.659L540.91 233.864Z" fill="#B366FF"/>
<path d="M544.789 240.13L550.16 260.719H471.968C462.568 260.719 454.437 267.265 452.429 276.448L440.216 332.312C439.909 333.715 439.755 335.147 439.755 336.583V430.796C439.755 441.842 430.8 450.796 419.755 450.796H360.442C347.124 450.796 337.526 438.022 341.232 425.23L366.973 336.39C367.352 335.082 367.864 333.816 368.501 332.611L417.375 240.13H544.789Z" fill="#F2E6FF"/>
<path fill-rule="evenodd" clip-rule="evenodd" d="M528.99 300.406C528.69 300.406 528.405 300.541 528.215 300.774L524.105 305.814C523.427 306.646 524.357 307.816 525.321 307.344L528.307 305.879C528.444 305.812 528.595 305.777 528.748 305.777H553.144C554.627 305.777 555.83 304.574 555.83 303.091C555.83 301.608 554.627 300.406 553.144 300.406H528.99Z" fill="#F2E6FF"/>
<path d="M490.183 456.465L444.827 392.012V504.805H526.289L517.635 456.465H490.183Z" fill="#8000FF"/>
<path d="M437.666 514.652V481.232H391.415L440.277 644.155H489.139H538.001L586.863 481.232H528.974L535.241 514.652H437.666Z" fill="#CC99FF"/>
<path d="M293.541 882.87H383.649C394.695 882.87 403.649 873.915 403.649 862.87V790.277C403.649 786.265 402.442 782.346 400.186 779.029L333.475 680.955C329.751 675.481 323.559 672.204 316.938 672.204H273.233C262.187 672.204 253.233 681.158 253.233 692.204V733.583C253.233 740.094 249.182 745.918 243.078 748.184C234.353 751.422 230.397 761.539 234.611 769.837L252.589 805.236C253.018 806.08 253.386 806.953 253.691 807.849L274.608 869.313C277.366 877.419 284.979 882.87 293.541 882.87Z" fill="#B366FF"/>
<path d="M285.784 715.2C285.784 716.859 284.488 718.228 282.832 718.32L258.067 719.696C255.618 719.832 253.557 717.883 253.557 715.429C253.557 713.007 255.568 711.069 257.989 711.159L282.774 712.077C284.454 712.139 285.784 713.519 285.784 715.2Z" fill="#F2E6FF"/>
<path d="M280.412 889.136H403.649L416.338 912.85C418.833 917.513 415.455 923.153 410.166 923.153H276.207C271.156 923.153 267.767 917.967 269.796 913.341L280.412 889.136Z" fill="#B366FF"/>
<path d="M276.533 882.87L271.162 862.28H349.355C358.754 862.28 366.886 855.735 368.893 846.552L381.106 790.688C381.413 789.285 381.568 787.853 381.568 786.417V692.204C381.568 681.158 390.522 672.204 401.568 672.204H460.88C474.199 672.204 483.797 684.977 480.09 697.77L454.349 786.61C453.97 787.918 453.458 789.184 452.822 790.389L403.947 882.87H276.533Z" fill="#F2E6FF"/>
<path fill-rule="evenodd" clip-rule="evenodd" d="M292.332 822.594C292.633 822.594 292.917 822.459 293.107 822.226L297.217 817.186C297.895 816.354 296.965 815.183 296.002 815.656L293.015 817.121C292.878 817.188 292.728 817.223 292.575 817.223H268.178C266.695 817.223 265.493 818.426 265.493 819.909C265.493 821.392 266.695 822.594 268.178 822.594H292.332Z" fill="#F2E6FF"/>
<path d="M331.139 666.534L376.495 730.987V618.195H295.034L303.687 666.534H331.139Z" fill="#8000FF"/>
<path d="M383.657 608.347V641.768H429.908L381.046 478.845H332.184H283.322L234.46 641.768H292.348L286.082 608.347H383.657Z" fill="#CC99FF"/>
</svg>
