<svg width="822" height="1122" viewBox="0 0 822 1122" fill="none" xmlns="http://www.w3.org/2000/svg">
<path d="M0 20C0 8.9543 8.95431 0 20 0H802C813.046 0 822 8.9543 822 20V1102C822 1113.05 813.046 1122 802 1122H20C8.95432 1122 0 1113.05 0 1102V20Z" fill="#1A0033"/>
<path d="M391.866 408.931C399.783 397.07 417.217 397.07 425.134 408.931L518.565 548.896C523.052 555.619 523.052 564.381 518.565 571.104L425.134 711.069C417.217 722.93 399.783 722.93 391.866 711.069L298.435 571.104C293.948 564.381 293.948 555.619 298.435 548.896L391.866 408.931Z" stroke="#B366FF" stroke-width="20"/>
<path d="M80.025 159C78.489 159 77.721 158.275 77.721 156.824C77.721 156.227 77.849 155.544 78.105 154.776L111.257 75.8C111.854 74.3493 112.494 73.368 113.177 72.856C113.945 72.2587 115.012 71.96 116.377 71.96H125.721C127.086 71.96 128.11 72.2587 128.793 72.856C129.476 73.368 130.116 74.3493 130.713 75.8L163.865 154.776C164.121 155.544 164.249 156.227 164.249 156.824C164.249 158.275 163.481 159 161.945 159H146.457C145.262 159 144.366 158.829 143.769 158.488C143.257 158.061 142.788 157.336 142.361 156.312L136.473 141.208H105.369L99.609 156.312C99.1823 157.336 98.6703 158.061 98.073 158.488C97.561 158.829 96.7077 159 95.513 159H80.025ZM131.609 126.488L120.985 98.84L110.233 126.488H131.609Z" fill="#B366FF"/>
<path d="M112.679 208.481C116.638 202.543 125.362 202.543 129.321 208.481L151.302 241.453C153.541 244.812 153.541 249.188 151.302 252.547L129.321 285.519C125.362 291.457 116.638 291.457 112.679 285.519L90.698 252.547C88.4587 249.188 88.4587 244.812 90.698 241.453L112.679 208.481Z" fill="#B366FF"/>
<path d="M733.975 959C735.511 959 736.279 959.725 736.279 961.176C736.279 961.773 736.151 962.456 735.895 963.224L702.743 1042.2C702.146 1043.65 701.506 1044.63 700.823 1045.14C700.055 1045.74 698.988 1046.04 697.623 1046.04H688.279C686.914 1046.04 685.89 1045.74 685.207 1045.14C684.524 1044.63 683.884 1043.65 683.287 1042.2L650.135 963.224C649.879 962.456 649.751 961.773 649.751 961.176C649.751 959.725 650.519 959 652.055 959H667.543C668.738 959 669.634 959.171 670.231 959.512C670.743 959.939 671.212 960.664 671.639 961.688L677.527 976.792H708.631L714.391 961.688C714.818 960.664 715.33 959.939 715.927 959.512C716.439 959.171 717.292 959 718.487 959H733.975ZM682.391 991.512L693.015 1019.16L703.767 991.512H682.391Z" fill="#B366FF"/>
<path d="M701.321 909.519C697.362 915.457 688.638 915.457 684.679 909.519L662.698 876.547C660.459 873.188 660.459 868.812 662.698 865.453L684.679 832.481C688.638 826.543 697.362 826.543 701.321 832.481L723.302 865.453C725.541 868.812 725.541 873.188 723.302 876.547L701.321 909.519Z" fill="#B366FF"/>
</svg>
