<svg width="822" height="1122" viewBox="0 0 822 1122" fill="none" xmlns="http://www.w3.org/2000/svg">
<path d="M0 20C0 8.9543 8.95431 0 20 0H802C813.046 0 822 8.9543 822 20V1102C822 1113.05 813.046 1122 802 1122H20C8.95432 1122 0 1113.05 0 1102V20Z" fill="#1A0033"/>
<path d="M118.719 160.92C107.711 160.92 98.8358 158.659 92.0945 154.136C91.3265 153.624 90.9425 152.941 90.9425 152.088C90.9425 151.405 91.1985 150.637 91.7105 149.784L96.0625 142.232C96.6598 141.293 97.2572 140.824 97.8545 140.824C98.4518 140.824 99.1772 141.08 100.031 141.592C104.98 144.323 110.74 145.688 117.311 145.688C123.796 145.688 128.788 144.152 132.287 141.08C135.785 138.008 138.047 133.272 139.071 126.872C136.255 129.091 133.055 130.669 129.471 131.608C125.887 132.547 121.577 133.016 116.543 133.016C109.716 133.016 103.828 131.779 98.8785 129.304C94.0145 126.829 90.3025 123.416 87.7425 119.064C85.2678 114.627 84.0305 109.635 84.0305 104.088C84.0305 92.6533 87.2732 84.12 93.7585 78.488C100.329 72.856 109.631 70.04 121.663 70.04C132.585 70.04 141.375 73.368 148.031 80.024C154.687 86.5947 158.015 96.7067 158.015 110.36C158.015 122.392 156.223 132.205 152.639 139.8C149.055 147.309 144.319 152.728 138.431 156.056C132.543 159.299 125.972 160.92 118.719 160.92ZM121.407 120.344C125.759 120.344 129.385 118.936 132.287 116.12C135.273 113.304 136.767 109.251 136.767 103.96C136.767 97.7307 135.444 93.08 132.799 90.008C130.239 86.8507 126.484 85.272 121.535 85.272C115.988 85.272 111.849 86.7653 109.119 89.752C106.388 92.6533 105.023 97.304 105.023 103.704C105.023 114.797 110.484 120.344 121.407 120.344Z" fill="#B366FF"/>
<path d="M112.679 208.481C116.638 202.543 125.362 202.543 129.321 208.481L151.302 241.453C153.541 244.812 153.541 249.188 151.302 252.547L129.321 285.519C125.362 291.457 116.638 291.457 112.679 285.519L90.698 252.547C88.4587 249.188 88.4587 244.812 90.698 241.453L112.679 208.481Z" fill="#B366FF"/>
<path d="M695.281 957.08C706.289 957.08 715.164 959.341 721.905 963.864C722.673 964.376 723.057 965.059 723.057 965.912C723.057 966.595 722.801 967.363 722.289 968.216L717.938 975.768C717.34 976.707 716.743 977.176 716.145 977.176C715.548 977.176 714.823 976.92 713.969 976.408C709.02 973.677 703.26 972.312 696.689 972.312C690.204 972.312 685.212 973.848 681.713 976.92C678.215 979.992 675.953 984.728 674.929 991.128C677.745 988.909 680.945 987.331 684.529 986.392C688.113 985.453 692.423 984.984 697.457 984.984C704.284 984.984 710.172 986.221 715.122 988.696C719.985 991.171 723.697 994.584 726.257 998.936C728.732 1003.37 729.969 1008.37 729.969 1013.91C729.969 1025.35 726.727 1033.88 720.241 1039.51C713.671 1045.14 704.369 1047.96 692.337 1047.96C681.415 1047.96 672.625 1044.63 665.969 1037.98C659.313 1031.41 655.985 1021.29 655.985 1007.64C655.985 995.608 657.777 985.795 661.361 978.2C664.945 970.691 669.681 965.272 675.569 961.944C681.457 958.701 688.028 957.08 695.281 957.08ZM692.593 997.656C688.241 997.656 684.615 999.064 681.713 1001.88C678.727 1004.7 677.233 1008.75 677.233 1014.04C677.233 1020.27 678.556 1024.92 681.201 1027.99C683.761 1031.15 687.516 1032.73 692.465 1032.73C698.012 1032.73 702.151 1031.23 704.881 1028.25C707.612 1025.35 708.977 1020.7 708.977 1014.3C708.977 1003.2 703.516 997.656 692.593 997.656Z" fill="#B366FF"/>
<path d="M701.321 909.519C697.362 915.457 688.638 915.457 684.679 909.519L662.698 876.547C660.459 873.188 660.459 868.812 662.698 865.453L684.679 832.481C688.638 826.543 697.362 826.543 701.321 832.481L723.302 865.453C725.541 868.812 725.541 873.188 723.302 876.547L701.321 909.519Z" fill="#B366FF"/>
<path d="M406.008 524.7C408.383 521.137 413.617 521.137 415.992 524.7L437.974 557.672C439.317 559.687 439.317 562.313 437.974 564.328L415.992 597.3C413.617 600.863 408.383 600.863 406.008 597.3L384.026 564.328C382.683 562.313 382.683 559.687 384.026 557.672L406.008 524.7Z" stroke="#B366FF" stroke-width="8"/>
<path d="M238.008 686.7C240.383 683.137 245.617 683.137 247.992 686.7L269.974 719.672C271.317 721.687 271.317 724.313 269.974 726.328L247.992 759.3C245.617 762.863 240.383 762.863 238.008 759.3L216.026 726.328C214.683 724.313 214.683 721.687 216.026 719.672L238.008 686.7Z" stroke="#B366FF" stroke-width="8"/>
<path d="M402.008 686.7C404.383 683.137 409.617 683.137 411.992 686.7L433.974 719.672C435.317 721.687 435.317 724.313 433.974 726.328L411.992 759.3C409.617 762.863 404.383 762.863 402.008 759.3L380.026 726.328C378.683 724.313 378.683 721.687 380.026 719.672L402.008 686.7Z" stroke="#B366FF" stroke-width="8"/>
<path d="M574.008 686.7C576.383 683.137 581.617 683.137 583.992 686.7L605.974 719.672C607.317 721.687 607.317 724.313 605.974 726.328L583.992 759.3C581.617 762.863 576.383 762.863 574.008 759.3L552.026 726.328C550.683 724.313 550.683 721.687 552.026 719.672L574.008 686.7Z" stroke="#B366FF" stroke-width="8"/>
<path d="M574.008 524.7C576.383 521.137 581.617 521.137 583.992 524.7L605.974 557.672C607.317 559.687 607.317 562.313 605.974 564.328L583.992 597.3C581.617 600.863 576.383 600.863 574.008 597.3L552.026 564.328C550.683 562.313 550.683 559.687 552.026 557.672L574.008 524.7Z" stroke="#B366FF" stroke-width="8"/>
<path d="M238.008 524.7C240.383 521.137 245.617 521.137 247.992 524.7L269.974 557.672C271.317 559.687 271.317 562.313 269.974 564.328L247.992 597.3C245.617 600.863 240.383 600.863 238.008 597.3L216.026 564.328C214.683 562.313 214.683 559.687 216.026 557.672L238.008 524.7Z" stroke="#B366FF" stroke-width="8"/>
<path d="M574.008 362.7C576.383 359.137 581.617 359.137 583.992 362.7L605.974 395.672C607.317 397.687 607.317 400.313 605.974 402.328L583.992 435.3C581.617 438.863 576.383 438.863 574.008 435.3L552.026 402.328C550.683 400.313 550.683 397.687 552.026 395.672L574.008 362.7Z" stroke="#B366FF" stroke-width="8"/>
<path d="M238.008 362.7C240.383 359.137 245.617 359.137 247.992 362.7L269.974 395.672C271.317 397.687 271.317 400.313 269.974 402.328L247.992 435.3C245.617 438.863 240.383 438.863 238.008 435.3L216.026 402.328C214.683 400.313 214.683 397.687 216.026 395.672L238.008 362.7Z" stroke="#B366FF" stroke-width="8"/>
<path d="M406.008 362.7C408.383 359.137 413.617 359.137 415.992 362.7L437.974 395.672C439.317 397.687 439.317 400.313 437.974 402.328L415.992 435.3C413.617 438.863 408.383 438.863 406.008 435.3L384.026 402.328C382.683 400.313 382.683 397.687 384.026 395.672L406.008 362.7Z" stroke="#B366FF" stroke-width="8"/>
</svg>
