<svg width="830" height="1130" viewBox="0 0 830 1130" fill="none" xmlns="http://www.w3.org/2000/svg">
<g>
<path d="M4 20C4 8.9543 12.9543 0 24 0H806C817.046 0 826 8.9543 826 20V1102C826 1113.05 817.046 1122 806 1122H24C12.9543 1122 4 1113.05 4 1102V20Z" fill="#1A0033"/>
<g clip-path="url(#clip0_41:1098)">
<path fill-rule="evenodd" clip-rule="evenodd" d="M941.31 210.272H916.62C891.93 210.272 842.55 210.272 793.169 189.572C743.789 170.253 693.175 130.234 643.795 124.714C594.415 120.574 545.035 150.933 495.655 185.432C446.275 219.931 396.895 259.95 347.515 235.111C298.135 210.272 247.52 120.574 198.14 84.6951C148.76 50.196 99.3801 70.8954 74.6901 80.5552L50.0001 90.2149V299.969H74.6901C99.3801 299.969 148.76 299.969 198.14 299.969C247.52 299.969 298.135 299.969 347.515 299.969C396.895 299.969 446.275 299.969 495.655 299.969C545.035 299.969 594.415 299.969 643.795 299.969C693.175 299.969 743.789 299.969 793.169 299.969C842.55 299.969 891.93 299.969 916.62 299.969H941.31V210.272Z" fill="#26004D"/>
<path fill-rule="evenodd" clip-rule="evenodd" d="M50 237.181L80 224.235C110 209.439 170 183.547 231 190.945C291 196.493 351 237.181 411 270.472C471 303.762 531 331.504 592 290.816C652 250.128 712 142.859 742 89.2245L772 35.5901V357.396H742C712 357.396 652 357.396 592 357.396C531 357.396 471 357.396 411 357.396C351 357.396 291 357.396 231 357.396C170 357.396 110 357.396 80 357.396H50V237.181Z" fill="#330066"/>
<path fill-rule="evenodd" clip-rule="evenodd" d="M50 339.995H80C110 339.995 170 339.995 231 292.452C291 244.909 348.38 189.33 408.38 197.253C468.38 207.818 531 281.887 592 310.941C652 339.995 712 281.887 742 252.833L772 226.42V511.677H742C712 511.677 652 511.677 592 511.677C531 511.677 471 511.677 411 511.677C351 511.677 291 511.677 231 511.677C170 511.677 110 511.677 80 511.677H50V339.995Z" fill="#4D0099"/>
<path fill-rule="evenodd" clip-rule="evenodd" d="M-327 279L-296.557 331.922C-266.114 383.24 -205.227 487.479 -144.341 516.346C-83.4543 545.212 -21.0457 498.705 39.8407 487.479C100.727 476.253 161.614 498.705 222.5 487.479C283.386 476.253 344.273 429.747 405.159 389.654C466.046 347.959 528.454 314.281 589.341 331.922C650.227 347.959 711.114 418.521 741.557 453.802L772 487.479V627H741.557C711.114 627 650.227 627 589.341 627C528.454 627 466.046 627 405.159 627C344.273 627 283.386 627 222.5 627C161.614 627 100.727 627 39.8407 627C-21.0457 627 -83.4543 627 -144.341 627C-205.227 627 -266.114 627 -296.557 627H-327V279Z" fill="#6600CC"/>
<path fill-rule="evenodd" clip-rule="evenodd" d="M-204.168 527.74L-148.038 555.003C-91.9077 582.267 20.3531 636.793 134.218 615.945C246.478 595.096 358.739 500.477 471 494.062C583.261 487.647 695.522 569.437 809.386 567.833C921.647 569.437 1033.91 487.647 1090.04 447.554L1146.17 405.857V771.506H1090.04C1033.91 771.506 921.647 771.506 809.386 771.506C695.522 771.506 583.261 771.506 471 771.506C358.739 771.506 246.478 771.506 134.218 771.506C20.3531 771.506 -91.9077 771.506 -148.038 771.506H-204.168V527.74Z" fill="#9933FF"/>
<path fill-rule="evenodd" clip-rule="evenodd" d="M50 697.805L85 693.805C120 688.805 190 680.805 261 667.805C331 655.805 401 638.805 471 659.805C541 680.805 611 739.805 682 756.805C752 773.805 822 748.805 857 735.805L892 722.805V874.805H857C822 874.805 752 874.805 682 874.805C611 874.805 541 874.805 471 874.805C401 874.805 331 874.805 261 874.805C190 874.805 120 874.805 85 874.805H50V697.805Z" fill="#B366FF"/>
<path fill-rule="evenodd" clip-rule="evenodd" d="M50 810.65L85 817.831C120 825.013 190 841.171 261 848.352C331 855.534 401 855.534 471 841.171C541 825.013 611 794.492 682 787.31C752 780.129 822 794.492 857 803.469L892 810.65V991.981H857C822 991.981 752 991.981 682 991.981C611 991.981 541 991.981 471 991.981C401 991.981 331 991.981 261 991.981C190 991.981 120 991.981 85 991.981H50V810.65Z" fill="#CC99FF"/>
<path fill-rule="evenodd" clip-rule="evenodd" d="M-10 947.73H18C46 947.73 102 947.73 158 941.285C215 934.84 271 920.338 327 901.003C383 880.057 439 852.665 495 880.057C551 907.448 608 988.011 664 988.011C720 988.011 776 907.448 804 867.167L832 825.274V1070.19H804C776 1070.19 720 1070.19 664 1070.19C608 1070.19 551 1070.19 495 1070.19C439 1070.19 383 1070.19 327 1070.19C271 1070.19 215 1070.19 158 1070.19C102 1070.19 46 1070.19 18 1070.19H-10V947.73Z" fill="#F2E6FF"/>
</g>
<path d="M24 1H806V-1H24V1ZM825 20V1102H827V20H825ZM806 1121H24V1123H806V1121ZM5 1102V20H3V1102H5ZM24 1121C13.5066 1121 5 1112.49 5 1102H3C3 1113.6 12.402 1123 24 1123V1121ZM825 1102C825 1112.49 816.493 1121 806 1121V1123C817.598 1123 827 1113.6 827 1102H825ZM806 1C816.493 1 825 9.50659 825 20H827C827 8.40202 817.598 -1 806 -1V1ZM24 -1C12.402 -1 3 8.40201 3 20H5C5 9.50658 13.5066 1 24 1V-1Z" fill="black"/>
</g>
<defs>
<filter id="filter0_d_41:1098" x="0" y="0" width="830" height="1130" filterUnits="userSpaceOnUse" color-interpolation-filters="sRGB">
<feFlood flood-opacity="0" result="BackgroundImageFix"/>
<feColorMatrix in="SourceAlpha" type="matrix" values="0 0 0 0 0 0 0 0 0 0 0 0 0 0 0 0 0 0 127 0" result="hardAlpha"/>
<feOffset dy="4"/>
<feGaussianBlur stdDeviation="2"/>
<feComposite in2="hardAlpha" operator="out"/>
<feColorMatrix type="matrix" values="0 0 0 0 0 0 0 0 0 0 0 0 0 0 0 0 0 0 0.25 0"/>
<feBlend mode="normal" in2="BackgroundImageFix" result="effect1_dropShadow_41:1098"/>
<feBlend mode="normal" in="SourceGraphic" in2="effect1_dropShadow_41:1098" result="shape"/>
</filter>
<clipPath id="clip0_41:1098">
<rect width="722" height="1022" fill="white" transform="translate(50 48)"/>
</clipPath>
</defs>
</svg>
