<svg width="822" height="1122" viewBox="0 0 822 1122" fill="none" xmlns="http://www.w3.org/2000/svg">
<path d="M0 20C0 8.9543 8.95431 0 20 0H802C813.046 0 822 8.9543 822 20V1102C822 1113.05 813.046 1122 802 1122H20C8.95432 1122 0 1113.05 0 1102V20Z" fill="#1A0033"/>
<path d="M58.6005 159C56.5525 159 55.1018 158.616 54.2485 157.848C53.4805 156.995 53.0965 155.629 53.0965 153.752V148.888C53.0965 147.011 53.4805 145.645 54.2485 144.792C55.1018 143.939 56.5525 143.512 58.6005 143.512H69.6085V94.488L60.5205 100.12C60.0938 100.461 59.5392 100.632 58.8565 100.632C58.0032 100.632 57.3632 100.248 56.9365 99.48L50.9205 90.264C50.5792 89.6667 50.4085 89.112 50.4085 88.6C50.4085 87.7467 50.8778 87.064 51.8165 86.552L73.9605 73.24C74.7285 72.728 75.4538 72.3867 76.1365 72.216C76.8192 72.0453 77.8005 71.96 79.0805 71.96H85.0965C87.1445 71.96 88.5952 72.4293 89.4485 73.368C90.3872 74.3067 90.8565 75.7147 90.8565 77.592V143.512H101.993C104.041 143.512 105.449 143.939 106.217 144.792C106.985 145.56 107.369 146.925 107.369 148.888V153.752C107.369 155.629 106.985 156.995 106.217 157.848C105.449 158.616 104.041 159 101.993 159H58.6005ZM156.301 160.92C141.879 160.92 130.999 157.037 123.661 149.272C116.407 141.421 112.781 130.157 112.781 115.48C112.781 100.803 116.407 89.5813 123.661 81.816C130.999 73.9653 141.879 70.04 156.301 70.04C170.637 70.04 181.431 73.9653 188.685 81.816C196.023 89.5813 199.693 100.803 199.693 115.48C199.693 130.157 196.023 141.421 188.685 149.272C181.431 157.037 170.637 160.92 156.301 160.92ZM167.821 88.216C164.663 86.2533 160.823 85.272 156.301 85.272C148.535 85.272 142.818 87.7467 139.149 92.696C135.565 97.6453 133.773 105.24 133.773 115.48C133.773 122.136 134.967 127.299 137.357 130.968L167.821 88.216ZM156.301 145.688C164.066 145.688 169.741 143.213 173.325 138.264C176.909 133.315 178.701 125.72 178.701 115.48C178.701 109.08 177.549 103.832 175.245 99.736L144.525 143C147.597 144.792 151.522 145.688 156.301 145.688Z" fill="#B366FF"/>
<path d="M124.798 218.497C114.618 208.317 98.1128 208.317 87.9327 218.497C77.7526 228.677 77.7526 245.182 87.9327 255.362L121.112 288.541C123.148 290.577 126.449 290.577 128.485 288.541L161.664 255.362L161.66 255.359C171.474 245.152 171.352 228.923 161.295 218.866C151.238 208.809 135.008 208.687 124.802 218.501L124.798 218.497Z" fill="#B366FF"/>
<path d="M759.399 959C761.447 959 762.898 959.384 763.751 960.152C764.519 961.005 764.903 962.371 764.903 964.248V969.112C764.903 970.989 764.519 972.355 763.751 973.208C762.898 974.061 761.447 974.488 759.399 974.488H748.391V1023.51L757.479 1017.88C757.906 1017.54 758.461 1017.37 759.143 1017.37C759.997 1017.37 760.637 1017.75 761.063 1018.52L767.079 1027.74C767.421 1028.33 767.591 1028.89 767.591 1029.4C767.591 1030.25 767.122 1030.94 766.183 1031.45L744.039 1044.76C743.271 1045.27 742.546 1045.61 741.863 1045.78C741.181 1045.95 740.199 1046.04 738.919 1046.04H732.903C730.855 1046.04 729.405 1045.57 728.551 1044.63C727.613 1043.69 727.143 1042.29 727.143 1040.41V974.488H716.007C713.959 974.488 712.551 974.061 711.783 973.208C711.015 972.44 710.631 971.075 710.631 969.112V964.248C710.631 962.371 711.015 961.005 711.783 960.152C712.551 959.384 713.959 959 716.007 959H759.399ZM661.699 957.08C676.121 957.08 687.001 960.963 694.339 968.728C701.593 976.579 705.219 987.843 705.219 1002.52C705.219 1017.2 701.593 1028.42 694.339 1036.18C687.001 1044.03 676.121 1047.96 661.699 1047.96C647.363 1047.96 636.569 1044.03 629.315 1036.18C621.977 1028.42 618.307 1017.2 618.307 1002.52C618.307 987.843 621.977 976.579 629.315 968.728C636.569 960.963 647.363 957.08 661.699 957.08ZM650.179 1029.78C653.337 1031.75 657.177 1032.73 661.699 1032.73C669.465 1032.73 675.182 1030.25 678.851 1025.3C682.435 1020.35 684.227 1012.76 684.227 1002.52C684.227 995.864 683.033 990.701 680.643 987.032L650.179 1029.78ZM661.699 972.312C653.934 972.312 648.259 974.787 644.675 979.736C641.091 984.685 639.299 992.28 639.299 1002.52C639.299 1008.92 640.451 1014.17 642.755 1018.26L673.475 975C670.403 973.208 666.478 972.312 661.699 972.312Z" fill="#B366FF"/>
<path d="M693.202 899.503C703.382 909.683 719.887 909.683 730.067 899.503C740.247 889.323 740.247 872.818 730.067 862.638L696.888 829.459C694.852 827.423 691.551 827.423 689.515 829.459L656.336 862.638L656.34 862.641C646.526 872.848 646.648 889.077 656.705 899.134C666.762 909.191 682.992 909.313 693.198 899.499L693.202 899.503Z" fill="#B366FF"/>
<path d="M445.124 495.745L412.156 528.713C411.682 529.187 410.914 529.187 410.44 528.713L377.261 495.534C368.643 486.916 368.643 472.943 377.261 464.325C385.879 455.707 399.852 455.707 408.47 464.325L408.473 464.329L411.247 467.102L414.074 464.384C422.713 456.077 436.453 456.181 444.966 464.694C453.48 473.207 453.583 486.947 445.277 495.586L445.124 495.745Z" stroke="#B366FF" stroke-width="8"/>
<path d="M277.124 657.745L244.156 690.713C243.682 691.187 242.914 691.187 242.44 690.713L209.261 657.534C200.643 648.916 200.643 634.943 209.261 626.325C217.879 617.707 231.852 617.707 240.47 626.325L240.473 626.329L243.247 629.102L246.074 626.384C254.713 618.077 268.453 618.181 276.966 626.694C285.48 635.207 285.583 648.947 277.277 657.586L277.124 657.745Z" stroke="#B366FF" stroke-width="8"/>
<path d="M441.124 657.745L408.156 690.713C407.682 691.187 406.914 691.187 406.44 690.713L373.261 657.534C364.643 648.916 364.643 634.943 373.261 626.325C381.879 617.707 395.852 617.707 404.47 626.325L404.473 626.329L407.247 629.102L410.074 626.384C418.713 618.077 432.453 618.181 440.966 626.694C449.48 635.207 449.583 648.947 441.277 657.586L441.124 657.745Z" stroke="#B366FF" stroke-width="8"/>
<path d="M445.124 819.745L412.156 852.713C411.682 853.187 410.914 853.187 410.44 852.713L377.261 819.534C368.643 810.916 368.643 796.943 377.261 788.325C385.879 779.707 399.852 779.707 408.47 788.325L408.473 788.329L411.247 791.102L414.074 788.384C422.713 780.077 436.453 780.181 444.966 788.694C453.48 797.207 453.583 810.947 445.277 819.586L445.124 819.745Z" stroke="#B366FF" stroke-width="8"/>
<path d="M613.124 657.745L580.156 690.713C579.682 691.187 578.914 691.187 578.44 690.713L545.261 657.534C536.643 648.916 536.643 634.943 545.261 626.325C553.879 617.707 567.852 617.707 576.47 626.325L576.473 626.329L579.247 629.102L582.074 626.384C590.713 618.077 604.453 618.181 612.966 626.694C621.48 635.207 621.583 648.947 613.277 657.586L613.124 657.745Z" stroke="#B366FF" stroke-width="8"/>
<path d="M613.124 495.745L580.156 528.713C579.682 529.187 578.914 529.187 578.44 528.713L545.261 495.534C536.643 486.916 536.643 472.943 545.261 464.325C553.879 455.707 567.852 455.707 576.47 464.325L576.473 464.329L579.247 467.102L582.074 464.384C590.713 456.077 604.453 456.181 612.966 464.694C621.48 473.207 621.583 486.947 613.277 495.586L613.124 495.745Z" stroke="#B366FF" stroke-width="8"/>
<path d="M277.124 495.745L244.156 528.713C243.682 529.187 242.914 529.187 242.44 528.713L209.261 495.534C200.643 486.916 200.643 472.943 209.261 464.325C217.879 455.707 231.852 455.707 240.47 464.325L240.473 464.329L243.247 467.102L246.074 464.384C254.713 456.077 268.453 456.181 276.966 464.694C285.48 473.207 285.583 486.947 277.277 495.586L277.124 495.745Z" stroke="#B366FF" stroke-width="8"/>
<path d="M613.124 333.745L580.156 366.713C579.682 367.187 578.914 367.187 578.44 366.713L545.261 333.534C536.643 324.916 536.643 310.943 545.261 302.325C553.879 293.707 567.852 293.707 576.47 302.325L576.473 302.329L579.247 305.102L582.074 302.384C590.713 294.077 604.453 294.181 612.966 302.694C621.48 311.207 621.583 324.947 613.277 333.586L613.124 333.745Z" stroke="#B366FF" stroke-width="8"/>
<path d="M277.124 333.745L244.156 366.713C243.682 367.187 242.914 367.187 242.44 366.713L209.261 333.534C200.643 324.916 200.643 310.943 209.261 302.325C217.879 293.707 231.852 293.707 240.47 302.325L240.473 302.329L243.247 305.102L246.074 302.384C254.713 294.077 268.453 294.181 276.966 302.694C285.48 311.207 285.583 324.947 277.277 333.586L277.124 333.745Z" stroke="#B366FF" stroke-width="8"/>
<path d="M445.124 333.745L412.156 366.713C411.682 367.187 410.914 367.187 410.44 366.713L377.261 333.534C368.643 324.916 368.643 310.943 377.261 302.325C385.879 293.707 399.852 293.707 408.47 302.325L408.473 302.329L411.247 305.102L414.074 302.384C422.713 294.077 436.453 294.181 444.966 302.694C453.48 311.207 453.583 324.947 445.277 333.586L445.124 333.745Z" stroke="#B366FF" stroke-width="8"/>
</svg>
