<svg width="822" height="1122" viewBox="0 0 822 1122" fill="none" xmlns="http://www.w3.org/2000/svg">
<path d="M0 20C0 8.9543 8.95431 0 20 0H802C813.046 0 822 8.9543 822 20V1102C822 1113.05 813.046 1122 802 1122H20C8.95432 1122 0 1113.05 0 1102V20Z" fill="#1A0033"/>
<path d="M139.766 182.168C131.744 182.168 125.259 180.163 120.31 176.152C115.446 172.141 112.672 166.851 111.99 160.28C100.384 158.744 91.5522 154.136 85.4935 146.456C79.4348 138.691 76.4055 128.365 76.4055 115.48C76.4055 101.059 80.2028 89.88 87.7975 81.944C95.4775 74.008 106.571 70.04 121.078 70.04C135.499 70.04 146.507 74.008 154.102 81.944C161.782 89.88 165.622 101.059 165.622 115.48C165.622 128.707 162.379 139.16 155.894 146.84C149.408 154.435 139.979 158.872 127.606 160.152C127.947 163.053 129.27 165.187 131.574 166.552C133.963 168.003 136.864 168.728 140.278 168.728C144.63 168.728 148.512 167.619 151.926 165.4C152.523 165.059 152.992 164.888 153.334 164.888C153.846 164.888 154.272 165.187 154.614 165.784L159.478 173.464C159.819 173.891 159.99 174.36 159.99 174.872C159.99 175.384 159.563 175.939 158.71 176.536C156.064 178.413 153.248 179.821 150.262 180.76C147.275 181.699 143.776 182.168 139.766 182.168ZM121.078 145.688C128.843 145.688 134.688 143.171 138.614 138.136C142.624 133.016 144.63 125.464 144.63 115.48C144.63 105.496 142.624 97.9867 138.614 92.952C134.688 87.832 128.843 85.272 121.078 85.272C113.227 85.272 107.296 87.832 103.286 92.952C99.3602 97.9867 97.3975 105.496 97.3975 115.48C97.3975 125.464 99.3602 133.016 103.286 138.136C107.296 143.171 113.227 145.688 121.078 145.688Z" fill="#B366FF"/>
<path d="M120.798 218.497C110.618 208.317 94.1128 208.317 83.9327 218.497C73.7526 228.677 73.7526 245.182 83.9327 255.362L117.112 288.541C119.148 290.577 122.449 290.577 124.485 288.541L157.664 255.362L157.66 255.359C167.474 245.152 167.352 228.922 157.295 218.865C147.238 208.808 131.008 208.687 120.802 218.5L120.798 218.497Z" fill="#B366FF"/>
<path d="M674.234 935.832C682.256 935.832 688.741 937.837 693.69 941.848C698.554 945.859 701.328 951.149 702.01 957.72C713.616 959.256 722.448 963.864 728.506 971.544C734.565 979.309 737.594 989.635 737.594 1002.52C737.594 1016.94 733.797 1028.12 726.202 1036.06C718.522 1043.99 707.429 1047.96 692.922 1047.96C678.501 1047.96 667.493 1043.99 659.898 1036.06C652.218 1028.12 648.378 1016.94 648.378 1002.52C648.378 989.293 651.621 978.84 658.106 971.16C664.592 963.565 674.021 959.128 686.394 957.848C686.053 954.947 684.73 952.813 682.426 951.448C680.037 949.997 677.136 949.272 673.722 949.272C669.37 949.272 665.488 950.381 662.074 952.6C661.477 952.941 661.008 953.112 660.666 953.112C660.154 953.112 659.728 952.813 659.386 952.216L654.522 944.536C654.181 944.109 654.01 943.64 654.01 943.128C654.01 942.616 654.437 942.061 655.29 941.464C657.936 939.587 660.752 938.179 663.738 937.24C666.725 936.301 670.224 935.832 674.234 935.832ZM692.922 972.312C685.157 972.312 679.312 974.829 675.386 979.864C671.376 984.984 669.37 992.536 669.37 1002.52C669.37 1012.5 671.376 1020.01 675.386 1025.05C679.312 1030.17 685.157 1032.73 692.922 1032.73C700.773 1032.73 706.704 1030.17 710.714 1025.05C714.64 1020.01 716.602 1012.5 716.602 1002.52C716.602 992.536 714.64 984.984 710.714 979.864C706.704 974.829 700.773 972.312 692.922 972.312Z" fill="#B366FF"/>
<path d="M693.202 899.503C703.382 909.683 719.887 909.683 730.067 899.503C740.247 889.323 740.247 872.818 730.067 862.638L696.888 829.459C694.852 827.423 691.551 827.423 689.515 829.459L656.336 862.638L656.34 862.641C646.526 872.848 646.648 889.078 656.705 899.135C666.762 909.192 682.992 909.313 693.198 899.5L693.202 899.503Z" fill="#B366FF"/>
<path d="M517.951 488.236C508.178 460.172 529.448 447.409 517.951 444.909C506.455 442.409 479.021 420.045 472.489 415.368C465.957 410.691 478.864 439.05 479.282 450.079C479.7 461.108 470.922 484.379 466.48 494.637C483.985 519.993 522.341 500.84 517.951 488.236Z" fill="#8000FF"/>
<path d="M464.909 502.119C498.956 525.122 514.324 505.022 518.886 496.687C519.78 495.054 521.89 494.33 523.537 495.198C539.612 503.681 551.485 503.539 559.454 501.138C562.589 500.193 568.708 504.584 567.738 507.711C555.795 546.186 520.972 648.148 492.4 630.007C467.036 613.903 424.866 524.818 416.979 507.809C416.264 506.267 416.983 504.482 418.584 503.911C427.02 500.899 451.8 493.263 464.909 502.119Z" fill="#CC99FF"/>
<path d="M515.715 259.763C487.662 246.008 456.664 254.361 441.96 262.154C440.673 262.836 439.082 262.573 438.134 261.468L425.191 246.398C423.005 243.852 426.011 240.184 428.936 241.828L434.575 244.995C436.724 246.203 439.332 244.446 439.02 242L437.687 231.553C437.332 228.764 440.664 227.062 442.715 228.985L452.671 238.32C454.522 240.055 457.557 238.852 457.717 236.32L458.401 225.482C458.573 222.75 462.013 221.657 463.731 223.788L473.579 236.005C475.154 237.959 478.289 237.231 478.841 234.782L480.955 225.398C481.635 222.378 485.887 222.242 486.76 225.211L489.668 235.108C490.364 237.476 493.461 238.038 494.944 236.066L502.712 225.74C504.443 223.438 508.109 224.663 508.109 227.544V236.368C508.109 238.895 511.042 240.29 513.002 238.696L521.76 231.573C524.027 229.729 527.324 231.886 526.544 234.702L520.127 257.857C519.607 259.733 517.463 260.62 515.715 259.763Z" fill="#B366FF"/>
<path d="M532.953 282.771H432.965L425.112 349.173C425.112 349.173 450.698 391.966 480.603 416.779C498.14 431.329 547.12 460.189 552.322 434.38C554.657 422.799 557.056 378.524 557.056 378.524C557.056 378.524 572.582 377.639 570.684 371.611C568.785 365.584 563.091 363.749 557.056 335.184C551.021 306.619 532.953 282.771 532.953 282.771Z" fill="#B366FF"/>
<path d="M434.276 270.192C489.439 245.355 518.162 265.089 529.678 277.607C532.517 280.692 529.736 284.871 525.553 284.605C494.732 282.652 461.389 296.631 454.96 300.591C444.749 306.881 454.96 372.397 474.596 421.141C487.164 444.465 512.717 515.275 493.447 522.823C475.278 529.939 431.087 535.284 410.735 530.6C408.654 530.121 407.309 528.202 407.309 526.066V359.381C407.309 359.323 407.309 359.317 407.308 359.258C407.247 357.404 405.03 283.36 434.276 270.192Z" fill="#F2E6FF"/>
<path d="M555.236 406.728L554.713 415.114C547.304 416.286 531.725 412.255 526.87 411.552C522.016 410.849 521.249 411.318 521.505 410.615C521.76 409.911 521.249 411.552 526.359 409.677C531.469 407.802 549.871 405.556 555.236 406.728Z" fill="#F2E6FF"/>
<path d="M533.183 322.081C528.48 321.998 522.946 323.606 519.659 324.711C518.48 325.107 518.011 326.325 519.251 326.416C522.469 326.652 529.942 324.458 533.968 325.392C538.746 326.501 544.068 330.168 547.638 329.831C548.336 329.765 548.803 329.152 548.919 328.46C549.06 327.62 548.66 326.78 547.9 326.396C544.463 324.662 538.317 322.17 533.183 322.081Z" fill="#F2E6FF"/>
<path d="M349.754 651.012C359.528 679.076 338.258 691.839 349.754 694.339C361.251 696.839 388.685 719.203 395.217 723.88C401.749 728.558 388.841 700.198 388.423 689.169C388.005 678.141 396.784 654.869 401.226 644.611C383.72 619.255 345.365 638.408 349.754 651.012Z" fill="#8000FF"/>
<path d="M402.797 637.128C368.75 614.125 353.382 634.226 348.82 642.561C347.926 644.193 345.815 644.918 344.169 644.05C328.094 635.567 316.221 635.709 308.252 638.11C305.117 639.054 298.997 634.664 299.968 631.537C311.911 593.062 346.734 491.1 375.306 509.241C400.67 525.345 442.84 614.43 450.727 631.439C451.442 632.981 450.723 634.766 449.122 635.337C440.686 638.348 415.905 645.985 402.797 637.128Z" fill="#CC99FF"/>
<path d="M351.991 879.484C380.043 893.24 411.042 884.887 425.746 877.094C427.032 876.412 428.623 876.675 429.572 877.78L442.515 892.85C444.701 895.395 441.695 899.063 438.769 897.42L433.131 894.253C430.982 893.045 428.374 894.802 428.686 897.248L430.018 907.695C430.374 910.484 427.042 912.186 424.991 910.263L415.035 900.928C413.184 899.193 410.148 900.395 409.989 902.928L409.305 913.766C409.132 916.497 405.693 917.591 403.975 915.46L394.127 903.243C392.552 901.288 389.416 902.017 388.865 904.466L386.751 913.85C386.07 916.87 381.818 917.006 380.946 914.037L378.037 904.139C377.342 901.772 374.245 901.21 372.762 903.182L364.994 913.508C363.262 915.81 359.597 914.585 359.597 911.704V902.879C359.597 900.353 356.664 898.958 354.704 900.552L345.946 907.674C343.679 909.518 340.382 907.362 341.162 904.546L347.579 881.391C348.098 879.515 350.243 878.627 351.991 879.484Z" fill="#B366FF"/>
<path d="M334.753 856.477H434.741L442.593 790.074C442.593 790.074 417.008 747.282 387.103 722.469C369.566 707.919 320.586 679.059 315.384 704.868C313.049 716.449 310.65 760.724 310.65 760.724C310.65 760.724 295.123 761.609 297.022 767.637C298.921 773.664 304.615 775.499 310.65 804.064C316.684 832.629 334.753 856.477 334.753 856.477Z" fill="#B366FF"/>
<path d="M433.43 869.056C378.267 893.893 349.543 874.159 338.027 861.641C335.189 858.556 337.97 854.377 342.153 854.642C372.974 856.596 406.317 842.616 412.746 838.656C422.957 832.367 412.746 766.851 393.11 718.107C380.542 694.783 354.989 623.973 374.259 616.425C392.427 609.309 436.618 603.964 456.971 608.648C459.052 609.127 460.397 611.046 460.397 613.182L460.397 779.866C460.397 779.925 460.396 779.931 460.398 779.989C460.458 781.844 462.676 855.888 433.43 869.056Z" fill="#F2E6FF"/>
<path d="M312.469 732.52L312.993 724.134C320.402 722.962 335.981 726.992 340.835 727.696C345.69 728.399 346.456 727.93 346.201 728.633C345.945 729.336 346.456 727.696 341.346 729.571C336.237 731.446 317.834 733.692 312.469 732.52Z" fill="#F2E6FF"/>
<path d="M334.523 817.167C339.226 817.249 344.759 815.642 348.047 814.537C349.225 814.141 349.694 812.923 348.454 812.832C345.236 812.596 337.763 814.79 333.738 813.855C328.96 812.747 323.637 809.08 320.068 809.417C319.37 809.482 318.903 810.096 318.787 810.788C318.646 811.628 319.046 812.468 319.806 812.852C323.243 814.586 329.389 817.078 334.523 817.167Z" fill="#F2E6FF"/>
</svg>
