<svg width="822" height="1122" viewBox="0 0 822 1122" fill="none" xmlns="http://www.w3.org/2000/svg">
<path d="M0 20C0 8.9543 8.95431 0 20 0H802C813.046 0 822 8.9543 822 20V1102C822 1113.05 813.046 1122 802 1122H20C8.95432 1122 0 1113.05 0 1102V20Z" fill="#1A0033"/>
<path d="M533.548 570.177L532.97 570.779L414.315 689.434C410.894 692.854 405.348 692.854 401.927 689.434L282.544 570.05C249.819 537.325 249.819 484.268 282.544 451.544C315.268 418.819 368.325 418.819 401.05 451.544L401.063 451.556L407.997 458.49L415.065 451.694C447.871 420.15 500.044 420.542 532.372 452.87C564.7 485.198 565.092 537.371 533.548 570.177Z" stroke="#B366FF" stroke-width="20"/>
<path d="M80.025 159C78.489 159 77.721 158.275 77.721 156.824C77.721 156.227 77.849 155.544 78.105 154.776L111.257 75.8C111.854 74.3493 112.494 73.368 113.177 72.856C113.945 72.2587 115.012 71.96 116.377 71.96H125.721C127.086 71.96 128.11 72.2587 128.793 72.856C129.476 73.368 130.116 74.3493 130.713 75.8L163.865 154.776C164.121 155.544 164.249 156.227 164.249 156.824C164.249 158.275 163.481 159 161.945 159H146.457C145.262 159 144.366 158.829 143.769 158.488C143.257 158.061 142.788 157.336 142.361 156.312L136.473 141.208H105.369L99.609 156.312C99.1823 157.336 98.6703 158.061 98.073 158.488C97.561 158.829 96.7077 159 95.513 159H80.025ZM131.609 126.488L120.985 98.84L110.233 126.488H131.609Z" fill="#B366FF"/>
<path d="M120.798 218.497C110.618 208.317 94.1128 208.317 83.9327 218.497C73.7526 228.677 73.7526 245.182 83.9327 255.362L117.112 288.541C119.148 290.577 122.449 290.577 124.485 288.541L157.664 255.362L157.66 255.359C167.474 245.152 167.352 228.922 157.295 218.865C147.238 208.808 131.008 208.687 120.802 218.5L120.798 218.497Z" fill="#B366FF"/>
<path d="M733.975 959C735.511 959 736.279 959.725 736.279 961.176C736.279 961.773 736.151 962.456 735.895 963.224L702.743 1042.2C702.146 1043.65 701.506 1044.63 700.823 1045.14C700.055 1045.74 698.988 1046.04 697.623 1046.04H688.279C686.914 1046.04 685.89 1045.74 685.207 1045.14C684.524 1044.63 683.884 1043.65 683.287 1042.2L650.135 963.224C649.879 962.456 649.751 961.773 649.751 961.176C649.751 959.725 650.519 959 652.055 959H667.543C668.738 959 669.634 959.171 670.231 959.512C670.743 959.939 671.212 960.664 671.639 961.688L677.527 976.792H708.631L714.391 961.688C714.818 960.664 715.33 959.939 715.927 959.512C716.439 959.171 717.292 959 718.487 959H733.975ZM682.391 991.512L693.015 1019.16L703.767 991.512H682.391Z" fill="#B366FF"/>
<path d="M693.202 899.503C703.382 909.683 719.887 909.683 730.067 899.503C740.247 889.323 740.247 872.818 730.067 862.638L696.888 829.459C694.852 827.423 691.551 827.423 689.515 829.459L656.336 862.638L656.34 862.641C646.526 872.848 646.648 889.078 656.705 899.135C666.762 909.191 682.992 909.313 693.198 899.5L693.202 899.503Z" fill="#B366FF"/>
</svg>
