<svg width="822" height="1122" viewBox="0 0 822 1122" fill="none" xmlns="http://www.w3.org/2000/svg">
<path d="M0 20C0 8.9543 8.95431 0 20 0H802C813.046 0 822 8.9543 822 20V1102C822 1113.05 813.046 1122 802 1122H20C8.95432 1122 0 1113.05 0 1102V20Z" fill="#1A0033"/>
<path d="M118.719 160.92C107.711 160.92 98.8358 158.659 92.0945 154.136C91.3265 153.624 90.9425 152.941 90.9425 152.088C90.9425 151.405 91.1985 150.637 91.7105 149.784L96.0625 142.232C96.6598 141.293 97.2572 140.824 97.8545 140.824C98.4518 140.824 99.1772 141.08 100.031 141.592C104.98 144.323 110.74 145.688 117.311 145.688C123.796 145.688 128.788 144.152 132.287 141.08C135.785 138.008 138.047 133.272 139.071 126.872C136.255 129.091 133.055 130.669 129.471 131.608C125.887 132.547 121.577 133.016 116.543 133.016C109.716 133.016 103.828 131.779 98.8785 129.304C94.0145 126.829 90.3025 123.416 87.7425 119.064C85.2678 114.627 84.0305 109.635 84.0305 104.088C84.0305 92.6533 87.2732 84.12 93.7585 78.488C100.329 72.856 109.631 70.04 121.663 70.04C132.585 70.04 141.375 73.368 148.031 80.024C154.687 86.5947 158.015 96.7067 158.015 110.36C158.015 122.392 156.223 132.205 152.639 139.8C149.055 147.309 144.319 152.728 138.431 156.056C132.543 159.299 125.972 160.92 118.719 160.92ZM121.407 120.344C125.759 120.344 129.385 118.936 132.287 116.12C135.273 113.304 136.767 109.251 136.767 103.96C136.767 97.7307 135.444 93.08 132.799 90.008C130.239 86.8507 126.484 85.272 121.535 85.272C115.988 85.272 111.849 86.7653 109.119 89.752C106.388 92.6533 105.023 97.304 105.023 103.704C105.023 114.797 110.484 120.344 121.407 120.344Z" fill="#B366FF"/>
<path d="M120.798 218.497C110.618 208.317 94.1128 208.317 83.9327 218.497C73.7526 228.677 73.7526 245.182 83.9327 255.362L117.112 288.541C119.148 290.577 122.449 290.577 124.485 288.541L157.664 255.362L157.66 255.359C167.474 245.152 167.352 228.923 157.295 218.866C147.238 208.809 131.008 208.687 120.802 218.501L120.798 218.497Z" fill="#B366FF"/>
<path d="M695.281 957.08C706.289 957.08 715.164 959.341 721.905 963.864C722.673 964.376 723.057 965.059 723.057 965.912C723.057 966.595 722.801 967.363 722.289 968.216L717.938 975.768C717.34 976.707 716.743 977.176 716.145 977.176C715.548 977.176 714.823 976.92 713.969 976.408C709.02 973.677 703.26 972.312 696.689 972.312C690.204 972.312 685.212 973.848 681.713 976.92C678.215 979.992 675.953 984.728 674.929 991.128C677.745 988.909 680.945 987.331 684.529 986.392C688.113 985.453 692.423 984.984 697.457 984.984C704.284 984.984 710.172 986.221 715.122 988.696C719.985 991.171 723.697 994.584 726.257 998.936C728.732 1003.37 729.969 1008.37 729.969 1013.91C729.969 1025.35 726.727 1033.88 720.241 1039.51C713.671 1045.14 704.369 1047.96 692.337 1047.96C681.415 1047.96 672.625 1044.63 665.969 1037.98C659.313 1031.41 655.985 1021.29 655.985 1007.64C655.985 995.608 657.777 985.795 661.361 978.2C664.945 970.691 669.681 965.272 675.569 961.944C681.457 958.701 688.028 957.08 695.281 957.08ZM692.593 997.656C688.241 997.656 684.615 999.064 681.713 1001.88C678.727 1004.7 677.233 1008.75 677.233 1014.04C677.233 1020.27 678.556 1024.92 681.201 1027.99C683.761 1031.15 687.516 1032.73 692.465 1032.73C698.012 1032.73 702.151 1031.23 704.881 1028.25C707.612 1025.35 708.977 1020.7 708.977 1014.3C708.977 1003.2 703.516 997.656 692.593 997.656Z" fill="#B366FF"/>
<path d="M693.202 899.503C703.382 909.683 719.887 909.683 730.067 899.503C740.247 889.323 740.247 872.818 730.067 862.638L696.888 829.459C694.852 827.423 691.551 827.423 689.515 829.459L656.336 862.638L656.34 862.641C646.526 872.848 646.648 889.077 656.705 899.134C666.762 909.191 682.992 909.313 693.198 899.499L693.202 899.503Z" fill="#B366FF"/>
<path d="M445.124 576.745L412.156 609.713C411.682 610.187 410.914 610.187 410.44 609.713L377.261 576.534C368.643 567.916 368.643 553.943 377.261 545.325C385.879 536.707 399.852 536.707 408.47 545.325L408.473 545.329L411.247 548.102L414.074 545.384C422.713 537.077 436.453 537.181 444.966 545.694C453.48 554.207 453.583 567.947 445.277 576.586L445.124 576.745Z" stroke="#B366FF" stroke-width="8"/>
<path d="M277.124 738.745L244.156 771.713C243.682 772.187 242.914 772.187 242.44 771.713L209.261 738.534C200.643 729.916 200.643 715.943 209.261 707.325C217.879 698.707 231.852 698.707 240.47 707.325L240.473 707.329L243.247 710.102L246.074 707.384C254.713 699.077 268.453 699.181 276.966 707.694C285.48 716.207 285.583 729.947 277.277 738.586L277.124 738.745Z" stroke="#B366FF" stroke-width="8"/>
<path d="M441.124 738.745L408.156 771.713C407.682 772.187 406.914 772.187 406.44 771.713L373.261 738.534C364.643 729.916 364.643 715.943 373.261 707.325C381.879 698.707 395.852 698.707 404.47 707.325L404.473 707.329L407.247 710.102L410.074 707.384C418.713 699.077 432.453 699.181 440.966 707.694C449.48 716.207 449.583 729.947 441.277 738.586L441.124 738.745Z" stroke="#B366FF" stroke-width="8"/>
<path d="M613.124 738.745L580.156 771.713C579.682 772.187 578.914 772.187 578.44 771.713L545.261 738.534C536.643 729.916 536.643 715.943 545.261 707.325C553.879 698.707 567.852 698.707 576.47 707.325L576.473 707.329L579.247 710.102L582.074 707.384C590.713 699.077 604.453 699.181 612.966 707.694C621.48 716.207 621.583 729.947 613.277 738.586L613.124 738.745Z" stroke="#B366FF" stroke-width="8"/>
<path d="M613.124 576.745L580.156 609.713C579.682 610.187 578.914 610.187 578.44 609.713L545.261 576.534C536.643 567.916 536.643 553.943 545.261 545.325C553.879 536.707 567.852 536.707 576.47 545.325L576.473 545.329L579.247 548.102L582.074 545.384C590.713 537.077 604.453 537.181 612.966 545.694C621.48 554.207 621.583 567.947 613.277 576.586L613.124 576.745Z" stroke="#B366FF" stroke-width="8"/>
<path d="M277.124 576.745L244.156 609.713C243.682 610.187 242.914 610.187 242.44 609.713L209.261 576.534C200.643 567.916 200.643 553.943 209.261 545.325C217.879 536.707 231.852 536.707 240.47 545.325L240.473 545.329L243.247 548.102L246.074 545.384C254.713 537.077 268.453 537.181 276.966 545.694C285.48 554.207 285.583 567.947 277.277 576.586L277.124 576.745Z" stroke="#B366FF" stroke-width="8"/>
<path d="M613.124 414.745L580.156 447.713C579.682 448.187 578.914 448.187 578.44 447.713L545.261 414.534C536.643 405.916 536.643 391.943 545.261 383.325C553.879 374.707 567.852 374.707 576.47 383.325L576.473 383.329L579.247 386.102L582.074 383.384C590.713 375.077 604.453 375.181 612.966 383.694C621.48 392.207 621.583 405.947 613.277 414.586L613.124 414.745Z" stroke="#B366FF" stroke-width="8"/>
<path d="M277.124 414.745L244.156 447.713C243.682 448.187 242.914 448.187 242.44 447.713L209.261 414.534C200.643 405.916 200.643 391.943 209.261 383.325C217.879 374.707 231.852 374.707 240.47 383.325L240.473 383.329L243.247 386.102L246.074 383.384C254.713 375.077 268.453 375.181 276.966 383.694C285.48 392.207 285.583 405.947 277.277 414.586L277.124 414.745Z" stroke="#B366FF" stroke-width="8"/>
<path d="M445.124 414.745L412.156 447.713C411.682 448.187 410.914 448.187 410.44 447.713L377.261 414.534C368.643 405.916 368.643 391.943 377.261 383.325C385.879 374.707 399.852 374.707 408.47 383.325L408.473 383.329L411.247 386.102L414.074 383.384C422.713 375.077 436.453 375.181 444.966 383.694C453.48 392.207 453.583 405.947 445.277 414.586L445.124 414.745Z" stroke="#B366FF" stroke-width="8"/>
</svg>
