<svg width="830" height="1130" viewBox="0 0 830 1130" fill="none" xmlns="http://www.w3.org/2000/svg">
<g filter="url(#filter0_d_52:1254)">
<path d="M4 20C4 8.9543 12.9543 0 24 0H806C817.046 0 826 8.9543 826 20V1102C826 1113.05 817.046 1122 806 1122H24C12.9543 1122 4 1113.05 4 1102V20Z" fill="#1A0033"/>
<path d="M410.5 382.294C300.997 382.293 226.815 254.672 221.608 322.175C193.445 687.283 363.26 808.474 410.5 808.474L410.5 382.294Z" fill="#FFF066"/>
<path d="M328.818 505.23C351.902 504.771 365.958 545.846 370.293 560.745C370.957 563.03 368.763 565.05 366.489 564.35C358.382 561.854 342.331 557.478 328.818 557.241C315.896 557.014 300.766 561.462 292.917 564.124C290.633 564.899 288.348 562.878 288.989 560.553C293.088 545.665 306.193 505.681 328.818 505.23Z" fill="#998A00"/>
<path d="M411.208 722.084C356.709 722.084 316.265 665.754 300.289 634.368C298.802 631.446 301.75 629.662 303.857 632.173C320.558 652.075 349.292 681.533 411.208 681.533V722.084Z" fill="#998A00"/>
<path d="M279.487 486.153C279.096 484.967 279.48 483.701 280.48 482.98C285.689 479.232 302.26 467.766 315.369 463.794C329.456 459.527 351.706 460.229 358.591 460.572C359.86 460.635 360.952 461.484 361.345 462.676L362.149 465.114C362.781 467.031 361.37 468.954 359.331 468.975C350.968 469.065 331.628 469.701 318.893 473.491C306.928 477.052 291.649 486.119 284.96 490.295C283.262 491.355 280.924 490.509 280.291 488.588L279.487 486.153Z" fill="#998A00"/>
<path d="M410.5 382.294C520.003 382.293 594.185 254.672 599.392 322.175C627.555 687.283 457.74 808.474 410.5 808.474L410.5 382.294Z" fill="#B366FF"/>
<path d="M492.182 505.23C469.098 504.771 455.042 545.846 450.707 560.745C450.043 563.03 452.237 565.05 454.511 564.35C462.618 561.854 478.669 557.478 492.182 557.241C505.104 557.014 520.234 561.462 528.083 564.124C530.367 564.899 532.652 562.878 532.011 560.553C527.912 545.665 514.807 505.681 492.182 505.23Z" fill="#F2E6FF"/>
<path d="M409.792 722.084C464.291 722.084 504.735 665.754 520.711 634.368C522.198 631.446 519.25 629.662 517.143 632.173C500.442 652.075 471.708 681.533 409.792 681.533V722.084Z" fill="#F2E6FF"/>
<path d="M541.513 486.153C541.904 484.967 541.52 483.701 540.52 482.98C535.311 479.232 518.74 467.766 505.631 463.794C491.544 459.527 469.294 460.229 462.409 460.572C461.14 460.635 460.048 461.484 459.655 462.676L458.851 465.114C458.219 467.031 459.63 468.954 461.669 468.975C470.032 469.065 489.372 469.701 502.107 473.491C514.072 477.052 529.351 486.119 536.04 490.295C537.738 491.355 540.076 490.509 540.709 488.588L541.513 486.153Z" fill="#998A00"/>
<path d="M24 1H806V-1H24V1ZM825 20V1102H827V20H825ZM806 1121H24V1123H806V1121ZM5 1102V20H3V1102H5ZM24 1121C13.5066 1121 5 1112.49 5 1102H3C3 1113.6 12.402 1123 24 1123V1121ZM825 1102C825 1112.49 816.493 1121 806 1121V1123C817.598 1123 827 1113.6 827 1102H825ZM806 1C816.493 1 825 9.50659 825 20H827C827 8.40202 817.598 -1 806 -1V1ZM24 -1C12.402 -1 3 8.40201 3 20H5C5 9.50658 13.5066 1 24 1V-1Z" fill="black"/>
</g>
<defs>
<filter id="filter0_d_52:1254" x="0" y="0" width="830" height="1130" filterUnits="userSpaceOnUse" color-interpolation-filters="sRGB">
<feFlood flood-opacity="0" result="BackgroundImageFix"/>
<feColorMatrix in="SourceAlpha" type="matrix" values="0 0 0 0 0 0 0 0 0 0 0 0 0 0 0 0 0 0 127 0" result="hardAlpha"/>
<feOffset dy="4"/>
<feGaussianBlur stdDeviation="2"/>
<feComposite in2="hardAlpha" operator="out"/>
<feColorMatrix type="matrix" values="0 0 0 0 0 0 0 0 0 0 0 0 0 0 0 0 0 0 0.25 0"/>
<feBlend mode="normal" in2="BackgroundImageFix" result="effect1_dropShadow_52:1254"/>
<feBlend mode="normal" in="SourceGraphic" in2="effect1_dropShadow_52:1254" result="shape"/>
</filter>
</defs>
</svg>
