<svg width="822" height="1122" viewBox="0 0 822 1122" fill="none" xmlns="http://www.w3.org/2000/svg">
<path d="M0 20C0 8.9543 8.95431 0 20 0H802C813.046 0 822 8.9543 822 20V1102C822 1113.05 813.046 1122 802 1122H20C8.95432 1122 0 1113.05 0 1102V20Z" fill="#1A0033"/>
<g clip-path="url(#clip0_31:2090)">
<path d="M54.6005 159C52.5525 159 51.1018 158.616 50.2485 157.848C49.4805 156.995 49.0965 155.629 49.0965 153.752V148.888C49.0965 147.011 49.4805 145.645 50.2485 144.792C51.1018 143.939 52.5525 143.512 54.6005 143.512H65.6085V94.488L56.5205 100.12C56.0938 100.461 55.5392 100.632 54.8565 100.632C54.0032 100.632 53.3632 100.248 52.9365 99.48L46.9205 90.264C46.5792 89.6667 46.4085 89.112 46.4085 88.6C46.4085 87.7467 46.8778 87.064 47.8165 86.552L69.9605 73.24C70.7285 72.728 71.4538 72.3867 72.1365 72.216C72.8192 72.0453 73.8005 71.96 75.0805 71.96H81.0965C83.1445 71.96 84.5952 72.4293 85.4485 73.368C86.3872 74.3067 86.8565 75.7147 86.8565 77.592V143.512H97.9925C100.041 143.512 101.449 143.939 102.217 144.792C102.985 145.56 103.369 146.925 103.369 148.888V153.752C103.369 155.629 102.985 156.995 102.217 157.848C101.449 158.616 100.041 159 97.9925 159H54.6005ZM152.301 160.92C137.879 160.92 126.999 157.037 119.661 149.272C112.407 141.421 108.781 130.157 108.781 115.48C108.781 100.803 112.407 89.5813 119.661 81.816C126.999 73.9653 137.879 70.04 152.301 70.04C166.637 70.04 177.431 73.9653 184.685 81.816C192.023 89.5813 195.693 100.803 195.693 115.48C195.693 130.157 192.023 141.421 184.685 149.272C177.431 157.037 166.637 160.92 152.301 160.92ZM163.821 88.216C160.663 86.2533 156.823 85.272 152.301 85.272C144.535 85.272 138.818 87.7467 135.149 92.696C131.565 97.6453 129.773 105.24 129.773 115.48C129.773 122.136 130.967 127.299 133.357 130.968L163.821 88.216ZM152.301 145.688C160.066 145.688 165.741 143.213 169.325 138.264C172.909 133.315 174.701 125.72 174.701 115.48C174.701 109.08 173.549 103.832 171.245 99.736L140.525 143C143.597 144.792 147.522 145.688 152.301 145.688Z" fill="#FFF066"/>
<path d="M121.202 281.503C131.382 291.683 147.887 291.683 158.067 281.503C168.247 271.323 168.247 254.818 158.067 244.638L124.888 211.459C122.852 209.423 119.551 209.423 117.515 211.459L84.3364 244.638L84.34 244.641C74.5265 254.848 74.6481 271.077 84.7051 281.134C94.762 291.191 110.992 291.313 121.198 281.499L121.202 281.503Z" fill="#FFF066"/>
<rect x="118.5" y="266" width="5" height="33" rx="2.5" fill="#FFF066"/>
<path d="M763.399 959C765.447 959 766.898 959.384 767.751 960.152C768.519 961.005 768.903 962.371 768.903 964.248V969.112C768.903 970.989 768.519 972.355 767.751 973.208C766.898 974.061 765.447 974.488 763.399 974.488H752.391V1023.51L761.479 1017.88C761.906 1017.54 762.461 1017.37 763.143 1017.37C763.997 1017.37 764.637 1017.75 765.063 1018.52L771.079 1027.74C771.421 1028.33 771.591 1028.89 771.591 1029.4C771.591 1030.25 771.122 1030.94 770.183 1031.45L748.039 1044.76C747.271 1045.27 746.546 1045.61 745.863 1045.78C745.181 1045.95 744.199 1046.04 742.919 1046.04H736.903C734.855 1046.04 733.405 1045.57 732.551 1044.63C731.613 1043.69 731.143 1042.29 731.143 1040.41V974.488H720.007C717.959 974.488 716.551 974.061 715.783 973.208C715.015 972.44 714.631 971.075 714.631 969.112V964.248C714.631 962.371 715.015 961.005 715.783 960.152C716.551 959.384 717.959 959 720.007 959H763.399ZM665.699 957.08C680.121 957.08 691.001 960.963 698.339 968.728C705.593 976.579 709.219 987.843 709.219 1002.52C709.219 1017.2 705.593 1028.42 698.339 1036.18C691.001 1044.03 680.121 1047.96 665.699 1047.96C651.363 1047.96 640.569 1044.03 633.315 1036.18C625.977 1028.42 622.307 1017.2 622.307 1002.52C622.307 987.843 625.977 976.579 633.315 968.728C640.569 960.963 651.363 957.08 665.699 957.08ZM654.179 1029.78C657.337 1031.75 661.177 1032.73 665.699 1032.73C673.465 1032.73 679.182 1030.25 682.851 1025.3C686.435 1020.35 688.227 1012.76 688.227 1002.52C688.227 995.864 687.033 990.701 684.643 987.032L654.179 1029.78ZM665.699 972.312C657.934 972.312 652.259 974.787 648.675 979.736C645.091 984.685 643.299 992.28 643.299 1002.52C643.299 1008.92 644.451 1014.17 646.755 1018.26L677.475 975C674.403 973.208 670.478 972.312 665.699 972.312Z" fill="#FFF066"/>
<path d="M696.798 836.497C686.618 826.317 670.113 826.317 659.933 836.497C649.753 846.677 649.753 863.182 659.933 873.362L693.112 906.541C695.148 908.577 698.449 908.577 700.485 906.541L733.664 873.362L733.66 873.359C743.474 863.152 743.352 846.923 733.295 836.866C723.238 826.809 707.008 826.687 696.802 836.501L696.798 836.497Z" fill="#FFF066"/>
<rect x="699.5" y="852" width="5" height="33" rx="2.5" transform="rotate(-180 699.5 852)" fill="#FFF066"/>
</g>
<path d="M377.876 465.255L410.844 432.287C411.318 431.813 412.086 431.813 412.56 432.287L445.739 465.466C454.357 474.084 454.357 488.057 445.739 496.675C437.121 505.293 423.148 505.293 414.53 496.675L414.527 496.671L411.753 493.898L408.926 496.616C400.287 504.923 386.547 504.819 378.034 496.306C369.52 487.793 369.417 474.053 377.723 465.414L377.876 465.255Z" stroke="#FFF066" stroke-width="8"/>
<rect x="409" y="484" width="5" height="33" rx="2.5" fill="#FFF066"/>
<path d="M209.876 627.255L242.844 594.287C243.318 593.813 244.086 593.813 244.56 594.287L277.739 627.466C286.357 636.084 286.357 650.057 277.739 658.675C269.121 667.293 255.148 667.293 246.53 658.675L246.527 658.671L243.753 655.898L240.926 658.616C232.287 666.923 218.547 666.819 210.034 658.306C201.52 649.793 201.417 636.053 209.723 627.414L209.876 627.255Z" stroke="#FFF066" stroke-width="8"/>
<rect x="241" y="646" width="5" height="33" rx="2.5" fill="#FFF066"/>
<path d="M373.876 627.255L406.844 594.287C407.318 593.813 408.086 593.813 408.56 594.287L441.739 627.466C450.357 636.084 450.357 650.057 441.739 658.675C433.121 667.293 419.148 667.293 410.53 658.675L410.527 658.671L407.753 655.898L404.926 658.616C396.287 666.923 382.547 666.819 374.034 658.306C365.52 649.793 365.417 636.053 373.723 627.414L373.876 627.255Z" stroke="#FFF066" stroke-width="8"/>
<rect x="405" y="646" width="5" height="33" rx="2.5" fill="#FFF066"/>
<path d="M377.876 789.255L410.844 756.287C411.318 755.813 412.086 755.813 412.56 756.287L445.739 789.466C454.357 798.084 454.357 812.057 445.739 820.675C437.121 829.293 423.148 829.293 414.53 820.675L414.527 820.671L411.753 817.898L408.926 820.616C400.287 828.923 386.547 828.819 378.034 820.306C369.52 811.793 369.417 798.053 377.723 789.414L377.876 789.255Z" stroke="#FFF066" stroke-width="8"/>
<rect x="409" y="808" width="5" height="33" rx="2.5" fill="#FFF066"/>
<path d="M545.876 627.255L578.844 594.287C579.318 593.813 580.086 593.813 580.56 594.287L613.739 627.466C622.357 636.084 622.357 650.057 613.739 658.675C605.121 667.293 591.148 667.293 582.53 658.675L582.527 658.671L579.753 655.898L576.926 658.616C568.287 666.923 554.547 666.819 546.034 658.306C537.52 649.793 537.417 636.053 545.723 627.414L545.876 627.255Z" stroke="#FFF066" stroke-width="8"/>
<rect x="577" y="646" width="5" height="33" rx="2.5" fill="#FFF066"/>
<path d="M545.876 465.255L578.844 432.287C579.318 431.813 580.086 431.813 580.56 432.287L613.739 465.466C622.357 474.084 622.357 488.057 613.739 496.675C605.121 505.293 591.148 505.293 582.53 496.675L582.527 496.671L579.753 493.898L576.926 496.616C568.287 504.923 554.547 504.819 546.034 496.306C537.52 487.793 537.417 474.053 545.723 465.414L545.876 465.255Z" stroke="#FFF066" stroke-width="8"/>
<rect x="577" y="484" width="5" height="33" rx="2.5" fill="#FFF066"/>
<path d="M209.876 465.255L242.844 432.287C243.318 431.813 244.086 431.813 244.56 432.287L277.739 465.466C286.357 474.084 286.357 488.057 277.739 496.675C269.121 505.293 255.148 505.293 246.53 496.675L246.527 496.671L243.753 493.898L240.926 496.616C232.287 504.923 218.547 504.819 210.034 496.306C201.52 487.793 201.417 474.053 209.723 465.414L209.876 465.255Z" stroke="#FFF066" stroke-width="8"/>
<rect x="241" y="484" width="5" height="33" rx="2.5" fill="#FFF066"/>
<path d="M545.876 303.255L578.844 270.287C579.318 269.813 580.086 269.813 580.56 270.287L613.739 303.466C622.357 312.084 622.357 326.057 613.739 334.675C605.121 343.293 591.148 343.293 582.53 334.675L582.527 334.671L579.753 331.898L576.926 334.616C568.287 342.923 554.547 342.819 546.034 334.306C537.52 325.793 537.417 312.053 545.723 303.414L545.876 303.255Z" stroke="#FFF066" stroke-width="8"/>
<rect x="577" y="322" width="5" height="33" rx="2.5" fill="#FFF066"/>
<path d="M209.876 303.255L242.844 270.287C243.318 269.813 244.086 269.813 244.56 270.287L277.739 303.466C286.357 312.084 286.357 326.057 277.739 334.675C269.121 343.293 255.148 343.293 246.53 334.675L246.527 334.671L243.753 331.898L240.926 334.616C232.287 342.923 218.547 342.819 210.034 334.306C201.52 325.793 201.417 312.053 209.723 303.414L209.876 303.255Z" stroke="#FFF066" stroke-width="8"/>
<rect x="241" y="322" width="5" height="33" rx="2.5" fill="#FFF066"/>
<path d="M377.876 303.255L410.844 270.287C411.318 269.813 412.086 269.813 412.56 270.287L445.739 303.466C454.357 312.084 454.357 326.057 445.739 334.675C437.121 343.293 423.148 343.293 414.53 334.675L414.527 334.671L411.753 331.898L408.926 334.616C400.287 342.923 386.547 342.819 378.034 334.306C369.52 325.793 369.417 312.053 377.723 303.414L377.876 303.255Z" stroke="#FFF066" stroke-width="8"/>
<rect x="409" y="322" width="5" height="33" rx="2.5" fill="#FFF066"/>
<defs>
<clipPath id="clip0_31:2090">
<rect width="722" height="1022" fill="white" transform="translate(46 48)"/>
</clipPath>
</defs>
</svg>
