<svg width="822" height="1122" viewBox="0 0 822 1122" fill="none" xmlns="http://www.w3.org/2000/svg">
<path d="M0 20C0 8.9543 8.95431 0 20 0H802C813.046 0 822 8.9543 822 20V1102C822 1113.05 813.046 1122 802 1122H20C8.95432 1122 0 1113.05 0 1102V20Z" fill="#1A0033"/>
<path d="M139.766 182.168C131.744 182.168 125.259 180.163 120.31 176.152C115.446 172.141 112.672 166.851 111.99 160.28C100.384 158.744 91.5522 154.136 85.4935 146.456C79.4348 138.691 76.4055 128.365 76.4055 115.48C76.4055 101.059 80.2028 89.88 87.7975 81.944C95.4775 74.008 106.571 70.04 121.078 70.04C135.499 70.04 146.507 74.008 154.102 81.944C161.782 89.88 165.622 101.059 165.622 115.48C165.622 128.707 162.379 139.16 155.894 146.84C149.408 154.435 139.979 158.872 127.606 160.152C127.947 163.053 129.27 165.187 131.574 166.552C133.963 168.003 136.864 168.728 140.278 168.728C144.63 168.728 148.512 167.619 151.926 165.4C152.523 165.059 152.992 164.888 153.334 164.888C153.846 164.888 154.272 165.187 154.614 165.784L159.478 173.464C159.819 173.891 159.99 174.36 159.99 174.872C159.99 175.384 159.563 175.939 158.71 176.536C156.064 178.413 153.248 179.821 150.262 180.76C147.275 181.699 143.776 182.168 139.766 182.168ZM121.078 145.688C128.843 145.688 134.688 143.171 138.614 138.136C142.624 133.016 144.63 125.464 144.63 115.48C144.63 105.496 142.624 97.9867 138.614 92.952C134.688 87.832 128.843 85.272 121.078 85.272C113.227 85.272 107.296 87.832 103.286 92.952C99.3602 97.9867 97.3975 105.496 97.3975 115.48C97.3975 125.464 99.3602 133.016 103.286 138.136C107.296 143.171 113.227 145.688 121.078 145.688Z" fill="#FFF066"/>
<path d="M121.202 281.503C131.382 291.683 147.887 291.683 158.067 281.503C168.247 271.323 168.247 254.818 158.067 244.638L124.888 211.459C122.852 209.423 119.551 209.423 117.515 211.459L84.3364 244.638L84.34 244.641C74.5265 254.848 74.6481 271.078 84.7051 281.135C94.762 291.192 110.992 291.313 121.198 281.5L121.202 281.503Z" fill="#FFF066"/>
<rect x="118.5" y="266" width="5" height="33" rx="2.5" fill="#FFF066"/>
<path d="M674.234 935.832C682.256 935.832 688.741 937.837 693.69 941.848C698.554 945.859 701.328 951.149 702.01 957.72C713.616 959.256 722.448 963.864 728.506 971.544C734.565 979.309 737.594 989.635 737.594 1002.52C737.594 1016.94 733.797 1028.12 726.202 1036.06C718.522 1043.99 707.429 1047.96 692.922 1047.96C678.501 1047.96 667.493 1043.99 659.898 1036.06C652.218 1028.12 648.378 1016.94 648.378 1002.52C648.378 989.293 651.621 978.84 658.106 971.16C664.592 963.565 674.021 959.128 686.394 957.848C686.053 954.947 684.73 952.813 682.426 951.448C680.037 949.997 677.136 949.272 673.722 949.272C669.37 949.272 665.488 950.381 662.074 952.6C661.477 952.941 661.008 953.112 660.666 953.112C660.154 953.112 659.728 952.813 659.386 952.216L654.522 944.536C654.181 944.109 654.01 943.64 654.01 943.128C654.01 942.616 654.437 942.061 655.29 941.464C657.936 939.587 660.752 938.179 663.738 937.24C666.725 936.301 670.224 935.832 674.234 935.832ZM692.922 972.312C685.157 972.312 679.312 974.829 675.386 979.864C671.376 984.984 669.37 992.536 669.37 1002.52C669.37 1012.5 671.376 1020.01 675.386 1025.05C679.312 1030.17 685.157 1032.73 692.922 1032.73C700.773 1032.73 706.704 1030.17 710.714 1025.05C714.64 1020.01 716.602 1012.5 716.602 1002.52C716.602 992.536 714.64 984.984 710.714 979.864C706.704 974.829 700.773 972.312 692.922 972.312Z" fill="#FFF066"/>
<path d="M692.798 836.497C682.618 826.317 666.113 826.317 655.933 836.497C645.753 846.677 645.753 863.182 655.933 873.362L689.112 906.541C691.148 908.577 694.449 908.577 696.485 906.541L729.664 873.362L729.66 873.359C739.474 863.152 739.352 846.922 729.295 836.865C719.238 826.808 703.008 826.687 692.802 836.5L692.798 836.497Z" fill="#FFF066"/>
<rect x="695.5" y="852" width="5" height="33" rx="2.5" transform="rotate(-180 695.5 852)" fill="#FFF066"/>
<path d="M517.951 488.236C508.178 460.172 529.447 447.409 517.951 444.909C506.455 442.409 479.021 420.045 472.489 415.368C465.957 410.691 478.864 439.05 479.282 450.079C479.7 461.108 470.921 484.379 466.48 494.637C483.985 519.993 522.341 500.84 517.951 488.236Z" fill="#998A00"/>
<path d="M464.909 502.119C498.955 525.122 514.324 505.022 518.886 496.687C519.78 495.054 521.89 494.33 523.536 495.198C539.612 503.681 551.485 503.539 559.454 501.138C562.589 500.193 568.708 504.584 567.738 507.711C555.795 546.186 520.972 648.148 492.4 630.007C467.036 613.903 424.865 524.818 416.978 507.809C416.264 506.267 416.983 504.482 418.583 503.911C427.02 500.899 451.8 493.263 464.909 502.119Z" fill="#E6CF00"/>
<path d="M515.715 259.763C487.662 246.008 456.664 254.361 441.96 262.154C440.673 262.836 439.082 262.573 438.133 261.468L425.191 246.398C423.004 243.852 426.01 240.184 428.936 241.828L434.574 244.995C436.724 246.203 439.331 244.446 439.019 242L437.687 231.553C437.331 228.764 440.664 227.062 442.715 228.985L452.671 238.32C454.522 240.055 457.557 238.852 457.717 236.32L458.401 225.482C458.573 222.75 462.013 221.657 463.73 223.788L473.578 236.005C475.154 237.959 478.289 237.231 478.841 234.782L480.955 225.398C481.635 222.378 485.887 222.242 486.76 225.211L489.668 235.108C490.364 237.476 493.461 238.038 494.944 236.066L502.711 225.74C504.443 223.438 508.109 224.663 508.109 227.544V236.368C508.109 238.895 511.041 240.29 513.002 238.696L521.759 231.573C524.027 229.729 527.324 231.886 526.543 234.702L520.127 257.857C519.607 259.733 517.463 260.62 515.715 259.763Z" fill="#E6CF00"/>
<path d="M532.953 282.771H432.965L425.112 349.173C425.112 349.173 450.698 391.966 480.603 416.779C498.14 431.329 547.12 460.189 552.322 434.38C554.657 422.799 557.056 378.524 557.056 378.524C557.056 378.524 572.582 377.639 570.684 371.611C568.785 365.584 563.091 363.749 557.056 335.184C551.021 306.619 532.953 282.771 532.953 282.771Z" fill="#E6CF00"/>
<path d="M434.276 270.192C489.439 245.355 518.162 265.089 529.678 277.607C532.516 280.692 529.736 284.871 525.552 284.605C494.731 282.652 461.389 296.631 454.96 300.591C444.749 306.881 454.96 372.397 474.596 421.141C487.163 444.465 512.717 515.275 493.447 522.823C475.278 529.939 431.087 535.284 410.735 530.6C408.653 530.121 407.309 528.202 407.309 526.066V359.381C407.309 359.323 407.309 359.317 407.307 359.258C407.247 357.404 405.03 283.36 434.276 270.192Z" fill="#FFFACC"/>
<path d="M555.236 406.728L554.713 415.114C547.304 416.286 531.725 412.255 526.87 411.552C522.016 410.849 521.249 411.318 521.505 410.615C521.76 409.911 521.249 411.552 526.359 409.677C531.469 407.802 549.871 405.556 555.236 406.728Z" fill="#FFFACC"/>
<path d="M533.182 322.081C528.479 321.998 522.946 323.606 519.659 324.711C518.48 325.107 518.011 326.325 519.251 326.416C522.469 326.652 529.942 324.458 533.968 325.392C538.746 326.501 544.068 330.168 547.638 329.831C548.336 329.765 548.803 329.152 548.919 328.46C549.059 327.62 548.66 326.78 547.9 326.396C544.463 324.662 538.317 322.17 533.182 322.081Z" fill="#F2E6FF"/>
<path d="M349.756 651.013C359.53 679.077 338.26 691.841 349.756 694.34C361.252 696.84 388.686 719.204 395.218 723.882C401.75 728.559 388.843 700.199 388.425 689.171C388.007 678.142 396.786 654.87 401.228 644.613C383.722 619.257 345.367 638.409 349.756 651.013Z" fill="#998A00"/>
<path d="M402.799 637.13C368.752 614.127 353.383 634.228 348.822 642.562C347.928 644.195 345.817 644.92 344.171 644.051C328.095 635.568 316.223 635.711 308.254 638.112C305.119 639.056 298.999 634.665 299.97 631.538C311.913 593.064 346.736 491.101 375.308 509.242C400.672 525.347 442.842 614.432 450.729 631.441C451.444 632.983 450.725 634.767 449.124 635.339C440.688 638.35 415.907 645.987 402.799 637.13Z" fill="#E6CF00"/>
<path d="M351.993 879.486C380.045 893.242 411.044 884.889 425.748 877.095C427.034 876.413 428.625 876.677 429.574 877.782L442.517 892.851C444.703 895.397 441.697 899.065 438.771 897.421L433.133 894.254C430.984 893.047 428.376 894.804 428.688 897.249L430.02 907.696C430.376 910.485 427.044 912.188 424.993 910.264L415.037 900.93C413.186 899.194 410.15 900.397 409.991 902.929L409.307 913.768C409.134 916.499 405.695 917.592 403.977 915.462L394.129 903.244C392.554 901.29 389.418 902.019 388.867 904.468L386.753 913.852C386.072 916.871 381.82 917.008 380.948 914.038L378.039 904.141C377.344 901.774 374.247 901.212 372.764 903.183L364.996 913.509C363.264 915.812 359.599 914.587 359.599 911.706V902.881C359.599 900.354 356.666 898.959 354.706 900.554L345.948 907.676C343.681 909.52 340.384 907.364 341.164 904.548L347.581 881.393C348.1 879.517 350.245 878.629 351.993 879.486Z" fill="#E6CF00"/>
<path d="M334.755 856.479H434.743L442.595 790.076C442.595 790.076 417.01 747.284 387.105 722.471C369.567 707.92 320.588 679.06 315.385 704.869C313.051 716.451 310.651 760.725 310.651 760.725C310.651 760.725 295.125 761.611 297.024 767.638C298.923 773.666 304.617 775.5 310.651 804.066C316.686 832.631 334.755 856.479 334.755 856.479Z" fill="#E6CF00"/>
<path d="M433.432 869.058C378.269 893.895 349.545 874.161 338.029 861.642C335.191 858.557 337.972 854.379 342.155 854.644C372.976 856.598 406.319 842.618 412.748 838.658C422.959 832.369 412.748 766.852 393.111 718.108C380.544 694.784 354.991 623.974 374.26 616.427C392.429 609.311 436.62 603.965 456.973 608.65C459.054 609.129 460.399 611.048 460.399 613.184L460.399 779.868C460.399 779.926 460.398 779.933 460.4 779.991C460.46 781.846 462.678 855.89 433.432 869.058Z" fill="#FFFACC"/>
<path d="M312.471 732.522L312.995 724.136C320.404 722.964 335.983 726.994 340.837 727.697C345.692 728.401 346.458 727.932 346.203 728.635C345.947 729.338 346.458 727.697 341.348 729.573C336.238 731.448 317.836 733.694 312.471 732.522Z" fill="#FFFACC"/>
<path d="M334.525 817.169C339.228 817.251 344.761 815.643 348.049 814.539C349.227 814.143 349.696 812.925 348.456 812.834C345.238 812.598 337.765 814.791 333.74 813.857C328.962 812.748 323.639 809.082 320.07 809.418C319.372 809.484 318.905 810.098 318.789 810.789C318.648 811.629 319.048 812.47 319.808 812.853C323.245 814.587 329.391 817.079 334.525 817.169Z" fill="#F2E6FF"/>
</svg>
