<svg width="822" height="1122" viewBox="0 0 822 1122" fill="none" xmlns="http://www.w3.org/2000/svg">
<path d="M0 20C0 8.9543 8.95431 0 20 0H802C813.046 0 822 8.9543 822 20V1102C822 1113.05 813.046 1122 802 1122H20C8.95432 1122 0 1113.05 0 1102V20Z" fill="#1A0033"/>
<path d="M118.719 160.92C107.711 160.92 98.8358 158.659 92.0945 154.136C91.3265 153.624 90.9425 152.941 90.9425 152.088C90.9425 151.405 91.1985 150.637 91.7105 149.784L96.0625 142.232C96.6598 141.293 97.2572 140.824 97.8545 140.824C98.4518 140.824 99.1772 141.08 100.031 141.592C104.98 144.323 110.74 145.688 117.311 145.688C123.796 145.688 128.788 144.152 132.287 141.08C135.785 138.008 138.047 133.272 139.071 126.872C136.255 129.091 133.055 130.669 129.471 131.608C125.887 132.547 121.577 133.016 116.543 133.016C109.716 133.016 103.828 131.779 98.8785 129.304C94.0145 126.829 90.3025 123.416 87.7425 119.064C85.2678 114.627 84.0305 109.635 84.0305 104.088C84.0305 92.6533 87.2732 84.12 93.7585 78.488C100.329 72.856 109.631 70.04 121.663 70.04C132.585 70.04 141.375 73.368 148.031 80.024C154.687 86.5947 158.015 96.7067 158.015 110.36C158.015 122.392 156.223 132.205 152.639 139.8C149.055 147.309 144.319 152.728 138.431 156.056C132.543 159.299 125.972 160.92 118.719 160.92ZM121.407 120.344C125.759 120.344 129.385 118.936 132.287 116.12C135.273 113.304 136.767 109.251 136.767 103.96C136.767 97.7307 135.444 93.08 132.799 90.008C130.239 86.8507 126.484 85.272 121.535 85.272C115.988 85.272 111.849 86.7653 109.119 89.752C106.388 92.6533 105.023 97.304 105.023 103.704C105.023 114.797 110.484 120.344 121.407 120.344Z" fill="#FFF066"/>
<path d="M121.202 281.503C131.382 291.683 147.887 291.683 158.067 281.503C168.247 271.323 168.247 254.818 158.067 244.638L124.888 211.459C122.852 209.423 119.551 209.423 117.515 211.459L84.3364 244.638L84.34 244.641C74.5265 254.848 74.6481 271.077 84.7051 281.134C94.762 291.191 110.992 291.313 121.198 281.499L121.202 281.503Z" fill="#FFF066"/>
<rect x="118.5" y="266" width="5" height="33" rx="2.5" fill="#FFF066"/>
<path d="M695.281 957.08C706.289 957.08 715.164 959.341 721.905 963.864C722.673 964.376 723.057 965.059 723.057 965.912C723.057 966.595 722.801 967.363 722.289 968.216L717.938 975.768C717.34 976.707 716.743 977.176 716.145 977.176C715.548 977.176 714.823 976.92 713.969 976.408C709.02 973.677 703.26 972.312 696.689 972.312C690.204 972.312 685.212 973.848 681.713 976.92C678.215 979.992 675.953 984.728 674.929 991.128C677.745 988.909 680.945 987.331 684.529 986.392C688.113 985.453 692.423 984.984 697.457 984.984C704.284 984.984 710.172 986.221 715.122 988.696C719.985 991.171 723.697 994.584 726.257 998.936C728.732 1003.37 729.969 1008.37 729.969 1013.91C729.969 1025.35 726.727 1033.88 720.241 1039.51C713.671 1045.14 704.369 1047.96 692.337 1047.96C681.415 1047.96 672.625 1044.63 665.969 1037.98C659.313 1031.41 655.985 1021.29 655.985 1007.64C655.985 995.608 657.777 985.795 661.361 978.2C664.945 970.691 669.681 965.272 675.569 961.944C681.457 958.701 688.028 957.08 695.281 957.08ZM692.593 997.656C688.241 997.656 684.615 999.064 681.713 1001.88C678.727 1004.7 677.233 1008.75 677.233 1014.04C677.233 1020.27 678.556 1024.92 681.201 1027.99C683.761 1031.15 687.516 1032.73 692.465 1032.73C698.012 1032.73 702.151 1031.23 704.881 1028.25C707.612 1025.35 708.977 1020.7 708.977 1014.3C708.977 1003.2 703.516 997.656 692.593 997.656Z" fill="#FFF066"/>
<path d="M692.798 836.497C682.618 826.317 666.113 826.317 655.933 836.497C645.753 846.677 645.753 863.182 655.933 873.362L689.112 906.541C691.148 908.577 694.449 908.577 696.485 906.541L729.664 873.362L729.66 873.359C739.474 863.152 739.352 846.923 729.295 836.866C719.238 826.809 703.008 826.687 692.802 836.501L692.798 836.497Z" fill="#FFF066"/>
<rect x="695.5" y="852" width="5" height="33" rx="2.5" transform="rotate(-180 695.5 852)" fill="#FFF066"/>
<path d="M377.876 546.255L410.844 513.287C411.318 512.813 412.086 512.813 412.56 513.287L445.739 546.466C454.357 555.084 454.357 569.057 445.739 577.675C437.121 586.293 423.148 586.293 414.53 577.675L414.527 577.671L411.753 574.898L408.926 577.616C400.287 585.923 386.547 585.819 378.034 577.306C369.52 568.793 369.417 555.053 377.723 546.414L377.876 546.255Z" stroke="#FFF066" stroke-width="8"/>
<rect x="409" y="565" width="5" height="33" rx="2.5" fill="#FFF066"/>
<path d="M209.876 708.255L242.844 675.287C243.318 674.813 244.086 674.813 244.56 675.287L277.739 708.466C286.357 717.084 286.357 731.057 277.739 739.675C269.121 748.293 255.148 748.293 246.53 739.675L246.527 739.671L243.753 736.898L240.926 739.616C232.287 747.923 218.547 747.819 210.034 739.306C201.52 730.793 201.417 717.053 209.723 708.414L209.876 708.255Z" stroke="#FFF066" stroke-width="8"/>
<rect x="241" y="727" width="5" height="33" rx="2.5" fill="#FFF066"/>
<path d="M373.876 708.255L406.844 675.287C407.318 674.813 408.086 674.813 408.56 675.287L441.739 708.466C450.357 717.084 450.357 731.057 441.739 739.675C433.121 748.293 419.148 748.293 410.53 739.675L410.527 739.671L407.753 736.898L404.926 739.616C396.287 747.923 382.547 747.819 374.034 739.306C365.52 730.793 365.417 717.053 373.723 708.414L373.876 708.255Z" stroke="#FFF066" stroke-width="8"/>
<rect x="405" y="727" width="5" height="33" rx="2.5" fill="#FFF066"/>
<path d="M545.876 708.255L578.844 675.287C579.318 674.813 580.086 674.813 580.56 675.287L613.739 708.466C622.357 717.084 622.357 731.057 613.739 739.675C605.121 748.293 591.148 748.293 582.53 739.675L582.527 739.671L579.753 736.898L576.926 739.616C568.287 747.923 554.547 747.819 546.034 739.306C537.52 730.793 537.417 717.053 545.723 708.414L545.876 708.255Z" stroke="#FFF066" stroke-width="8"/>
<rect x="577" y="727" width="5" height="33" rx="2.5" fill="#FFF066"/>
<path d="M545.876 546.255L578.844 513.287C579.318 512.813 580.086 512.813 580.56 513.287L613.739 546.466C622.357 555.084 622.357 569.057 613.739 577.675C605.121 586.293 591.148 586.293 582.53 577.675L582.527 577.671L579.753 574.898L576.926 577.616C568.287 585.923 554.547 585.819 546.034 577.306C537.52 568.793 537.417 555.053 545.723 546.414L545.876 546.255Z" stroke="#FFF066" stroke-width="8"/>
<rect x="577" y="565" width="5" height="33" rx="2.5" fill="#FFF066"/>
<path d="M209.876 546.255L242.844 513.287C243.318 512.813 244.086 512.813 244.56 513.287L277.739 546.466C286.357 555.084 286.357 569.057 277.739 577.675C269.121 586.293 255.148 586.293 246.53 577.675L246.527 577.671L243.753 574.898L240.926 577.616C232.287 585.923 218.547 585.819 210.034 577.306C201.52 568.793 201.417 555.053 209.723 546.414L209.876 546.255Z" stroke="#FFF066" stroke-width="8"/>
<rect x="241" y="565" width="5" height="33" rx="2.5" fill="#FFF066"/>
<path d="M545.876 384.255L578.844 351.287C579.318 350.813 580.086 350.813 580.56 351.287L613.739 384.466C622.357 393.084 622.357 407.057 613.739 415.675C605.121 424.293 591.148 424.293 582.53 415.675L582.527 415.671L579.753 412.898L576.926 415.616C568.287 423.923 554.547 423.819 546.034 415.306C537.52 406.793 537.417 393.053 545.723 384.414L545.876 384.255Z" stroke="#FFF066" stroke-width="8"/>
<rect x="577" y="403" width="5" height="33" rx="2.5" fill="#FFF066"/>
<path d="M209.876 384.255L242.844 351.287C243.318 350.813 244.086 350.813 244.56 351.287L277.739 384.466C286.357 393.084 286.357 407.057 277.739 415.675C269.121 424.293 255.148 424.293 246.53 415.675L246.527 415.671L243.753 412.898L240.926 415.616C232.287 423.923 218.547 423.819 210.034 415.306C201.52 406.793 201.417 393.053 209.723 384.414L209.876 384.255Z" stroke="#FFF066" stroke-width="8"/>
<rect x="241" y="403" width="5" height="33" rx="2.5" fill="#FFF066"/>
<path d="M377.876 384.255L410.844 351.287C411.318 350.813 412.086 350.813 412.56 351.287L445.739 384.466C454.357 393.084 454.357 407.057 445.739 415.675C437.121 424.293 423.148 424.293 414.53 415.675L414.527 415.671L411.753 412.898L408.926 415.616C400.287 423.923 386.547 423.819 378.034 415.306C369.52 406.793 369.417 393.053 377.723 384.414L377.876 384.255Z" stroke="#FFF066" stroke-width="8"/>
<rect x="409" y="403" width="5" height="33" rx="2.5" fill="#FFF066"/>
</svg>
