<svg width="356" height="326" viewBox="0 0 356 326" fill="none" xmlns="http://www.w3.org/2000/svg">
<path d="M169 0.599995C164.4 1.2 156.6 3.7 151 6.3C126.1 17.9 115 38.7 115 74C115 100.4 118.4 109.6 137.9 135.5C148.4 149.4 172 184.7 172 186.5C172 188.3 170.6 188.4 168.8 186.7C168.1 186 165.3 183.7 162.5 181.5C159.8 179.3 157.1 177 156.5 176.4C156 175.8 152.6 173.1 149 170.5C145.4 167.8 142.3 165.3 142 165C141.7 164.7 138.6 161.7 135 158.5C131.4 155.3 126.7 151.1 124.5 149.1C115.4 140.8 105.5 135 95.6 132C85.4 129 69.4 127.7 57.7 129C42.8 130.7 33.9 133.8 24.8 140.7C15 148.1 7.60001 159.5 3.00001 174.2C0.300011 182.8 0.200011 199.9 2.90001 209C10.5 235.8 26.1 248.9 56.5 254.4C72.4 257.2 90.5 256.1 100.5 251.5C102.2 250.7 105.5 249.2 108 248.1C110.5 246.9 115.7 243.8 119.5 241.1C135.5 229.8 142.9 224.8 146.5 223.1C147.6 222.6 150.1 221.1 152 219.8C153.9 218.5 156.2 217.1 157 216.7C157.8 216.3 159.9 215.1 161.5 214C163.2 212.9 165.2 211.7 166 211.4C166.8 211 168.3 210 169.3 209.2C170.2 208.4 171.3 208 171.6 208.3C174.2 210.9 169.2 249.1 164.3 265.5C160.3 278.4 150.4 302.9 143.8 315.9C141.7 320 140 323.8 140 324.4C140 325.2 151.8 325.5 178.2 325.5C218.2 325.5 219.2 325.3 215.8 321.2C214.3 319.4 207.9 306.1 203.5 295.5C202.8 293.8 201.6 291.1 200.9 289.5C196.8 279.8 190 259.4 190 256.7C190 255.7 189.3 252.1 188.5 248.7C186.7 241.1 184 220.2 184 213.9C184 208.7 184.7 207.5 186.8 209.2C187.6 209.9 189 210.9 190.1 211.5C191.1 212 195.2 214.5 199.1 216.9C203.1 219.3 207.3 221.8 208.4 222.4C211.8 224.2 228 235 234 239.4C240.7 244.4 242.3 245.3 248 248.1C250.5 249.3 253.3 250.7 254.3 251.2C255.3 251.7 259.6 253 263.7 254.1C273.2 256.5 287.2 256.6 299.5 254.4C317.7 251.1 327.4 246.6 337.6 236.5C344.1 230.1 345.6 227.6 350.5 216.5C356.8 202.1 356.7 181.5 350.3 167C339.4 142.4 325.2 132 298.3 129C279.1 126.9 259.4 130.4 245.5 138.3C240.2 141.4 228.5 151.1 215 163.8C213.6 165.1 209.1 168.8 205 172.1C200.9 175.3 194.7 180.3 191.3 183.1C186.3 187.1 184.9 187.9 184.4 186.6C184 185.7 185 183.5 186.9 181.2C188.6 179 193.3 172.2 197.4 165.9C206.8 151.5 214.3 141 219.7 134.3C229.4 122.2 235.7 110.9 239.2 99C242.1 89.3 242.1 59.6 239.2 49C232.3 23.5 221.3 11.5 197 2.9C191.5 0.999995 176.1 -0.300005 169 0.599995ZM194.9 17.7C206.5 22.8 217.3 30.2 219.5 34.7C220.1 35.8 221.1 37.4 221.7 38.1C223.2 40.1 224.2 45 223.1 45C222.5 45 219.9 43.8 217.3 42.2C212.9 39.7 211.6 39.5 202.5 39.5C191.1 39.6 187.9 41 182.5 48.2C180.9 50.3 179.1 52 178.4 52C177.8 52 176 50.4 174.5 48.5C173.1 46.5 170 43.7 167.8 42.2C164 39.7 162.9 39.5 153.6 39.5C144.3 39.5 143.2 39.7 139.3 42.3C131.3 47.4 130.4 44.9 136.7 35.3C142.6 26.3 156.2 18.1 169 15.9C175.4 14.8 190.6 15.9 194.9 17.7ZM166.9 51.4C170.4 55.1 170 60.7 166.1 64.2C162 67.8 159.1 67.7 155.2 63.9C151.6 60.3 151.1 56.8 153.7 53C156 49.5 157 49 161.1 49C163.6 49 165.3 49.7 166.9 51.4ZM202.4 52.1C205.9 56.3 205.7 59.5 201.6 63.6C197.8 67.4 196.2 67.7 192 65.5C183.5 61.1 186.4 49 196 49C199 49 200.3 49.6 202.4 52.1ZM137.3 60.2C143 66 147.7 69.6 152.5 72.1C156.4 74.1 159.5 76.2 159.5 76.8C159.5 77.4 156.5 80.1 152.9 82.9C145.5 88.4 140.4 94.3 137.1 100.7C135.9 103.1 134.8 105 134.5 105C133.8 105 131.3 99.9 129.5 94.9C123.4 78 122.8 72.6 125.6 61.2C127.9 51.8 127.9 52 128.5 52C128.9 52 132.8 55.7 137.3 60.2ZM230.3 58.7C232.5 67.3 232.5 79 230.4 85.5C227.3 94.9 223.4 103.5 222.1 103.5C221 103.5 219.2 101 217.1 96.4C215.7 93.3 205.1 83.2 200.2 80.3C195.1 77.3 195.5 76.2 203.9 72.2C207.5 70.4 212.4 66.5 218 60.9C222.7 56.2 227 52.3 227.5 52.2C228.1 52.1 229.3 55 230.3 58.7ZM180.4 78.6C180.7 79.5 181 81.3 181 82.6C181 86.2 184.6 96.3 189.1 105.7C192 111.6 194 114.5 196.4 115.9C201.9 119.3 207 118.2 207 113.7C207 112.1 206.5 111.9 204 112.5C200.3 113.3 198.4 111.9 197.5 107.9C196.5 103.2 199.1 100 204 100C210.1 100 213.7 104.6 214.6 113.6C215 118.2 214.7 120.3 213.3 122.9C209.5 130.2 198.1 130.6 191 123.7C187.7 120.4 181.4 110.4 180.8 107.4C180.4 105.1 177 104.9 176 107C175.5 107.8 174.1 110.7 172.8 113.3C165.9 127.7 153.5 132.9 144.8 125.2C142 122.6 141.8 122 141.8 115.5C141.8 109.6 142.3 108.1 144.7 104.6C147.1 101.2 148.2 100.4 151.4 100.2C156.2 99.8 159 102.1 159 106.5C159 110.6 156.1 113.3 152.7 112.5C149.7 111.7 148.5 113.2 150 116C151.6 119 157.1 118.7 160.9 115.4C165.5 111.5 173.5 93.7 175.4 83.1C176.3 77.8 179.1 75.3 180.4 78.6ZM164.2 84.7C166.4 86.7 166.5 89.8 164.3 92.2C162.1 94.7 158.4 94.5 156.6 91.8C154.4 88.7 154.6 86.5 157.3 84.7C160.2 82.6 161.9 82.6 164.2 84.7ZM200.3 86.1C202.1 88.6 202.1 88.9 200.5 91.4C198.1 95 193.6 94.7 191.2 90.8C189.7 88.2 189.7 88 192 85.5C194.9 82.4 197.6 82.6 200.3 86.1ZM182.5 126.4C184 129.4 187.6 134.2 190.6 137.1C196.9 143.4 197.4 145 192.6 145C190.7 145 188.9 145.4 188.6 145.9C187.7 147.4 180.1 151 178 151C176.9 151 173.8 149.6 171.2 148C168.5 146.3 165.1 145 163.7 145C162.3 145 160.9 144.6 160.6 144.2C160.3 143.8 162.8 140.5 166.1 136.9C169.3 133.4 173 128.4 174.2 125.7C177.2 119.5 179.1 119.6 182.5 126.4ZM91.3 143.2C96.3 145.4 101.6 147.6 102.9 148.1C106 149.3 104.7 150.8 97.5 154.4C92.4 157 85.1 163.5 78.8 170.9C75.8 174.4 74.2 174.8 73.4 172.2C70.9 164.2 60.8 149.4 54.8 145.2C52.7 143.7 52.4 141.5 54.2 140.4C56.2 139.1 68.9 138.2 75.8 138.7C80.1 139 84.9 140.4 91.3 143.2ZM298.8 139.7C300.7 140 302.4 140.8 302.6 141.5C302.9 142.2 300.8 145.2 298 148.2C290.5 155.9 285 164.5 282.6 172.2C281.8 174.8 280.2 174.4 277.2 170.8C270.8 163.3 263.8 157.2 258.6 154.5C251.3 150.8 250 149.3 253.1 148.1C254.4 147.6 259.3 145.5 264 143.4C268.7 141.4 274.3 139.4 276.5 138.9C280.4 138.2 292.3 138.6 298.8 139.7ZM46 145.4C46 145.7 44.7 147.8 43.2 150.2C40.4 154.4 37 163.6 37 166.9C37 167.8 37.7 171.2 38.5 174.5C39.7 179.1 41.2 181.5 45.2 185.8L50.4 191.3L47.4 193.3C40.3 198.4 37.4 202.4 35.6 210.3C33.9 217.6 33.9 218.1 35.6 223.7C36.5 226.9 37.9 230.4 38.7 231.5C40 233.4 40.5 237 39.5 237C37.5 237 27.3 229.5 24.5 226C14.4 213.5 10.2 192 15 177C19 164.4 27.8 152.7 37 147.6C41 145.4 46 144.2 46 145.4ZM319.1 147.7C328.2 152.6 336.3 163.5 341.1 176.9C343.8 184.8 343.7 199.5 340.9 207.5C338.7 213.9 334.6 222 331.8 225.8C329.3 229.2 321.7 234.8 318.6 235.6C316.5 236.1 316 235.9 316 234.2C316 233.1 316.6 231.7 317.4 231.1C318.2 230.5 319 228.9 319.3 227.7C319.6 226.5 320.4 223.5 321 221C321.9 217.3 321.8 215.3 320.3 209.5C318.5 202.4 315.4 198.1 308.6 193.3L305.6 191.3L310.7 185.9C313.5 182.9 316.3 178.8 317 176.7C319.8 168.1 318.3 158.5 312.8 150.2C311.3 147.8 310 145.7 310 145.4C310 144.2 314.6 145.3 319.1 147.7ZM181 155C185.8 157.6 185.9 164.5 181.2 167.2C178.3 168.9 176.5 168.6 173.8 166.2C171.2 164 171.5 158.3 174.3 155.9C176.8 153.8 178.4 153.6 181 155ZM120.4 159.1C125.8 161.1 127.4 164.4 127.1 173.1C126.9 178.8 121.6 184.1 111 189.2C106 191.5 102 194 102 194.6C102 195.2 103.9 196.6 106.3 197.8C112.8 201.2 118 205.1 121.3 209.2C123.8 212.3 124.2 213.7 124.3 219.1C124.3 225.2 124.2 225.5 120.5 228.7C116.1 232.5 111.7 233 104.8 230.4C99.3 228.3 96 224.7 96 220.9C96 215.7 97.6 214 102.4 214C107.7 214 109.4 215.7 108.5 220C107.8 223 108 223.1 110.5 222.8C116.6 222.1 114.9 213.7 107.7 208.5C101.5 204 86.8 197.1 80 195.6C78.6 195.2 76.6 194.3 75.5 193.5C73.8 192.1 73.7 191.8 75 191C75.8 190.5 78.3 190 80.4 190C86.2 190 98.7 186.2 108 181.6C115.2 178.1 119.3 170.1 115.5 167C113.3 165.2 111.2 166.4 111.7 169.3C112.4 172.7 109.7 175 104.9 175C101.7 175 100.8 174.5 99.9 172.6C98.5 169.5 99.5 163.8 101.8 161.8C105.8 158.3 114.7 157 120.4 159.1ZM249.1 159.1C251 159.8 253.3 161 254.2 161.8C256.5 163.7 257.5 169.5 256.1 172.6C255.2 174.5 254.3 175 251.1 175C246.3 175 243.6 172.7 244.3 169.3C244.8 166.4 242.7 165.2 240.5 167C236.9 170 240.7 177.9 247.6 181.5C253 184.4 270.8 190 274.5 190C278.4 190 282 191 282 192.1C282 193.3 276.5 196 274 196C272.8 196 270.6 196.6 269.2 197.4C267.7 198.1 262.7 200.6 258 202.9C245.4 209 241.2 213.6 242.2 220.1C242.4 221.9 243.2 222.6 245.3 222.8C248 223.1 248.1 223 247.5 219.8C246.7 215.6 248.3 214 253.5 213.8C258 213.6 260 215.8 260 220.6C260 226.6 252 232 243.1 232C238.5 232 232.2 226.9 231.9 223C231.4 214.4 232 212.3 236.1 207.7C238.3 205.1 241.2 202.5 242.5 201.8C243.8 201.1 246.9 199.4 249.4 198.1C251.9 196.7 254 195.2 254 194.6C254 194 250 191.5 245 189.2C231.7 182.8 228.1 178 228.9 167.6C229.6 159.8 239.2 155.8 249.1 159.1ZM62.5 168C63.8 169.4 64.5 171.4 64.5 174.1C64.5 177.5 63.9 178.7 61.5 180.6C59.8 181.9 57.7 183 56.7 183C53.4 183 49.3 180.1 48 177C46.9 174.3 46.9 173.3 48.3 170.4C49.3 168.5 51 166.5 52.2 166C55.3 164.7 60.1 165.6 62.5 168ZM303.4 166C304.9 166.5 306.8 168.5 307.7 170.4C309.1 173.3 309.1 174.3 308 177C306.7 180.1 302.6 183 299.5 183C296.6 183 292.2 179.1 291.5 176C290.7 172.3 292.7 168 296 166.3C299 164.8 300.1 164.7 303.4 166ZM91 172.5C93.3 175 93.3 175.2 91.8 177.8C89.8 181.1 86.5 181.8 83.9 179.4C81.6 177.3 81.5 174.3 83.7 171.8C85.9 169.3 88.2 169.5 91 172.5ZM272.2 171.7C274.5 173.8 274.5 177.2 272.1 179.4C269.5 181.8 266.2 181.1 264.2 177.8C262.7 175.2 262.7 175 265 172.5C267.7 169.6 269.6 169.4 272.2 171.7ZM143 181.5C143 182.9 144.4 186.9 146.1 190.5C149.4 197.5 149.3 198 144.5 204.6C143.2 206.3 142 208.9 141.8 210.5C141.7 212.1 141 213.5 140.4 213.7C139.9 213.9 135.9 210.7 131.7 206.5C127.5 202.4 123.5 199 122.8 199C121.2 199 118 195.9 118 194.3C118 193.6 118.7 193 119.5 193C122 193 128.3 189.3 134.5 184.1C141.3 178.5 143 178 143 181.5ZM221.6 184.5C225.2 187.5 228.7 190 229.4 190C230.2 190 231.3 190.7 232 191.5C232.7 192.3 234.1 193 235.1 193C236.1 193 237.2 193.5 237.5 194.1C238.3 195.3 235.2 199 233.3 199C232.6 199 228.5 202.4 224.3 206.5C220.1 210.7 216.1 213.9 215.6 213.7C215 213.5 214.4 212.1 214.2 210.7C214 209.2 212.3 205.7 210.4 202.9C206.6 197.2 206.6 195.6 210.6 188.6C211.9 186.3 213 183.3 213 181.7C213 180.2 213.5 179 214.1 179C214.7 179 218.1 181.5 221.6 184.5ZM163.1 192.9C166.5 196.4 166.7 197.9 164 201.3C161.3 204.8 158.4 205.5 155.5 203.6C151.5 201 150.6 198.3 152.6 195.2C156.4 189.3 158.9 188.8 163.1 192.9ZM202.1 193.2C203.7 195 205 197.1 205 197.8C205 199.7 199.5 205 197.5 205C196.6 205 194.5 203.7 192.9 202.1C191.3 200.5 190 198.4 190 197.5C190 195.4 195.4 190 197.5 190C198.4 190 200.4 191.5 202.1 193.2ZM57.5 200.5C63 203.2 64.3 208.3 61 213.7C59.2 216.7 58.6 217 54.3 217C50.3 216.9 49.2 216.5 47.6 214.3C45.7 211.7 45.1 206.3 46.5 204C47.1 203 53 199 53.8 199C54 199 55.7 199.7 57.5 200.5ZM308.6 203.1C311 205.8 310.9 212 308.4 214.8C307 216.5 305.4 217 301.8 217C297.4 217 296.8 216.7 295 213.7C292.7 210 292.5 208.1 294.1 204.6C296.7 199.1 304.2 198.3 308.6 203.1ZM88.7 207.2C91.7 210 91.6 212.4 88.4 214.9C85 217.6 84.6 217.5 81.5 214.5C78.4 211.3 78.4 210.3 81.2 207.3C83.9 204.4 85.7 204.4 88.7 207.2ZM274.9 207.6C277.5 210.9 277.5 211.1 274.7 214.3C271.9 217.6 270.3 217.7 267.3 214.8C264.4 212.1 264.4 210.3 267.2 207.3C270 204.3 272.4 204.4 274.9 207.6ZM76.1 213.2C79.9 221.6 87.8 230.6 94.5 234.1C99.7 236.8 100 239 95.5 240.4C93.8 240.8 90.9 241.8 89 242.5C83.8 244.4 72.5 247 69.8 247C67.2 247 53.9 243.8 49.8 242.1C46.5 240.9 46.1 238.4 49 237.5C51.7 236.6 65.6 223.1 67 219.9C68 217.7 69.4 215.3 71.3 212.2C72.6 210.3 75 210.8 76.1 213.2ZM287 216.5C289.6 221.8 303.7 236.4 307 237.5C309.9 238.4 309.5 240.9 306.3 242.1C302.1 243.8 288.8 247 286.2 247C283.5 247 272.2 244.4 267 242.5C265.1 241.8 262.2 240.8 260.5 240.4C255.9 239 256.4 236.8 261.9 233.7C267.7 230.5 276.1 221.4 279.1 215.2C281.8 209.7 283.6 210 287 216.5ZM180.4 238.2C180.7 239.5 181 241.7 181 243.3C181 245.9 181.9 249.8 185.7 264.5C187.1 269.9 189.3 276.6 193.6 288.9C196.1 295.8 192 297.5 188.5 291C185.3 285.1 181.5 273.5 180.5 266.7C179.6 260.8 176.7 262.4 175.5 269.5C174.8 273.6 171.6 283.7 170.1 286.8C167.3 292.6 165.9 294.5 164.5 294.8C161.4 295.5 161.1 293.5 163.4 287.5C169.1 272.4 172.3 261 175 245.6C176.6 236.6 179 233.3 180.4 238.2ZM182.4 287.6C185.8 290.9 183.2 298 178.7 298C176 298 172 294.2 172 291.7C172 286.8 179 284.1 182.4 287.6ZM197.2 303.9C197.5 304 198.3 305.9 198.8 308.2C199.3 310.6 200 313.2 200.4 314C201.9 317.9 199.8 318.4 182.3 318.8C173.1 319 163.5 318.7 161 318.2C156.6 317.4 156.5 317.3 156.7 313.8C156.8 311.7 157.5 308.6 158.3 306.8L159.7 303.5L178.1 303.7C188.2 303.8 196.8 303.9 197.2 303.9Z" fill="#000000"/>
<path d="M168.5 24.4C163.5 25.8 157.9 28.8 156.3 30.9C154.8 33 154.9 33 161.1 33.6C166.5 34.1 171.2 36.3 174.5 40C176.7 42.4 179.3 42.6 181.1 40.4C183.9 37 190.1 34 195.5 33.4C201.4 32.7 202 32.1 199.3 29.9C191.9 23.9 178.4 21.5 168.5 24.4Z" fill="#000000"/>
<path d="M176.8 134.1C175.8 134.6 175 135.7 175 136.4C175 137.2 174.3 138 173.5 138.4C171.2 139.2 171.7 141.6 174.5 143.4C177.7 145.5 179.2 145.4 182.4 142.9L185 140.8L182.5 137.8C181.1 136.2 180 134.4 180 133.9C180 132.7 179 132.8 176.8 134.1Z" fill="#000000"/>
<path d="M27.4 170.7C22.2 177.8 21.5 180 21.5 191.5C21.5 201.5 21.7 202.9 24.1 207C27.5 212.9 29.2 212.8 30.3 206.5C31.1 201.8 35.3 194.8 38.7 192.7C40.6 191.5 40.3 190.2 37.2 186.1C33.6 181.5 32.8 179.7 32.1 173.6C31.4 167.7 30.1 167 27.4 170.7Z" fill="#000000"/>
<path d="M324.7 168.7C324.3 169 324 170.8 324 172.5C324 177 322.2 181.9 318.8 186.1C317.3 188.1 316 190.2 316 190.6C316 191.1 317.9 193.3 320.2 195.7C323.5 199.1 324.6 201.1 325.5 205.7C326.9 212.7 328.5 213.1 331.6 207.2C337.3 196.4 336.1 180.8 328.6 170.7C326.6 167.9 325.8 167.5 324.7 168.7Z" fill="#000000"/>
<path d="M136 191C136 191.6 134.9 192.6 133.5 193.2C130.1 194.7 130.4 197 134.4 200.2L137.8 202.9L139.9 200.6C142.4 198 142.6 195.3 140.4 192.2C138.9 190 136 189.2 136 191Z" fill="#000000"/>
<path d="M215.6 191.6C213.4 193.8 213.6 198.2 216 200.8L218.1 203L221.5 200.3C225.6 197 225.9 194.7 222.5 193.2C221.1 192.6 220 191.6 220 191C220 189.5 217.3 189.8 215.6 191.6Z" fill="#000000"/>
</svg>
