<svg width="428" height="419" viewBox="0 0 428 419" fill="none" xmlns="http://www.w3.org/2000/svg">
<path d="M211.131 2.33662C208.901 4.72635 208.635 5.15119 203.484 15.135C200.829 20.2331 197.642 26.0215 195.571 29.4734C195.199 30.0575 194.668 31.0134 194.35 31.5976C194.031 32.1817 193.394 33.2969 192.863 34.0935C191.96 35.4743 188.03 41.7407 186.756 43.7587C185.163 46.3608 175.073 61.2834 172.046 65.5849C162.487 79.1267 160.044 82.4724 156.061 87.5705C153.884 90.3319 151.069 93.9431 149.741 95.5893C137.209 111.627 127.384 121.398 108.585 136.533C102.531 141.419 80.6515 158.041 76.9873 160.484C76.2438 161.015 74.7038 162.077 73.5354 162.927C72.3671 163.776 69.765 165.635 67.6939 167.016C65.6759 168.45 62.224 170.786 60.0998 172.273C57.9225 173.76 55.7983 175.194 55.3204 175.513C54.8424 175.778 53.5679 176.681 52.5058 177.478C51.4437 178.327 50.4347 178.965 50.2754 178.965C50.116 178.965 48.4698 179.974 46.6111 181.195C38.9109 186.346 22.7669 195.905 16.4473 199.091C13.3672 200.631 9.43746 202.703 7.68499 203.712C5.93252 204.667 4.12694 205.623 3.7021 205.836C3.27726 206.048 2.26826 206.739 1.47168 207.323C-2.03326 209.872 -0.0152616 211.571 15.6508 219.537C18.8902 221.183 22.9262 223.36 24.6787 224.369C26.4311 225.378 28.3429 226.441 28.9271 226.759C29.5112 227.078 30.7326 227.768 31.5823 228.352C32.4851 228.936 33.6534 229.627 34.2376 229.945C35.459 230.53 36.0963 230.954 40.7695 234.035C42.6282 235.309 44.2214 236.318 44.3276 236.318C44.8055 236.318 68.8091 252.675 77.1466 258.622C83.0413 262.818 101.628 276.731 101.947 277.156C102.106 277.368 103.752 278.696 105.664 280.13C117.666 289.264 131.208 301.531 138.324 309.816C140.076 311.834 141.882 313.852 142.307 314.33C142.785 314.808 144.059 316.348 145.227 317.835C146.396 319.268 147.777 320.968 148.254 321.552C150.272 323.995 160.309 337.059 164.08 342.263C166.735 345.927 172.577 354.105 174.17 356.336C176.135 359.15 186.065 374.02 186.65 375.029C187.074 375.825 191.004 382.092 194.456 387.562C194.934 388.358 195.943 390.058 196.633 391.385C197.377 392.713 198.439 394.625 199.023 395.634C199.66 396.643 201.466 400.095 203.112 403.334C208.635 414.114 212.034 419 213.892 419C214.37 419 215.857 417.513 217.185 415.707C219.946 411.937 219.84 412.149 223.77 404.396C225.416 401.157 227.594 397.121 228.603 395.368C229.612 393.616 230.674 391.704 230.992 391.12C231.258 390.536 231.842 389.58 232.161 388.996C232.532 388.465 233.435 387.031 234.179 385.809C234.869 384.641 235.772 383.207 236.144 382.623C236.515 382.039 236.94 381.189 237.153 380.764C237.365 380.339 237.949 379.384 238.48 378.64C238.958 377.897 242.463 372.639 246.234 366.957C254.465 354.477 255.155 353.521 267.635 336.793C278.097 322.773 278.893 321.711 286.753 312.577C293.656 304.505 303.322 295.052 310.491 289.317C315.854 285.016 326.422 276.519 327.538 275.51C329.025 274.288 343.522 263.508 349.948 258.888C357.276 253.63 368.747 245.665 370.553 244.549C371.031 244.231 372.305 243.381 373.367 242.531C374.429 241.735 375.438 241.098 375.598 241.098C375.757 241.098 377.403 240.089 379.262 238.814C381.121 237.54 382.979 236.371 383.404 236.159C383.829 235.946 386.006 234.619 388.184 233.132C390.361 231.698 392.645 230.211 393.229 229.945C393.813 229.627 395.034 228.936 395.884 228.352C396.787 227.768 397.955 227.078 398.539 226.759C399.123 226.441 401.035 225.378 402.788 224.369C404.54 223.36 408.629 221.183 411.816 219.537C418.985 215.926 421.693 214.386 424.933 212.261C429.5 209.234 428.756 208.332 416.595 202.065C407.939 197.604 404.328 195.64 399.601 192.878C397.265 191.497 394.981 190.117 394.45 189.851C393.972 189.532 391.848 188.258 389.777 186.93C387.706 185.603 385.582 184.275 385.104 184.009C384.626 183.691 382.767 182.523 381.015 181.354C379.262 180.186 377.616 179.124 377.297 178.965C377.032 178.805 375.014 177.478 372.889 176.044C370.712 174.557 368.429 173.017 367.738 172.592C366.464 171.795 360.835 167.866 353.4 162.661C347.771 158.678 323.82 140.676 323.13 139.932C322.864 139.56 321.165 138.233 319.412 136.905C317.66 135.578 315.536 133.878 314.633 133.135C299.498 120.336 295.674 116.725 288.399 108.281C279.159 97.5542 278.097 96.2266 272.361 88.6857C269.653 85.0214 267.104 81.6758 266.732 81.2509C266.36 80.8261 263.918 77.4805 261.315 73.8162C258.66 70.152 255.739 66.116 254.837 64.8414C252.288 61.2834 242.144 46.2015 242.144 45.936C242.144 45.7767 241.082 44.1304 239.755 42.1655C238.427 40.2537 237.365 38.6075 237.365 38.5013C237.365 38.395 236.675 37.2798 235.825 36.0053C234.975 34.7308 233.754 32.7659 233.117 31.5976C232.479 30.4293 231.523 28.7299 230.992 27.8802C229.558 25.5436 228.921 24.3753 224.726 16.4626C222.708 12.5328 220.637 8.60303 220.212 7.80645C218.937 5.36361 214.583 -1.1012e-05 213.892 -1.1012e-05C213.574 -1.1012e-05 212.299 1.06209 211.131 2.33662ZM216.388 27.8271C217.132 28.8361 217.982 30.3231 218.247 31.1196C220.106 37.0143 222.442 41.5283 226.425 46.9981C228.709 50.1844 235.825 58.6281 236.887 59.4778C237.046 59.6371 237.949 60.8054 238.852 62.08C241.029 65.107 241.135 67.4967 239.117 68.9305C234.338 72.2762 226.425 73.8162 213.733 73.8162C203.59 73.8162 197.536 73.0196 192.491 71.0547C188.986 69.674 186.384 67.656 186.384 66.3284C186.384 64.7883 190.367 59.3716 194.934 54.7514C196.899 52.7335 202.262 45.5111 204.28 42.2186C205.767 39.7227 208.688 33.3501 208.688 32.6066C208.688 32.1286 209.113 31.0134 209.591 30.1106C212.087 25.5967 214.158 24.9063 216.388 27.8271ZM182.72 75.9935C183.994 78.0115 182.454 83.0565 179.799 85.4994C178.631 86.5615 177.781 86.827 175.497 86.827C171.992 86.827 170.506 85.3931 170.452 81.9944C170.452 80.1888 170.771 79.4985 172.311 77.9053C173.373 76.8432 174.966 75.728 175.922 75.4625C178.153 74.7721 182.136 75.0907 182.72 75.9935ZM253.828 76.5246C256.908 78.8081 257.757 83.0034 255.739 85.818C255.155 86.6146 254.306 86.827 252.022 86.827C249.42 86.827 248.889 86.6146 247.296 85.0745C244.8 82.6317 243.684 78.2239 245.065 76.1528C245.915 74.8252 246.127 74.7721 249.101 75.0907C251.119 75.2501 252.819 75.8342 253.828 76.5246ZM202.316 79.6047C203.431 80.4013 203.643 81.0385 203.802 83.8531C204.015 87.9953 202.581 91.9782 197.589 101.325C196.155 104.033 191.535 108.016 188.508 109.184C184.26 110.831 178.471 112.052 174.913 112.052C169.55 112.052 161.265 109.397 159.46 107.166C157.123 104.352 156.114 101.378 156.114 97.5542C156.114 93.7307 156.167 93.5713 158.079 91.7127C159.831 89.9071 160.256 89.7478 163.071 89.7478C165.567 89.7478 166.257 89.9602 166.735 90.7568C167.532 92.2437 167.372 95.2707 166.416 97.6604C165.354 100.422 165.567 103.236 166.947 103.502C168.381 103.768 173.426 102.546 176.028 101.272C180.489 99.2005 181.445 98.5101 184.578 95.3238C188.136 91.6596 190.473 87.4111 191.11 83.2689C191.588 80.5075 192.757 79.2329 195.412 78.4895C197.43 77.9584 200.829 78.4895 202.316 79.6047ZM234.497 79.5516C235.347 80.1888 235.984 81.6227 236.621 84.4373C238.693 93.2527 245.915 100.156 255.846 102.812C261.634 104.352 262.537 103.502 261.05 97.7136C259.404 91.2878 259.988 89.7478 264.236 89.7478C268.113 89.7478 270.025 91.1285 271.087 94.6866C271.671 96.7577 271.724 97.8198 271.246 99.9971C270.609 103.077 269.122 106.21 267.741 107.379C264.82 109.928 257.864 112.052 252.553 112.052C245.915 112.052 237.312 109.237 233.86 105.945C229.027 101.325 223.08 89.0043 223.027 83.5876C223.027 81.4634 224.726 79.286 226.903 78.6488C229.081 77.9584 232.957 78.4364 234.497 79.5516ZM215.433 94.1024C216.548 95.3769 217.504 97.0763 219.044 100.634C221.115 105.414 227.594 111.893 238.693 120.23C255.952 133.188 257.067 135.949 242.941 131.011C236.675 128.833 223.08 126.921 213.892 126.921C203.909 126.921 191.96 128.621 184.791 131.011C179.002 132.922 175.763 133.506 175.019 132.763C174.276 131.966 178.631 127.877 186.118 122.301C189.039 120.124 192.279 117.681 193.288 116.938C196.155 114.707 202.369 108.866 204.758 106.051C206.936 103.555 207.52 102.546 209.75 97.6073C210.759 95.3238 212.937 92.9341 213.999 92.9341C214.158 92.9341 214.848 93.4651 215.433 94.1024ZM161.265 118.371C162.434 119.221 164.239 120.974 165.301 122.248C166.894 124.213 167.266 125.063 167.266 127.028C167.266 128.993 167.001 129.63 165.567 131.011C162.327 134.038 159.672 134.569 155.795 132.975C153.087 131.86 151.972 130.798 151.016 128.568C150.113 126.39 150.113 125.381 150.963 122.567C152.556 117.203 157.07 115.344 161.265 118.371ZM273.636 117.947C275.388 119.274 277.194 123.257 277.194 125.806C277.194 130.267 271.936 134.356 267.051 133.666C262.962 133.135 259.138 129.205 259.828 126.284C260.413 124.054 263.121 120.549 265.776 118.69C268.856 116.513 271.512 116.247 273.636 117.947ZM291.904 122.195C295.037 125.116 302.047 131.966 307.464 137.436C324.776 154.908 334.654 163.883 341.079 168.025C342.779 169.087 344.106 170.255 343.947 170.627C343.841 170.999 341.982 171.37 339.008 171.636C331.786 172.114 327.644 173.282 322.546 176.097C319.147 177.956 318.032 178.858 313.571 183.16C309.216 187.355 308.101 187.939 307.782 186.24C306.03 176.84 302.1 161.121 300.295 156.129C299.923 155.12 299.126 152.731 298.489 150.819C297.905 148.907 296.896 146.039 296.312 144.446C295.674 142.853 294.984 140.941 294.719 140.198C293.975 137.808 290.948 131.064 288.027 125.01C285.319 119.434 284.575 116.831 285.638 116.831C285.903 116.831 288.718 119.221 291.904 122.195ZM142.094 119.062C141.723 120.018 140.448 122.939 139.173 125.594C136.678 130.851 136.146 132.02 133.066 139.242C131.633 142.641 130.199 146.677 128.446 152.412C127.809 154.324 127.012 156.66 126.588 157.616C126.163 158.572 125.844 159.74 125.844 160.165C125.844 160.643 125.525 162.13 125.101 163.511C123.454 168.875 121.596 176.203 121.065 179.496C120.48 183.054 119.418 186.93 118.834 187.249C118.569 187.408 116.02 185.337 113.152 182.576C108.319 177.956 105.399 176.044 99.557 173.654C97.1673 172.645 90.9008 171.53 87.7676 171.53C82.3509 171.53 82.0323 170.468 86.7055 167.759C88.5111 166.644 91.4319 164.52 93.1844 162.98C103.593 153.58 109.328 148.217 120.321 137.277C137.368 120.336 140.554 117.362 141.723 117.362C142.625 117.362 142.625 117.522 142.094 119.062ZM224.354 133.613C226.691 134.091 229.558 134.781 230.727 135.206C231.948 135.631 233.17 135.949 233.541 135.949C233.86 135.949 236.037 136.799 238.268 137.861C247.774 142.322 254.89 153.315 254.89 163.564C254.89 167.228 253.562 171.37 251.81 173.07C249.314 175.566 245.065 176.309 240.711 174.929C235.878 173.442 233.01 171.37 230.674 167.653C229.187 165.423 228.815 160.909 229.93 159.581C231.842 157.298 237.843 156.342 240.817 157.776L242.41 158.572L242.251 162.927C242.038 167.122 242.091 167.281 243.366 167.759C247.88 169.512 248.729 164.042 244.8 158.147C241.507 153.155 237.365 150.235 230.567 148.004C227.328 146.995 225.894 146.889 213.733 146.889C201.625 146.889 200.138 146.995 197.005 148.004C191.217 149.916 189.783 150.659 186.49 153.686C180.808 158.997 178.046 166.591 181.392 167.812C183.198 168.503 183.516 168.503 184.525 167.494C185.216 166.803 185.269 165.954 185.003 162.821C184.685 159.05 184.685 158.997 186.172 157.988C189.411 155.864 196.208 157.298 197.855 160.431C198.598 161.865 198.598 162.449 198.014 164.573C195.837 172.645 184.685 178.062 177.622 174.504C169.656 170.521 171.674 152.837 181.073 143.384C183.994 140.463 191.96 135.949 194.137 135.949C194.562 135.949 195.359 135.737 195.89 135.418C197.483 134.569 204.44 133.188 208.954 132.816C214.53 132.338 219.15 132.604 224.354 133.613ZM173.904 140.782C174.117 141.1 173.639 142.216 172.842 143.278C171.621 145.03 167.107 151.881 165.301 154.802C164.292 156.448 161.69 161.971 160.469 164.892C159.513 167.334 158.875 169.565 157.123 176.415C156.273 180.027 155.477 180.451 153.83 178.327C153.14 177.371 151.494 175.513 150.326 174.185C140.979 164.095 137.633 155.386 139.811 147.048C141.404 141.1 143.528 140.463 163.389 140.304C170.187 140.251 173.692 140.41 173.904 140.782ZM283.673 141.897C286.647 143.543 287.921 146.145 288.24 151.19C288.665 158.36 285.797 164.148 276.716 174.716C272.733 179.389 271.458 180.451 271.14 179.389C271.034 179.018 270.556 177.159 270.078 175.247C268.06 167.334 265.564 160.803 262.749 155.97C261.953 154.589 261.262 153.315 261.262 153.208C261.262 152.837 257.97 148.057 255.527 144.818C251.81 139.879 251.491 139.985 267.582 140.304C280.858 140.569 281.442 140.676 283.673 141.897ZM217.291 154.642C221.646 155.917 224.514 161.068 224.567 167.6C224.62 170.946 223.558 174.291 221.964 175.831C219.681 178.009 218.3 178.433 213.627 178.433C209.432 178.38 208.741 178.274 206.829 176.947C203.271 174.451 202.103 169.618 203.537 163.033C204.652 158.147 206.192 156.076 209.644 154.802C212.14 153.899 214.636 153.846 217.291 154.642ZM134.394 170.574C134.925 171.264 135.35 171.955 135.403 172.167C135.403 172.379 136.093 173.548 136.89 174.822C140.66 180.611 141.935 185.018 141.669 191.816C141.51 196.649 141.298 197.658 139.917 200.472C138.855 202.543 137.527 204.189 135.934 205.358C132.323 208.013 131.155 209.075 131.155 209.659C131.155 209.925 132.801 211.359 134.819 212.846C139.97 216.563 141.404 219.643 141.669 227.184C141.882 232.707 141.351 235.362 139.227 240.035C137.687 243.328 133.173 250.125 132.695 249.807C132.429 249.648 132.217 244.549 132.217 238.442C132.217 226.334 131.951 224.901 129.137 222.776C127.915 221.874 126.906 221.714 122.923 221.767C118.516 221.767 117.878 221.927 114.957 223.52C111.134 225.697 108.319 227.768 105.08 231.008C98.2294 237.699 95.521 239.664 94.4589 238.602C94.1934 238.336 93.7154 236.637 93.4499 234.937C92.6002 228.883 90.3698 225.325 82.1916 216.882C78.8991 213.483 76.1376 210.297 76.0314 209.712C75.9252 209.022 77.5183 207.004 81.1295 203.234C89.3077 194.896 92.494 190.382 93.1313 186.134C93.2906 185.231 93.5561 183.638 93.7154 182.523C94.2996 178.805 96.9017 179.974 104.549 187.355C110.975 193.568 113.524 195.268 119.206 197.073C124.038 198.667 128.606 197.392 130.995 193.887C132.164 192.135 132.217 191.657 132.217 180.77C132.217 168.928 132.376 168.184 134.394 170.574ZM294.984 180.345C294.984 191.497 295.356 193.409 297.746 195.533C298.701 196.383 303.162 198.082 304.49 198.082C305.552 198.082 311.394 196.171 312.827 195.321C315.642 193.728 320.74 189.639 325.307 185.337C328.016 182.788 330.671 180.558 331.308 180.398C333.007 179.974 333.857 181.195 334.229 184.859C334.813 189.957 337.043 193.462 345.062 201.8C348.886 205.889 352.072 209.341 352.072 209.553C352.072 209.766 349.205 212.846 345.753 216.404C337.309 225.06 334.866 228.883 334.282 234.035C334.07 235.734 333.592 237.593 333.167 238.177C332.423 239.186 332.37 239.186 330.618 238.124C329.609 237.593 326.475 234.937 323.555 232.229C317.129 226.228 316.492 225.75 312.509 223.573C309.641 222.033 308.845 221.82 304.809 221.767C299.179 221.714 297.374 222.617 295.94 226.175C295.09 228.299 294.984 229.945 295.143 238.814C295.303 248.373 295.25 249.063 294.347 249.063C293.338 249.01 289.302 242.797 287.656 238.708C285.425 233.132 284.894 226.334 286.381 221.714C287.762 217.2 288.877 215.607 292.647 212.793C294.665 211.306 296.312 209.766 296.312 209.394C296.312 209.022 295.037 207.907 293.55 206.898C288.505 203.658 286.54 200.26 285.478 192.931C285.107 190.435 286.275 183.638 287.656 180.292C289.089 176.787 293.763 169.352 294.4 169.565C294.772 169.724 294.984 173.176 294.984 180.345ZM78.2087 180.186C81.8198 181.089 84.422 183.744 84.422 186.505C84.422 190.223 79.4301 195.905 75.5534 196.649C73.6416 197.02 70.9333 196.383 69.8181 195.268C68.6498 194.046 66.8973 189.267 66.8973 187.143C66.8973 184.275 68.6498 181.354 70.9864 180.398C73.4292 179.389 74.9162 179.336 78.2087 180.186ZM355.843 180.08C358.976 181.142 359.985 182.894 360.038 187.355C360.038 191.497 359.188 193.887 357.117 195.427C354.196 197.658 351.01 197.18 347.346 193.993C340.973 188.417 341.77 182.363 349.151 180.186C351.966 179.389 353.665 179.389 355.843 180.08ZM190.314 183.585C191.535 185.284 191.004 187.302 188.986 188.47C187.127 189.532 185.003 188.842 183.994 186.93C183.251 185.443 183.251 185.178 184.047 183.744C185.481 181.354 188.561 181.248 190.314 183.585ZM242.888 183.16C243.472 183.797 243.738 184.806 243.631 185.921C243.313 189.426 238.746 190.117 237.099 186.93C236.356 185.496 236.356 185.178 237.099 183.744C237.79 182.416 238.215 182.151 239.967 182.151C241.295 182.151 242.304 182.523 242.888 183.16ZM158.822 185.921C159.407 186.93 158.451 188.364 156.911 188.736C153.884 189.479 148.679 187.249 150.113 185.815C151.6 184.328 157.866 184.381 158.822 185.921ZM259.669 189.108C263.015 193.568 266.626 197.551 272.202 203.021C275.548 206.261 278.256 209.181 278.256 209.5C278.256 209.766 274.857 213.536 270.662 217.731C266.467 221.98 261.475 227.45 259.616 229.892C257.757 232.388 255.952 234.406 255.686 234.406C254.252 234.513 253.668 228.883 253.456 213.005C253.19 197.233 253.668 188.842 254.943 185.496L255.474 184.009L256.908 185.656C257.704 186.559 258.926 188.152 259.669 189.108ZM275.919 185.072C276.928 185.284 277.247 185.656 277.088 186.559C276.769 188.895 269.706 189.798 268.856 187.621C268.432 186.452 269.334 185.178 270.874 184.753C272.096 184.434 272.945 184.487 275.919 185.072ZM172.63 185.656C173.639 186.877 174.223 206.207 173.692 221.077C173.373 231.751 173.267 232.707 172.205 233.716L171.143 234.831L169.55 232.229C168.647 230.795 167.585 229.255 167.107 228.83C166.682 228.352 165.142 226.6 163.708 224.847C162.221 223.148 158.398 219.112 155.158 215.926C151.866 212.686 149.21 209.872 149.21 209.606C149.21 209.341 152.875 205.411 157.335 200.791C164.77 193.144 170.452 186.452 170.452 185.284C170.452 184.487 171.886 184.753 172.63 185.656ZM218.247 186.612C222.655 187.514 227.487 189.745 230.196 192.188C232.373 194.099 235.772 198.773 235.772 199.835C235.772 200.207 236.144 200.95 236.568 201.481C237.63 202.915 237.684 215.607 236.675 217.625C236.25 218.422 235.453 220.015 234.922 221.13C232.692 225.803 226.638 230.158 219.362 232.282C213.892 233.928 208.423 233.132 201.838 229.786C190.526 224.051 186.437 210.828 192.172 198.613C193.606 195.533 199.076 190.435 203.006 188.63C204.971 187.674 207.201 186.93 208.051 186.93C208.847 186.93 209.856 186.665 210.281 186.399C211.397 185.656 214.211 185.762 218.247 186.612ZM59.3564 209.181C59.4095 219.749 59.3032 226.6 58.9846 226.918C58.6129 227.29 55.4266 225.644 50.0629 222.405C38.9109 215.766 34.7686 214.067 26.2718 212.686C23.7228 212.261 22.2889 211.093 22.2889 209.447C22.2889 207.854 25.2628 206.048 27.9181 206.048C32.2196 206.048 39.6012 202.968 49.107 197.18C51.9216 195.48 54.6831 193.834 55.2673 193.515C55.8514 193.144 56.648 192.613 56.9666 192.294C57.2852 191.975 57.9225 191.763 58.4005 191.816C59.0908 191.975 59.197 194.312 59.3564 209.181ZM370.606 192.4C371.774 193.409 384.254 200.791 386.856 202.012C392.804 204.774 396.84 206.048 399.92 206.048C401.779 206.048 402.681 206.367 403.797 207.376C404.54 208.066 405.177 208.969 405.177 209.341C405.177 210.934 403.531 212.315 401.354 212.686C393.016 213.908 388.609 215.713 377.191 222.564C372.465 225.378 368.429 227.556 368.269 227.396C368.11 227.237 368.004 219.165 368.004 209.394C368.004 193.25 368.057 191.71 368.907 191.71C369.384 191.71 370.181 192.028 370.606 192.4ZM77.4121 222.989C81.1826 224.954 84.422 229.308 84.422 232.441C84.3689 234.99 82.7757 236.955 79.6425 238.389C73.323 241.257 66.8973 238.071 66.8973 232.07C66.8973 229.202 68.5436 225.219 70.5084 223.52C72.5795 221.714 74.5975 221.555 77.4121 222.989ZM356.48 222.989C358.923 224.582 360.038 227.29 360.038 231.645C359.985 235.734 359.56 236.743 356.852 238.602C353.718 240.779 345.646 238.708 343.894 235.309C343.416 234.459 343.044 233.079 343.044 232.335C343.044 230.423 344.744 227.343 346.868 225.378C350.479 221.98 353.718 221.183 356.48 222.989ZM158.451 231.114C159.247 232.176 159.194 232.388 158.132 233.504C156.804 234.884 153.565 235.15 151.335 234.035C149.582 233.132 149.635 232.282 151.6 231.008C153.83 229.521 157.389 229.574 158.451 231.114ZM190.048 231.326C190.686 232.123 191.163 233.185 191.163 233.663C191.163 234.778 188.296 237.38 187.074 237.38C186.065 237.38 183.198 234.513 183.198 233.504C183.198 231.857 185.322 229.945 187.181 229.945C188.455 229.945 189.252 230.317 190.048 231.326ZM242.888 230.954C244.269 232.495 243.844 235.628 242.091 236.69C240.923 237.433 240.392 237.433 239.064 236.902C236.303 235.734 235.878 233.344 238.055 230.583C238.852 229.574 241.826 229.786 242.888 230.954ZM275.654 230.848C278.681 232.654 276.928 234.725 272.467 234.725C269.759 234.725 268.272 233.185 269.122 231.273C269.653 230.158 270.131 229.945 271.936 229.945C273.105 229.945 274.804 230.37 275.654 230.848ZM120.002 234.3C120.374 235.84 120.852 238.177 121.065 239.504C121.596 242.85 123.454 250.232 125.101 255.489C125.525 256.87 125.844 258.357 125.844 258.835C125.844 259.26 126.163 260.428 126.588 261.384C127.331 263.189 129.827 270.359 130.624 273.226C131.473 276.147 132.801 279.599 133.332 280.13C133.597 280.395 133.81 280.926 133.81 281.298C133.81 282.042 135.562 285.918 139.386 293.937C142.413 300.151 142.785 301.638 141.351 301.638C140.767 301.638 140.182 301.478 140.076 301.213C140.023 301 138.005 299.035 135.669 296.911C133.332 294.734 124.516 286.131 116.02 277.74C107.576 269.403 98.8135 261.012 96.6362 259.1C92.1223 255.17 86.2807 250.657 85.6965 250.657C85.0062 250.657 83.3599 248.957 83.3599 248.214C83.3599 247.736 84.9531 247.47 88.8297 247.311C99.2384 246.833 106.142 243.594 114.692 235.097C116.604 233.185 118.409 231.645 118.728 231.592C119.047 231.592 119.578 232.813 120.002 234.3ZM312.934 235.256C322.28 244.071 328.228 246.833 338.69 247.311C342.035 247.47 344.106 247.789 344.106 248.161C344.106 248.851 342.513 250.657 341.876 250.657C341.026 250.657 337.628 253.206 331.202 258.888C325.095 264.198 319.572 269.456 305.393 283.635C283.991 304.983 282.292 305.992 288.027 294.097C291.054 287.724 294.028 280.98 294.719 278.802C294.984 278.059 295.674 276.147 296.312 274.554C296.896 272.961 297.905 270.093 298.489 268.181C299.126 266.269 299.923 263.88 300.295 262.871C301.622 259.1 303.906 250.497 306.614 238.708C307.092 236.637 307.464 234.353 307.464 233.61C307.464 232.229 307.836 231.539 308.579 231.539C308.791 231.539 310.756 233.238 312.934 235.256ZM281.283 249.754C288.983 259.684 290.629 270.996 285.213 276.2C283.195 278.112 276.397 279.015 263.652 279.015C254.518 279.068 253.562 278.962 253.403 278.165C253.297 277.634 254.624 275.404 256.377 273.12C258.076 270.836 259.669 268.606 259.828 268.181C260.041 267.756 260.678 266.641 261.262 265.792C264.661 260.481 267.741 252.781 270.078 243.753C270.556 241.841 271.034 239.929 271.193 239.504C271.458 238.655 276.981 244.231 281.283 249.754ZM156.964 242.16C157.335 243.487 158.026 246.089 158.504 248.001C160.734 256.498 164.929 264.676 172.895 275.881L174.754 278.484L173.533 278.962C171.939 279.599 151.494 278.908 147.192 278.112C142.678 277.209 140.607 275.51 139.758 271.899C137.687 262.924 141.032 254.746 151.281 243.753C153.034 241.841 154.468 240.089 154.521 239.876C154.521 239.611 154.946 239.504 155.424 239.611C156.008 239.717 156.592 240.673 156.964 242.16ZM220 242.319C223.451 244.018 224.195 245.293 224.514 249.86C224.779 254.161 223.664 258.782 221.752 261.437C219.309 264.783 213.361 265.951 208.901 263.88C206.086 262.605 204.44 260.215 203.537 255.967C201.413 246.036 204.546 241.31 213.468 241.151C216.654 241.098 217.982 241.363 220 242.319ZM190.739 245.612C194.35 247.63 197.271 251.241 198.067 254.639C198.811 257.826 198.333 258.994 195.571 260.8C193.606 262.127 187.712 262.18 185.906 260.959C184.738 260.109 184.685 259.844 185.003 256.392C185.375 252.303 184.844 250.657 183.091 250.657C179.64 250.657 179.109 254.48 181.87 259.419C184.578 264.305 189.517 268.5 194.615 270.252C203.112 273.226 225.204 273.173 233.117 270.146C241.985 266.854 249.685 256.498 246.711 251.984C245.702 250.497 243.684 250.232 242.675 251.453C242.198 252.037 242.144 253.365 242.41 256.179C242.729 259.897 242.675 260.162 241.56 260.959C240.711 261.543 239.171 261.809 236.834 261.809C234.019 261.809 233.01 261.543 231.364 260.481C229.505 259.206 229.399 258.994 229.399 256.179C229.399 251.931 231.895 248.373 237.099 245.346C238.905 244.231 239.967 244.071 244.375 244.071C249.367 244.018 249.526 244.071 251.172 245.612C257.864 252.037 255.155 267.066 245.543 276.359C242.622 279.227 235.028 282.998 229.93 284.06C228.921 284.325 227.116 284.75 225.947 285.069C224.779 285.387 221.433 285.918 218.513 286.237C214.105 286.768 212.193 286.715 207.361 286.025C200.935 285.122 197.642 284.378 194.987 283.263C194.031 282.838 192.969 282.52 192.65 282.52C191.535 282.52 186.543 279.917 183.835 277.899C173.745 270.305 169.125 253.046 175.444 246.355C177.675 244.018 178.684 243.7 183.729 243.965C187.393 244.125 188.721 244.443 190.739 245.612ZM161.531 285.494C162.805 285.706 164.186 286.503 165.407 287.724C167.001 289.37 167.266 289.954 167.266 292.185C167.266 294.575 167.107 294.893 163.974 298.079C160.469 301.638 158.663 302.434 155.636 301.85C153.618 301.425 152.131 299.832 151.122 296.858C150.06 293.884 150.06 292.716 151.016 290.379C152.609 286.609 156.698 284.697 161.531 285.494ZM273.317 286.821C275.441 288.149 277.194 291.07 277.194 293.353C277.194 295.424 275.494 299.46 274.167 300.682C271.405 303.178 267.263 302.222 263.599 298.345C260.625 295.159 259.404 292.716 259.882 290.804C260.306 288.998 263.705 285.812 265.405 285.547C267.794 285.122 271.512 285.759 273.317 286.821ZM181.392 287.087C185.853 288.733 190.208 289.795 195.146 290.432C197.217 290.698 200.404 291.176 202.316 291.494C206.776 292.238 220.69 292.238 225.151 291.494C227.063 291.176 230.302 290.698 232.32 290.432C237.259 289.795 241.613 288.733 246.074 287.087C249.738 285.706 252.447 285.334 252.978 286.131C253.456 286.927 248.039 291.707 239.224 298.345C226.638 307.798 220.318 314.33 218.406 319.799C217.982 321.074 217.026 322.88 216.335 323.782C214.052 326.756 211.768 325.853 209.538 321.021C207.095 315.71 206.086 314.17 203.059 311.037C197.589 305.461 195.412 303.656 187.446 297.708C179.321 291.601 174.701 287.512 174.701 286.396C174.701 285.281 177.409 285.6 181.392 287.087ZM180.277 307.692C184.95 308.382 185.959 308.647 190.367 310.719C196.315 313.427 203.856 326.916 203.909 334.881C203.909 338.333 203.484 339.077 200.563 340.298C196.527 341.997 191.217 339.714 191.163 336.209C191.163 333.501 189.199 329.146 186.65 326.013C183.835 322.561 178.206 318.313 174.86 317.144C171.939 316.135 167.691 315.392 166.629 315.763C165.407 316.135 165.354 318.844 166.47 321.446C166.894 322.508 167.266 324.42 167.266 325.747C167.266 327.606 167.001 328.243 165.938 328.934C164.292 329.996 162.965 329.996 160.469 328.934C157.123 327.553 156.167 325.853 156.114 321.446C156.114 317.091 157.282 314.117 160.044 311.568C162.327 309.444 164.77 308.488 169.656 307.745C175.179 306.895 174.754 306.895 180.277 307.692ZM256.536 307.532C265.829 308.647 269.706 311.728 271.299 319.109C272.414 324.367 270.396 328.137 265.882 329.358C263.599 329.943 263.28 329.889 261.953 328.88C260.678 327.978 260.466 327.447 260.519 325.482C260.519 324.207 260.891 321.764 261.262 320.065C262.218 315.87 261.581 315.179 257.492 315.923C251.969 316.879 247.083 319.534 242.357 324.26C239.064 327.5 237.79 329.836 236.568 334.988C235.666 338.599 235.453 338.97 233.594 339.926C231.152 341.148 229.134 341.201 226.585 340.139C224.354 339.236 223.027 337.537 223.027 335.625C223.027 331.217 227.7 320.543 232.054 315.073C234.497 311.993 235.559 311.25 240.817 309.072C242.091 308.488 247.243 307.532 251.491 307.001C251.81 307.001 254.093 307.214 256.536 307.532ZM179.587 333.501C181.711 335.253 183.357 338.917 183.091 341.201C182.985 342.051 182.348 343.166 181.498 343.75C180.118 344.759 180.064 344.759 177.091 343.803C172.895 342.529 170.452 339.979 170.452 337.006C170.452 332.12 175.551 330.155 179.587 333.501ZM255.208 332.863C257.439 334.722 257.279 339.555 254.943 341.679C254.412 342.157 252.606 343.06 250.96 343.644C248.358 344.547 247.72 344.6 246.552 344.015C244.322 342.9 244.003 341.944 244.8 338.599C245.756 334.51 248.517 331.907 251.863 331.907C253.19 331.961 254.518 332.332 255.208 332.863ZM225.416 345.768C235.135 347.042 240.551 349.645 240.551 352.99C240.551 355.008 238.958 357.292 233.276 363.611C225.841 371.896 221.487 378.587 219.044 385.65C215.539 395.634 211.662 395.368 208.157 384.96C205.98 378.534 202.847 373.754 193.978 363.399C190.686 359.522 187.977 356.177 187.977 355.911C187.977 355.645 187.605 355.114 187.181 354.743C185.428 353.309 186.596 350.919 189.942 349.06C192.491 347.627 197.536 346.352 202.847 345.715C205.927 345.396 208.794 345.024 209.219 344.918C210.6 344.547 220.371 345.078 225.416 345.768Z" fill="#000000"/>
<path d="M146.927 147.473C146.289 148.057 146.502 152.837 147.298 154.908C147.67 156.023 148.414 158.307 148.945 160.006C149.476 161.705 150.166 163.245 150.432 163.405C151.228 163.883 152.29 162.396 153.405 158.944C154.733 154.961 154.786 153.421 153.671 151.031C152.45 148.482 148.148 146.199 146.927 147.473Z" fill="#000000"/>
<path d="M276.079 148.429C272.786 150.606 272.414 154.961 274.963 161.281C275.441 162.555 276.132 163.564 276.45 163.564C277.566 163.564 280.061 156.501 280.646 151.722C281.23 147.048 279.796 145.986 276.079 148.429Z" fill="#000000"/>
<path d="M96.7953 204.03C93.1311 208.119 94.0338 214.067 98.6009 215.979C101.044 216.988 104.708 216.297 109.859 213.855C113.523 212.155 115.223 210.775 115.223 209.5C115.223 208.385 113.258 206.739 110.496 205.464C109.169 204.88 107.363 204.03 106.567 203.658C105.664 203.18 103.54 202.862 101.469 202.862C98.4416 202.862 97.6981 203.021 96.7953 204.03Z" fill="#000000"/>
<path d="M320.74 203.658C319.996 204.083 318.456 204.827 317.288 205.358C311.712 207.96 310.915 209.606 314.261 211.943C318.881 215.182 325.413 217.147 328.44 216.138C333.007 214.651 334.494 208.703 331.308 204.827C329.715 202.862 329.661 202.862 325.891 202.915C323.767 202.915 321.483 203.287 320.74 203.658Z" fill="#000000"/>
<path d="M210.547 193.25C207.308 193.94 204.865 195.427 202.21 198.454C196.421 204.986 196.687 215.342 202.847 221.502C205.396 224.051 206.83 224.847 210.335 225.644C213.149 226.334 214.158 226.281 218.778 225.378C222.177 224.741 226.213 221.396 228.125 217.625C229.24 215.448 229.399 214.386 229.399 209.5C229.399 204.986 229.187 203.499 228.39 201.906C227.063 199.357 223.399 195.64 220.903 194.365C218.619 193.197 213.574 192.666 210.547 193.25Z" fill="#000000"/>
<path d="M274.964 257.72C273.317 262.021 272.892 264.889 273.53 267.119C274.432 270.093 277.937 272.323 280.062 271.208C280.911 270.783 281.018 270.359 280.646 267.491C280.115 262.658 277.566 255.436 276.45 255.436C276.132 255.436 275.495 256.445 274.964 257.72Z" fill="#000000"/>
<path d="M149.476 257.401C148.998 258.463 148.52 259.95 148.36 260.693C148.201 261.437 147.67 263.03 147.245 264.251C146.82 265.42 146.555 267.438 146.661 268.765C146.82 270.996 146.874 271.102 148.679 271.261C150.166 271.368 150.91 271.102 152.237 269.774C153.246 268.819 154.096 267.278 154.308 266.216C154.839 263.296 152.29 255.436 150.803 255.436C150.538 255.436 149.901 256.339 149.476 257.401Z" fill="#000000"/>
</svg>
