<?xml version="1.0" standalone="no"?>
<!DOCTYPE svg PUBLIC "-//W3C//DTD SVG 20010904//EN"
 "http://www.w3.org/TR/2001/REC-SVG-20010904/DTD/svg10.dtd">
<svg version="1.0" xmlns="http://www.w3.org/2000/svg"
 width="360.000000pt" height="393.000000pt" viewBox="0 0 360.000000 393.000000"
 preserveAspectRatio="xMidYMid meet">
<metadata>
Created by potrace 1.10, written by Peter Selinger 2001-2011
</metadata>
<g transform="translate(0.000000,354.000000) scale(0.100000,-0.100000)"
fill="#000000" stroke="none">
<path d="M925 3130 c-122 -21 -158 -32 -245 -73 -150 -70 -308 -223 -374 -362
-10 -22 -23 -47 -27 -57 -40 -83 -62 -312 -38 -403 6 -22 14 -56 18 -75 25
-108 199 -316 471 -564 36 -33 94 -87 130 -121 36 -33 130 -119 210 -190 174
-156 274 -256 349 -350 31 -38 61 -76 68 -82 10 -11 79 -110 123 -178 14 -21
71 -116 97 -160 6 -11 21 -40 33 -65 12 -25 26 -52 31 -60 5 -8 12 -22 15 -30
23 -65 48 -85 59 -48 8 29 100 212 126 253 10 17 22 37 26 45 4 8 25 41 48 75
23 33 57 83 76 110 19 28 36 52 40 55 3 3 31 39 64 80 63 81 222 242 324 330
35 30 76 66 91 80 14 14 95 88 180 164 286 258 491 479 542 586 37 79 48 140
48 280 0 156 -12 210 -80 345 -48 95 -150 208 -255 280 -61 42 -222 115 -255
115 -12 0 -30 5 -40 10 -28 15 -217 15 -281 0 -180 -42 -313 -112 -424 -225
-80 -81 -218 -249 -228 -279 -4 -12 -57 1 -57 15 0 7 -15 29 -32 49 -18 21
-49 59 -68 84 -60 79 -202 211 -270 250 -93 54 -94 54 -157 75 -129 41 -249
56 -338 41z m195 -162 c0 -7 -25 -34 -54 -60 -51 -45 -115 -149 -116 -189 -1
-8 -7 -25 -14 -38 -13 -23 -17 -24 -142 -26 -183 -2 -250 -22 -361 -107 -35
-26 -67 -48 -73 -48 -36 0 21 139 87 213 63 71 264 197 315 197 8 0 18 3 22 7
11 12 95 34 181 48 108 17 155 18 155 3z m1543 2 c318 -46 614 -248 629 -430
4 -42 -9 -45 -49 -10 -59 52 -121 86 -183 101 -19 4 -55 13 -80 19 -25 6 -92
10 -149 8 l-104 -3 -19 45 c-11 25 -26 58 -34 73 -8 16 -14 35 -14 42 0 8 -29
44 -65 81 -35 37 -62 71 -59 75 7 12 39 11 127 -1z m-1360 -39 c83 -36 131
-113 107 -172 -21 -51 -74 -65 -110 -29 -26 26 -26 64 1 81 17 12 18 17 7 31
-7 9 -30 20 -50 23 -32 6 -40 3 -63 -20 -14 -16 -25 -33 -25 -40 0 -30 33 -86
65 -110 40 -31 78 -43 195 -59 96 -13 127 -26 188 -74 65 -52 86 -118 60 -193
-22 -64 -93 -102 -151 -80 -28 11 -67 61 -67 85 0 28 42 76 66 76 14 0 31 -12
44 -30 24 -33 40 -31 40 4 0 30 -32 71 -73 91 -32 16 -45 20 -189 49 -100 20
-155 47 -205 99 -103 107 -83 240 40 274 59 16 70 15 120 -6z m1158 7 c22 -6
55 -26 74 -45 31 -30 35 -40 35 -84 0 -30 -8 -65 -20 -88 -27 -54 -101 -114
-163 -133 -63 -20 -186 -48 -209 -48 -43 0 -134 -66 -138 -100 -6 -45 27 -58
45 -17 13 28 51 34 76 11 13 -12 19 -30 19 -60 0 -38 -5 -46 -36 -70 -34 -26
-38 -27 -82 -16 -57 15 -89 51 -98 108 -9 64 4 102 51 150 56 55 110 79 210
93 130 18 148 23 182 48 39 30 76 102 66 129 -13 37 -46 56 -82 50 -19 -3 -41
-12 -50 -21 -13 -13 -13 -17 7 -35 25 -23 26 -29 13 -63 -13 -33 -63 -45 -96
-23 -28 18 -41 70 -27 107 15 39 67 86 114 102 54 19 62 20 109 5z m-1399
-293 c26 -22 167 -95 211 -109 19 -6 23 -41 6 -52 -6 -3 -19 -26 -29 -50 -11
-25 -26 -44 -35 -44 -28 0 -93 48 -126 95 -18 25 -35 45 -37 45 -3 0 -20 -12
-39 -26 -31 -24 -39 -25 -111 -21 -42 3 -94 9 -115 12 -42 8 -76 -4 -115 -41
-26 -25 -38 -100 -24 -148 17 -60 132 -88 179 -44 27 25 29 50 7 69 -14 11
-18 10 -33 -10 -40 -53 -104 8 -70 67 30 54 129 33 169 -36 12 -20 20 -51 20
-81 0 -39 -5 -52 -27 -73 -42 -39 -66 -48 -128 -48 -47 0 -65 6 -110 35 -73
46 -95 90 -95 187 0 105 35 170 114 210 39 20 76 20 208 2 53 -7 92 13 118 60
17 32 25 32 62 1z m1580 8 c10 -9 18 -22 18 -29 0 -24 59 -46 104 -40 131 20
170 19 216 -6 24 -13 58 -42 75 -66 28 -41 30 -49 30 -135 0 -111 -19 -149
-96 -196 -40 -25 -60 -31 -109 -31 -62 0 -130 29 -130 55 0 7 -7 18 -15 25
-37 31 -1 133 60 169 48 28 92 27 116 -1 21 -26 24 -51 9 -79 -16 -28 -55 -24
-78 9 l-21 27 -10 -28 c-20 -52 16 -87 90 -87 35 0 47 6 75 36 29 31 34 42 34
86 0 48 -3 54 -46 96 -45 42 -48 44 -93 37 -25 -3 -82 -8 -126 -11 -76 -5 -81
-4 -104 20 -32 34 -42 33 -75 -11 -34 -44 -108 -103 -131 -103 -9 0 -24 19
-36 45 -11 24 -24 47 -29 50 -20 13 -10 46 18 56 65 25 190 90 207 109 22 24
24 24 47 3z m-1220 -190 c8 -10 18 -26 21 -36 9 -25 -19 -75 -49 -89 -61 -28
-115 78 -62 122 29 24 70 25 90 3z m895 -5 c31 -29 30 -72 -3 -103 -33 -30
-53 -31 -82 -5 -27 25 -30 85 -5 112 22 24 62 23 90 -4z m-1252 -73 c31 -30
86 -68 121 -86 54 -26 74 -30 121 -27 32 1 58 -1 60 -7 10 -30 -139 -175 -179
-175 -7 0 -26 -7 -43 -16 -33 -18 -207 -25 -257 -11 -36 10 -56 45 -31 54 37
13 88 91 96 148 6 36 27 145 33 163 6 21 21 14 79 -43z m1609 -12 c9 -38 16
-80 16 -94 0 -14 7 -34 15 -45 8 -10 15 -25 15 -32 0 -20 50 -82 66 -82 22 0
16 -38 -8 -51 -29 -16 -241 -17 -260 -2 -7 6 -29 14 -48 18 -19 4 -54 23 -77
41 -48 39 -119 132 -108 142 4 4 34 7 68 8 82 0 155 36 227 109 30 30 59 55
66 55 6 0 19 -30 28 -67z m-2174 15 c52 -84 -53 -166 -125 -98 -55 51 -18 130
62 130 38 0 46 -4 63 -32z m2773 12 c10 -12 17 -37 17 -59 0 -47 -28 -75 -75
-75 -48 0 -75 28 -75 77 0 54 22 77 74 77 29 0 47 -6 59 -20z m-1399 -125 c59
-110 109 -200 116 -210 14 -19 73 -129 112 -208 28 -57 36 -82 29 -95 -5 -9
-37 -46 -72 -82 -65 -68 -149 -173 -149 -186 0 -4 -6 -15 -13 -23 -7 -9 -22
-36 -32 -61 -10 -25 -22 -49 -27 -54 -9 -11 -48 21 -48 41 0 15 -22 56 -62
120 -15 23 -69 85 -119 138 -107 111 -108 117 -55 215 20 36 50 92 67 125 16
33 39 76 51 95 41 70 78 136 103 187 40 81 55 81 99 -2z m-309 -47 c17 0 47 4
68 7 35 7 37 6 37 -18 0 -14 -4 -28 -9 -31 -5 -3 -12 -18 -15 -32 -8 -31 -67
-111 -97 -132 -18 -12 -22 -12 -38 2 -9 9 -27 37 -40 63 -12 27 -26 56 -32 65
-10 19 -13 91 -3 100 3 3 26 -1 52 -10 26 -8 61 -15 77 -14z m650 -34 c-10
-80 -63 -174 -99 -174 -41 1 -135 144 -136 208 0 15 34 16 75 1 26 -10 41 -8
86 8 74 27 82 22 74 -43z m-1643 -51 c29 -26 24 -87 -9 -118 -34 -31 -73 -32
-100 -2 -27 28 -35 59 -27 91 13 52 92 69 136 29z m2619 -2 c39 -39 38 -75 -2
-112 -40 -37 -70 -37 -108 2 -39 38 -39 68 -2 108 37 40 73 41 112 2z m-1791
-43 c0 -23 42 -98 70 -123 24 -21 26 -67 5 -85 -8 -7 -15 -16 -15 -21 0 -5
-10 -26 -23 -47 -28 -44 -54 -121 -62 -183 -14 -103 -7 -99 -125 -73 -64 15
-156 53 -245 101 -32 18 -148 135 -161 164 -34 71 -45 109 -42 135 3 33 4 33
161 18 92 -8 213 9 271 39 21 11 57 38 79 58 21 21 44 40 51 42 19 7 36 -4 36
-25z m982 -56 c82 -57 223 -73 411 -46 l47 7 0 -49 c0 -64 -39 -141 -102 -202
-47 -45 -184 -142 -201 -142 -5 0 -23 -6 -40 -14 -67 -30 -210 -51 -218 -32 0
0 -4 35 -8 76 -8 75 -43 166 -97 252 -13 21 -24 41 -24 46 0 4 18 28 40 52 22
24 43 59 46 77 4 19 16 40 27 48 19 13 23 12 46 -13 14 -15 47 -42 73 -60z
m-1703 -67 c56 -28 59 -95 7 -137 -30 -25 -60 -22 -95 8 -43 36 -43 82 0 118
35 30 49 32 88 11z m2386 -15 c46 -46 6 -140 -60 -140 -32 0 -71 31 -75 60 -7
48 1 71 33 90 36 23 71 19 102 -10z m-2184 -267 c91 -69 201 -131 334 -187 22
-10 54 -24 70 -31 17 -7 44 -19 62 -25 58 -21 60 -34 14 -86 -23 -26 -44 -58
-46 -71 -3 -13 -7 -34 -10 -48 -3 -14 -12 -28 -20 -31 -28 -11 -377 315 -443
414 -21 30 -49 73 -64 95 -55 82 -36 76 103 -30z m2019 78 c0 -13 -34 -71 -41
-71 -4 0 -24 -27 -44 -59 -58 -91 -421 -438 -448 -428 -6 2 -18 26 -26 53 -7
27 -31 70 -52 96 -22 26 -39 50 -39 55 1 9 33 25 161 79 195 82 351 175 438
261 24 23 51 31 51 14z m-1339 -149 c75 -76 109 -125 109 -157 0 -14 -7 -16
-42 -10 -24 4 -51 11 -60 16 -23 12 -115 11 -123 -1 -3 -5 -15 -10 -26 -10
-17 0 -19 7 -19 68 0 81 39 172 74 172 6 0 45 -35 87 -78z m653 39 c33 -52 48
-187 22 -197 -9 -3 -23 -1 -31 6 -16 14 -106 9 -174 -9 -61 -16 -68 -4 -32 56
31 53 157 182 178 183 7 0 24 -18 37 -39z m-528 -291 c29 -16 72 -52 97 -81
41 -47 67 -57 67 -25 0 15 62 75 115 110 66 44 177 30 251 -31 79 -65 69 -223
-18 -284 -16 -12 -49 -24 -72 -26 -54 -7 -94 24 -103 79 -5 33 -2 41 30 73 25
25 44 35 66 35 17 0 31 -4 31 -10 0 -5 7 -10 15 -10 25 0 18 56 -10 85 -36 35
-81 33 -133 -5 -45 -33 -72 -75 -72 -115 0 -32 -22 -41 -52 -21 -28 20 -114
21 -148 1 -39 -22 -47 -18 -53 25 -3 21 -14 52 -26 68 -24 35 -90 72 -127 72
-28 0 -71 -41 -81 -77 -7 -31 9 -49 27 -28 22 27 75 19 104 -16 35 -41 41 -71
22 -108 -22 -41 -50 -54 -103 -48 -52 6 -94 44 -124 113 -25 60 -24 80 9 145
23 45 36 58 82 81 76 38 138 37 206 -2z m263 -291 c53 -27 121 -90 121 -111 0
-9 -33 -55 -73 -103 -70 -82 -147 -208 -147 -239 0 -8 -5 -18 -11 -21 -12 -8
-49 23 -49 41 0 29 -65 134 -135 218 -41 49 -75 97 -75 107 0 32 85 96 175
131 37 14 148 1 194 -23z"/>
<path d="M792 2849 c-40 -15 -147 -73 -191 -105 -1 -2 0 -7 3 -13 5 -7 15 -7
34 1 15 6 70 14 122 17 88 6 95 8 98 28 2 12 14 33 28 48 13 14 24 30 24 36 0
15 -61 9 -118 -12z"/>
<path d="M2740 2863 c0 -5 11 -24 25 -43 14 -19 25 -39 25 -46 0 -18 25 -24
100 -24 38 0 83 -7 104 -15 49 -21 66 -9 30 21 -16 13 -33 23 -37 24 -5 0 -23
11 -40 24 -18 14 -45 28 -62 32 -16 4 -35 11 -41 15 -17 13 -104 23 -104 12z"/>
<path d="M1050 2249 c0 -8 -9 -31 -20 -51 -11 -20 -16 -39 -12 -42 8 -5 45 3
104 21 32 9 37 26 11 32 -9 2 -32 15 -50 28 -23 18 -33 21 -33 12z"/>
<path d="M2551 2230 c-13 -11 -32 -20 -43 -20 -38 0 -12 -23 47 -42 68 -21 87
-13 61 26 -9 14 -16 32 -16 41 0 20 -20 18 -49 -5z"/>
<path d="M1759 1978 c-39 -49 -89 -144 -89 -167 0 -6 20 -35 44 -65 25 -30 59
-80 76 -110 18 -31 36 -56 41 -56 5 0 12 12 15 28 9 34 42 86 88 137 58 64 50
104 -42 228 -56 75 -77 76 -133 5z"/>
<path d="M1292 1945 c-18 -18 -43 -35 -55 -38 -12 -3 -42 -13 -66 -22 -24 -9
-71 -18 -103 -20 -33 -2 -62 -6 -65 -8 -16 -17 58 -96 122 -130 51 -27 136
-58 145 -52 3 2 15 23 25 47 40 96 55 124 79 152 14 16 26 32 26 36 0 7 -64
70 -70 69 -3 0 -20 -15 -38 -34z m-34 -101 c16 -11 22 -25 22 -53 0 -48 -18
-63 -66 -59 -30 2 -42 9 -54 31 -24 43 5 84 70 96 3 1 16 -6 28 -15z"/>
<path d="M2281 1949 l-32 -38 41 -59 c22 -33 40 -65 40 -72 0 -6 7 -26 16 -43
9 -18 20 -39 24 -47 8 -16 48 -15 65 1 5 5 16 9 25 9 18 0 85 35 109 56 89 80
105 117 49 108 -67 -11 -217 39 -269 88 l-36 35 -32 -38z m203 -131 c6 -18 6
-38 0 -55 -8 -23 -16 -29 -48 -31 -45 -4 -76 19 -76 56 0 41 28 63 74 60 34
-3 42 -7 50 -30z"/>
</g>
</svg>
