<?xml version="1.0" standalone="no"?>
<!DOCTYPE svg PUBLIC "-//W3C//DTD SVG 20010904//EN"
 "http://www.w3.org/TR/2001/REC-SVG-20010904/DTD/svg10.dtd">
<svg version="1.0" xmlns="http://www.w3.org/2000/svg"
 width="360.000000pt" height="393.000000pt" viewBox="0 0 360.000000 393.000000"
 preserveAspectRatio="xMidYMid meet">
<metadata>
Created by potrace 1.10, written by Peter Selinger 2001-2011
</metadata>
<g transform="translate(0.000000,393.000000) scale(0.100000,-0.100000)"
fill="#000000" stroke="none">
<path d="M1677 3613 c-45 -93 -70 -136 -150 -268 -85 -138 -310 -393 -482
-546 -523 -462 -721 -677 -770 -834 -26 -84 -27 -297 -1 -375 82 -247 246
-410 506 -501 56 -20 84 -23 205 -23 108 1 149 4 179 17 21 9 45 17 53 17 41
0 211 103 283 172 29 28 123 134 144 163 25 35 29 -5 12 -122 -45 -299 -108
-492 -267 -821 -33 -67 -58 -126 -55 -130 6 -9 801 -10 810 -1 3 3 -13 41 -35
85 -41 79 -135 295 -171 389 -63 165 -108 365 -123 538 -6 72 2 83 33 46 158
-193 252 -263 442 -330 56 -20 84 -23 205 -23 141 1 186 9 290 55 106 46 258
174 322 269 39 58 84 156 94 200 25 119 29 148 29 192 0 58 -24 177 -48 233
-18 43 -62 112 -101 160 -42 50 -330 336 -429 425 -52 47 -108 98 -125 113
-18 16 -68 61 -112 100 -253 222 -463 492 -607 778 -26 54 -48 104 -48 113 0
9 -7 16 -15 16 -8 0 -36 -44 -68 -107z m79 -220 c14 -50 70 -145 119 -203 30
-36 62 -78 71 -95 l17 -29 -39 -34 c-117 -101 -253 -101 -372 0 -38 32 -40 54
-9 88 57 62 140 178 157 220 29 71 46 87 56 53z m-237 -399 c39 -32 41 -75 7
-109 -33 -33 -72 -42 -95 -21 -22 20 -31 12 -31 -30 0 -24 8 -39 31 -58 37
-31 56 -32 108 -5 50 26 62 40 82 98 11 30 21 44 30 41 32 -10 152 -11 162 -1
21 21 37 12 37 -23 0 -40 28 -78 81 -112 45 -28 76 -30 105 -6 62 52 57 129
-5 90 -15 -9 -26 -8 -54 5 -54 26 -64 91 -20 132 34 31 56 31 108 2 45 -25 85
-92 85 -142 0 -50 -40 -117 -85 -142 -59 -33 -151 -32 -207 3 -48 31 -87 70
-99 102 -12 30 -24 28 -48 -11 -21 -35 -75 -87 -90 -87 -5 0 -14 -7 -21 -15
-9 -11 -32 -15 -81 -15 -57 0 -77 5 -109 25 -58 37 -75 68 -75 140 0 51 4 67
27 97 27 35 79 67 110 68 9 0 30 -12 47 -26z m-268 -195 c6 -38 40 -93 66
-108 22 -12 10 -39 -24 -52 -29 -12 -51 -22 -138 -60 -139 -61 -203 -97 -292
-165 -54 -41 -101 -74 -105 -74 -26 0 114 180 213 275 157 151 244 225 259
223 8 -2 17 -19 21 -39z m1026 29 c4 -7 28 -31 53 -52 155 -135 252 -233 317
-319 40 -54 73 -103 73 -108 0 -17 -17 -9 -61 29 -52 46 -160 120 -209 144
-83 40 -171 78 -183 78 -6 0 -21 7 -31 15 -11 8 -28 15 -38 15 -10 0 -27 9
-38 20 l-20 20 33 35 c19 19 40 54 47 77 7 24 15 46 17 51 6 11 31 8 40 -5z
m-521 -135 c27 -80 79 -156 178 -261 47 -49 86 -95 86 -101 0 -9 -104 -216
-131 -261 -37 -61 -99 -173 -118 -212 -27 -57 -42 -55 -75 11 -29 58 -86 163
-96 176 -4 6 -34 60 -65 120 -32 61 -61 114 -66 119 -22 24 -8 62 44 116 78
81 150 177 187 248 34 64 47 74 56 45z m-172 -72 c4 -5 2 -21 -3 -35 -12 -30
-149 -176 -166 -176 -21 0 -41 33 -59 98 -26 94 -23 98 81 94 68 -3 93 0 108
12 23 18 32 19 39 7z m348 -7 c22 -11 52 -15 112 -13 l81 3 -3 -59 c-4 -63
-34 -135 -57 -135 -20 0 -140 124 -164 170 -27 51 -19 60 31 34z m-628 -100
c3 -9 6 -28 6 -44 0 -48 36 -147 80 -221 l41 -70 -28 -32 c-27 -31 -56 -83
-67 -119 -7 -25 -16 -23 -55 13 -79 72 -146 97 -274 105 -56 4 -100 1 -137 -9
-30 -9 -58 -13 -62 -11 -15 10 -8 72 13 120 50 113 234 242 380 265 35 6 65
12 68 15 10 9 29 3 35 -12z m979 -4 c30 -5 63 -13 74 -18 10 -5 38 -19 63 -31
59 -29 78 -41 115 -73 16 -16 33 -28 37 -28 4 0 24 -24 46 -54 46 -65 74 -162
51 -177 -8 -5 -21 -6 -29 -2 -43 19 -154 26 -218 15 -110 -19 -135 -29 -201
-83 -34 -28 -64 -49 -66 -47 -2 2 -15 27 -30 56 -14 29 -37 64 -51 79 -25 27
-25 51 -1 82 38 47 75 135 82 198 9 70 29 106 55 98 10 -3 43 -10 73 -15z
m602 -260 c10 -11 15 -31 13 -51 -6 -64 -92 -79 -122 -21 -37 72 55 132 109
72z m-2193 3 c27 -24 23 -68 -8 -92 -35 -27 -59 -26 -89 4 -29 28 -31 46 -9
80 20 30 77 34 106 8z m-128 -164 c32 -25 34 -64 4 -96 -29 -31 -71 -30 -97 3
-27 35 -26 59 4 89 30 30 54 31 89 4z m2431 5 c30 -20 34 -77 8 -106 -41 -45
-119 -2 -109 61 9 56 54 76 101 45z m-1435 -106 c20 -38 25 -69 14 -80 -3 -3
-20 -2 -39 3 -31 9 -62 5 -132 -16 -20 -7 -23 -4 -23 22 0 47 29 120 62 155
l30 33 34 -39 c18 -21 42 -56 54 -78z m477 85 c50 -69 77 -168 48 -179 -8 -4
-22 0 -31 7 -11 9 -42 13 -90 12 -41 0 -74 3 -74 9 0 36 94 178 118 178 4 0
17 -12 29 -27z m-940 -28 c19 -8 42 -15 50 -15 33 0 153 -115 153 -147 0 -5
-24 -9 -52 -9 -67 0 -151 -40 -212 -101 -58 -57 -73 -56 -81 5 -11 93 -44 180
-82 217 -53 51 -35 62 105 64 53 1 95 -4 119 -14z m1507 5 c32 -12 33 -33 2
-53 -32 -22 -60 -85 -79 -186 -10 -47 -19 -87 -22 -90 -3 -2 -24 13 -48 35
-23 22 -58 52 -78 66 -44 33 -138 61 -173 52 -38 -9 -34 19 10 73 39 47 72 68
149 94 56 19 199 24 239 9z m217 -106 c61 -38 83 -85 82 -173 0 -61 -4 -84
-22 -113 -43 -71 -113 -96 -221 -79 -76 12 -136 1 -145 -28 -13 -41 -32 -45
-73 -18 -49 34 -132 77 -147 77 -7 0 -23 8 -36 19 -20 16 -21 21 -10 35 8 9
21 31 30 49 26 51 45 46 121 -33 51 -53 70 -68 77 -58 29 49 120 62 201 31 42
-16 46 -16 80 2 52 27 73 51 83 93 14 61 1 100 -44 133 -48 35 -92 37 -128 6
-37 -31 -41 -51 -16 -78 l21 -22 14 21 c28 42 80 14 62 -33 -21 -55 -66 -56
-124 -2 -127 120 42 267 195 171z m-1975 4 c41 -31 44 -37 43 -88 0 -48 -21
-82 -71 -113 -36 -22 -60 -21 -81 3 -22 26 -22 59 1 76 14 11 21 9 45 -14 28
-27 40 -24 51 14 10 32 -37 84 -75 84 -37 0 -88 -25 -111 -54 -24 -29 -23
-102 2 -144 11 -18 39 -42 64 -54 42 -20 46 -20 85 -4 64 25 143 21 179 -9 17
-14 32 -25 35 -25 3 0 34 29 70 65 66 66 107 84 107 46 0 -11 11 -33 25 -49
23 -28 23 -30 7 -44 -9 -8 -56 -33 -103 -56 -47 -23 -92 -48 -99 -57 -18 -22
-33 -18 -55 17 -26 41 -63 50 -144 37 -164 -26 -252 45 -251 203 1 68 24 114
78 155 39 29 51 33 106 33 50 0 69 -5 92 -22z m-365 -89 c31 -16 42 -55 24
-88 -23 -46 -65 -54 -102 -19 -60 56 5 147 78 107z m2594 -14 c30 -30 31 -54
4 -89 -25 -32 -64 -34 -96 -4 -29 27 -29 65 -1 95 28 30 63 29 93 -2z m-1524
-12 c28 -17 59 -76 59 -114 0 -38 -40 -98 -86 -130 -47 -32 -113 -51 -219 -64
-101 -12 -175 -74 -175 -147 0 -46 25 -68 76 -68 33 0 46 5 59 23 15 20 14 23
-5 36 -26 17 -25 39 2 68 27 29 36 29 65 1 68 -64 -18 -187 -131 -188 -58 0
-109 28 -132 73 -36 68 23 184 117 231 18 9 79 26 134 37 55 11 119 28 143 37
76 30 122 122 64 130 -14 2 -24 -3 -29 -15 -3 -10 -10 -24 -16 -30 -25 -33
-79 47 -58 85 29 54 77 67 132 35z m486 -5 c31 -29 32 -91 2 -112 -26 -18 -43
-12 -57 20 -15 32 -40 31 -48 -2 -8 -32 18 -70 67 -98 19 -10 84 -29 144 -41
132 -28 170 -43 211 -87 52 -56 64 -80 64 -131 0 -59 -10 -79 -54 -106 -52
-32 -122 -29 -174 9 -43 31 -72 75 -72 109 0 20 43 71 59 71 18 0 61 -43 61
-60 0 -11 -9 -24 -20 -30 -44 -24 -6 -62 57 -58 36 2 48 8 61 30 15 25 15 31
1 70 -26 71 -67 95 -201 118 -126 21 -177 42 -225 92 -36 38 -47 80 -37 134
15 80 108 122 161 72z m-684 -40 c28 -22 32 -63 8 -87 -28 -28 -55 -26 -80 5
-26 33 -26 45 -1 72 23 25 48 28 73 10z m835 -4 c43 -30 16 -104 -37 -104 -20
0 -61 40 -61 59 0 20 40 61 60 61 8 0 26 -7 38 -16z m904 -193 c-42 -93 -121
-185 -195 -227 -140 -80 -284 -129 -415 -141 -75 -6 -96 6 -56 32 59 38 110
121 148 239 5 15 11 17 34 10 39 -13 136 -8 223 10 106 22 153 44 223 105 46
40 63 27 38 -28z m-2660 19 c52 -49 134 -82 248 -102 124 -21 154 -22 179 -6
24 15 46 -1 55 -40 15 -59 70 -154 112 -191 24 -21 44 -41 44 -45 0 -21 -214
12 -298 46 -158 63 -242 116 -312 195 -58 66 -102 173 -71 173 6 0 25 -14 43
-30z m1326 -351 c2 -32 15 -91 48 -224 33 -133 55 -201 90 -283 22 -50 18 -72
-11 -72 -19 0 -29 9 -41 38 -44 98 -81 211 -86 261 -5 56 -23 46 -42 -21 -35
-125 -51 -173 -76 -223 -20 -40 -31 -51 -53 -53 -32 -4 -33 -2 -6 68 36 95 86
262 104 345 34 159 47 206 59 202 6 -2 12 -19 14 -38z m31 -520 c32 -57 -19
-114 -77 -87 -15 7 -31 25 -36 40 -8 23 -6 32 14 53 32 34 78 31 99 -6z m-49
-164 c41 0 101 4 132 9 57 8 58 8 69 -20 23 -62 33 -114 24 -123 -20 -20 -228
-33 -335 -21 -125 14 -133 17 -125 44 4 11 11 41 17 66 6 25 16 48 22 53 6 4
36 4 66 0 30 -5 89 -8 130 -8z"/>
<path d="M1718 2498 c-7 -13 -19 -35 -25 -49 -6 -14 -32 -51 -57 -82 -25 -31
-46 -64 -46 -72 0 -30 59 -140 95 -177 20 -21 45 -38 55 -38 21 0 89 80 121
141 30 60 25 94 -22 147 -22 26 -52 70 -66 99 -13 29 -28 53 -33 53 -4 0 -14
-10 -22 -22z"/>
<path d="M1105 2389 c-60 -29 -145 -109 -145 -135 0 -10 15 -14 60 -14 32 0
74 -6 92 -14 18 -8 53 -22 78 -32 25 -10 53 -28 63 -41 25 -31 37 -29 70 13
l29 35 -36 52 c-20 29 -36 57 -36 64 0 6 -7 24 -14 40 -8 15 -17 36 -20 46 -8
27 -72 21 -141 -14z m102 -27 c22 -14 27 -67 8 -85 -33 -34 -87 -10 -87 38 0
42 45 69 79 47z"/>
<path d="M2233 2403 c-21 -58 -55 -127 -77 -156 -14 -19 -26 -39 -26 -45 0 -6
15 -27 33 -47 l34 -37 16 26 c30 45 159 96 244 96 45 0 53 3 53 18 0 34 -85
109 -163 145 -50 23 -106 23 -114 0z m91 -45 c37 -16 42 -45 15 -74 -12 -13
-31 -24 -41 -24 -22 0 -58 34 -58 55 0 17 35 55 50 55 5 0 20 -5 34 -12z"/>
<path d="M980 1968 c0 -7 7 -22 15 -32 8 -11 15 -28 15 -38 0 -19 25 -25 35
-8 3 5 24 14 45 20 44 12 48 20 23 42 -24 21 -133 34 -133 16z"/>
<path d="M2419 1973 c-62 -7 -92 -63 -35 -63 13 0 29 -7 36 -15 20 -24 39 -17
55 21 20 48 19 64 -2 62 -10 -1 -34 -3 -54 -5z"/>
<path d="M2825 1445 c-17 -8 -64 -14 -107 -15 l-76 0 -22 -45 c-12 -25 -26
-45 -31 -45 -5 0 -9 -9 -9 -19 0 -43 133 -2 252 76 64 42 78 64 40 62 -9 0
-30 -7 -47 -14z"/>
<path d="M587 1453 c-7 -6 30 -45 54 -57 8 -3 28 -15 44 -26 17 -11 37 -23 45
-26 8 -3 29 -12 45 -19 42 -17 99 -25 115 -15 12 7 11 12 -4 29 -10 11 -25 35
-34 53 -17 33 -17 33 -107 39 -49 3 -100 11 -112 17 -25 14 -37 15 -46 5z"/>
</g>
</svg>
